<svg width="374" height="365" viewBox="0 0 374 365" fill="none" xmlns="http://www.w3.org/2000/svg">
<path d="M229.557 99.9277L225.072 70.6858C222.482 53.7955 198.771 52.182 193.916 68.5656L182.721 106.349C180.114 115.149 170.653 119.956 162.008 116.874L107.793 97.5466C91.8684 91.8693 79.1674 111.556 90.9043 123.725L121.216 155.152C128.305 162.502 126.789 174.521 118.097 179.879L74.012 207.06C58.8894 216.384 67.9568 239.726 85.4078 236.396L136.806 226.589C146.667 224.707 155.805 232.266 155.805 242.305V295.439C155.805 312.422 178.777 317.706 186.197 302.429L218.372 236.189C222.004 228.711 230.758 225.261 238.515 228.249L300.003 251.935C316.295 258.21 329.429 237.574 316.845 225.472L271.644 182C264.713 175.335 265.186 164.105 272.652 158.045L305.022 131.773C318.122 121.141 307.974 100.095 291.497 103.725L248.814 113.128C239.787 115.116 230.958 109.064 229.557 99.9277Z" fill="white" fill-opacity="0.2"/>
</svg>
