<svg width="40" height="40" viewBox="0 0 40 40" fill="none" xmlns="http://www.w3.org/2000/svg">
<rect width="40" height="40" rx="12" fill="#47FF78"/>
<path fill-rule="evenodd" clip-rule="evenodd" d="M13.0359 23.64C15.947 22.944 18.9706 24.02 20.8554 26.3766C18.0097 26.8535 16.3337 26.1191 16.3065 26.1071L15.7509 27.2698C15.8516 27.3183 17.0156 27.855 19.0159 27.855C20.4309 27.855 22.2692 27.5753 24.4408 26.6703C25.4196 26.2624 26.625 26.5894 27.106 27.5343L27.4038 28.13L24.5227 29.5709C22.4532 30.6053 20.6681 30.9994 19.1191 31C17.3151 31 15.8302 30.4856 14.5844 30.054C14.5084 30.0277 14.4333 30.0017 14.3591 29.9761C14.2472 29.9375 14.1393 29.8996 14.0351 29.8631C13.0736 29.5261 12.4288 29.3001 11.8855 29.5709L11.3092 29.8591L9.00373 25.2488C9.07036 25.2193 9.17013 25.1647 9.30335 25.0917C9.89019 24.7705 11.126 24.0939 13.0359 23.64ZM19.3556 20.9989V10.9329C19.3556 9.86707 20.2227 9 21.2886 9H21.9329V20.6405H20.6443C20.1728 20.6405 19.7362 20.777 19.3556 20.9989ZM30.9962 9H23.2215V20.6405H30.9962V9ZM30.3517 21.9292C29.9959 21.9292 29.7074 22.2175 29.7074 22.5735C29.7074 22.9293 29.9959 23.2178 30.3517 23.2178H30.996V24.5064H20.6441C19.9324 24.5064 19.3555 23.9294 19.3555 23.2178C19.3555 22.5061 19.9324 21.9292 20.6441 21.9292H30.3517Z" fill="white"/>
</svg>
