<svg width="40" height="40" viewBox="0 0 40 40" fill="none" xmlns="http://www.w3.org/2000/svg">
<rect width="40" height="40" rx="12" fill="#9847FF"/>
<path fill-rule="evenodd" clip-rule="evenodd" d="M23.8581 21.6988L24.4755 21.7001V30.9866H15.5877V21.6811L16.1382 21.6823C16.157 21.696 19.9985 27.35 19.9985 27.35C19.9985 27.35 23.8458 21.7077 23.8581 21.6988ZM14.2926 20.9011H12.8582V31H14.2926V20.9011ZM27.205 20.9011H25.7705V31H27.205V20.9011ZM14.0701 9C14.8853 9 15.6023 9.43746 15.9869 10.1011C14.9095 10.9248 14.0911 12.071 13.6781 13.3946C12.6432 13.209 11.8551 12.3026 11.8551 11.215C11.8551 9.99367 12.8487 9 14.0701 9ZM28.1447 11.215C28.1447 12.3026 27.3566 13.209 26.3216 13.3946C25.9087 12.071 25.0903 10.9248 24.0128 10.1011C24.3975 9.43746 25.1145 9 25.9297 9C27.1511 9 28.1447 9.99367 28.1447 11.215ZM22.3936 15.5509H25.3253L25.3253 16.3172C25.3253 17.7659 24.7537 19.1206 23.7159 20.1318C22.6785 21.1426 21.3092 21.6786 19.8575 21.6407C16.9995 21.5664 14.6744 19.1498 14.6744 16.2539V15.5509H17.6061C18.5772 15.5509 19.4427 15.0929 19.9999 14.3823C20.5571 15.093 21.4226 15.5509 22.3936 15.5509ZM18.1664 17.8681C18.1664 18.8838 18.9929 19.7103 20.0087 19.7103C21.0245 19.7103 21.8509 18.8838 21.8509 17.8681H20.5559C20.5559 18.1698 20.3104 18.4153 20.0087 18.4153C19.7069 18.4153 19.4615 18.1698 19.4615 17.8681H18.1664ZM17.6062 14.2559H14.7905C15.2576 12.0553 17.0879 10.3526 19.3525 10.0769V12.5097H19.3524V12.5105C19.3519 13.473 18.5688 14.2559 17.6062 14.2559ZM25.2093 14.2559H22.3936C21.431 14.2559 20.6479 13.473 20.6474 12.5105V10.0769C22.9119 10.3526 24.7422 12.0553 25.2093 14.2559ZM28.4997 22.2657C29.8224 23.4769 30.5958 25.2025 30.5958 27.0036V30.9865H28.4997V22.2657ZM19.8236 22.9352C19.8832 22.9367 19.9423 22.9375 20.0016 22.9375C20.5248 22.9379 21.0462 22.8766 21.555 22.755L20.001 25.0417L18.4552 22.755C18.9038 22.8629 19.3624 22.9233 19.8236 22.9352ZM9.40352 27.0036C9.40352 25.1263 10.1829 23.4174 11.5629 22.2178V30.9865H9.40352V27.0036Z" fill="white"/>
</svg>
