<svg width="40" height="40" viewBox="0 0 40 40" fill="none" xmlns="http://www.w3.org/2000/svg">
<rect width="40" height="40" rx="12" fill="#47BFFF"/>
<path fill-rule="evenodd" clip-rule="evenodd" d="M25.4999 20.6471C22.2888 20.6471 19.6764 23.2595 19.6764 26.4706C19.6764 28.2982 20.5229 29.9315 21.8441 31H9.97053V9H25.4999V20.6471ZM22.9117 12.8824H15.147V14.1765H22.9117V12.8824ZM22.9117 15.4706H15.147V16.7647H22.9117V15.4706ZM22.9117 18.0588H15.147V19.3529H22.9117V18.0588ZM19.6764 20.6471H15.147V21.9412H19.6764V20.6471ZM12.5588 24.5294H13.8529V23.2353H12.5588V24.5294ZM12.5588 21.9412H13.8529V20.6471H12.5588V21.9412ZM12.5588 19.3529H13.8529V18.0588H12.5588V19.3529ZM12.5588 16.7647H13.8529V15.4706H12.5588V16.7647ZM12.5588 14.1765H13.8529V12.8824H12.5588V14.1765ZM15.147 24.5294H17.7352V23.2353H15.147V24.5294ZM20.9705 26.4707C20.9705 23.9692 22.9984 21.9413 25.4999 21.9413C28.0015 21.9413 30.0294 23.9692 30.0294 26.4707C29.8082 32.4708 21.1926 32.4724 20.9705 26.4707ZM23.263 26.7665L25.0146 28.5181L27.737 25.7959L26.8219 24.8808L25.0147 26.688L24.1781 25.8514L23.263 26.7665Z" fill="white"/>
</svg>
