<svg width="40" height="40" viewBox="0 0 40 40" fill="none" xmlns="http://www.w3.org/2000/svg">
<rect width="40" height="40" rx="12" fill="#D747FF"/>
<path fill-rule="evenodd" clip-rule="evenodd" d="M14.8438 19.3125V9H25.1563V19.3125H14.8438ZM21.2339 16.3358L21.6146 17.3446H22.9924L20.586 10.9679L19.4358 10.969L17.0076 17.3446H18.387L18.7712 16.3358H21.2339ZM9.04297 20.6875V31H19.3555V20.6875H9.04297ZM14.4593 29.0387C14.0833 29.0387 12.0474 29.0478 12.0474 29.0478V22.5761H14.1966C15.2092 22.5761 16.033 23.3999 16.033 24.4125C16.0332 24.7675 15.93 25.1148 15.7359 25.412C16.2002 25.786 16.4981 26.3588 16.4981 27C16.4981 28.1241 15.5835 29.0387 14.4593 29.0387ZM19.2623 15.0467H20.7476L20.0083 13.0879L19.2623 15.0467ZM20.6446 20.6875V31H30.9571V20.6875H20.6446ZM28.0859 28.4085C26.1039 30.1179 22.93 28.4049 22.9865 25.8437C22.9642 23.2741 25.9308 21.6977 28.0449 23.154L27.3232 24.2222C26.0494 23.3456 24.262 24.2953 24.2755 25.8438C24.2755 26.9217 25.1526 27.7988 26.2306 27.7988C26.7076 27.7983 27.092 27.6311 27.3744 27.2954L28.3622 28.1235C28.2771 28.225 28.1848 28.3203 28.0859 28.4085ZM14.1966 24.9598C14.4984 24.9598 14.744 24.7143 14.744 24.4125C14.744 24.1107 14.4985 23.8652 14.1966 23.8652H13.3366V24.9612C13.3366 24.9612 13.4118 24.9611 13.5182 24.9609L13.5255 24.9609C13.755 24.9605 14.1209 24.9598 14.1966 24.9598ZM14.4594 26.2503C14.4594 26.2503 13.4406 26.2511 13.3366 26.2515V27.7532C13.7531 27.7515 14.2535 27.7497 14.4594 27.7497C14.8728 27.7497 15.2091 27.4134 15.2091 27C15.2091 26.5866 14.8728 26.2503 14.4594 26.2503Z" fill="white"/>
</svg>
