<svg width="40" height="40" viewBox="0 0 40 40" fill="none" xmlns="http://www.w3.org/2000/svg">
<rect width="40" height="40" rx="12" fill="#477BFF"/>
<path d="M29.75 16.1122V13.25C29.75 12.8522 29.592 12.4706 29.3107 12.1893C29.0294 11.908 28.6478 11.75 28.25 11.75H11.75C11.3522 11.75 10.9706 11.908 10.6893 12.1893C10.408 12.4706 10.25 12.8522 10.25 13.25V25.25C10.25 25.6478 10.408 26.0294 10.6893 26.3107C10.9706 26.592 11.3522 26.75 11.75 26.75H23V29C22.9988 29.1322 23.0326 29.2624 23.0979 29.3774C23.1633 29.4923 23.2579 29.588 23.3721 29.6546C23.4863 29.7212 23.6161 29.7565 23.7483 29.7567C23.8805 29.757 24.0105 29.7224 24.125 29.6562L26.375 28.3681L28.625 29.6562C28.7395 29.7224 28.8695 29.757 29.0017 29.7567C29.1339 29.7565 29.2637 29.7212 29.3779 29.6546C29.4921 29.588 29.5867 29.4923 29.6521 29.3774C29.7174 29.2624 29.7512 29.1322 29.75 29V23.1378C30.2241 22.6838 30.6014 22.1385 30.8592 21.5348C31.1169 20.9311 31.2498 20.2814 31.2498 19.625C31.2498 18.9686 31.1169 18.3189 30.8592 17.7152C30.6014 17.1115 30.2241 16.5662 29.75 16.1122ZM20 21.5H14.75C14.5511 21.5 14.3603 21.421 14.2197 21.2803C14.079 21.1397 14 20.9489 14 20.75C14 20.5511 14.079 20.3603 14.2197 20.2197C14.3603 20.079 14.5511 20 14.75 20H20C20.1989 20 20.3897 20.079 20.5303 20.2197C20.671 20.3603 20.75 20.5511 20.75 20.75C20.75 20.9489 20.671 21.1397 20.5303 21.2803C20.3897 21.421 20.1989 21.5 20 21.5ZM20 18.5H14.75C14.5511 18.5 14.3603 18.421 14.2197 18.2803C14.079 18.1397 14 17.9489 14 17.75C14 17.5511 14.079 17.3603 14.2197 17.2197C14.3603 17.079 14.5511 17 14.75 17H20C20.1989 17 20.3897 17.079 20.5303 17.2197C20.671 17.3603 20.75 17.5511 20.75 17.75C20.75 17.9489 20.671 18.1397 20.5303 18.2803C20.3897 18.421 20.1989 18.5 20 18.5ZM28.25 27.7072L26.75 26.8484C26.6367 26.7837 26.5084 26.7496 26.3778 26.7496C26.2473 26.7496 26.119 26.7837 26.0056 26.8484L24.5056 27.7072V24.125C25.0996 24.3732 25.7369 24.5009 26.3806 24.5009C27.0243 24.5009 27.6617 24.3732 28.2556 24.125L28.25 27.7072ZM26.375 23C25.7075 23 25.055 22.8021 24.4999 22.4312C23.9449 22.0604 23.5124 21.5333 23.2569 20.9166C23.0015 20.2999 22.9346 19.6213 23.0648 18.9666C23.1951 18.3119 23.5165 17.7105 23.9885 17.2385C24.4605 16.7665 25.0619 16.4451 25.7166 16.3148C26.3713 16.1846 27.0499 16.2515 27.6666 16.5069C28.2833 16.7624 28.8104 17.1949 29.1812 17.75C29.5521 18.305 29.75 18.9575 29.75 19.625C29.75 20.0682 29.6627 20.5071 29.4931 20.9166C29.3235 21.326 29.0749 21.6981 28.7615 22.0115C28.4481 22.3249 28.076 22.5735 27.6666 22.7431C27.2571 22.9127 26.8182 23 26.375 23Z" fill="white"/>
</svg>
