<svg width="40" height="40" viewBox="0 0 40 40" fill="none" xmlns="http://www.w3.org/2000/svg">
<rect width="40" height="40" rx="12" fill="#FF7E47"/>
<path fill-rule="evenodd" clip-rule="evenodd" d="M25.1287 20.3369H19.1724V9H31V20.3369H28.7189L25.1287 22.513V20.3369ZM24.4416 12.3272H22.0192V13.6163H22.9448C23.0743 14.4643 23.455 15.2752 24.0387 15.938C23.4794 16.2109 22.8045 16.3738 22.0192 16.3738V17.6629C23.3678 17.6629 24.3701 17.2824 25.0861 16.8289C25.8021 17.2824 26.8045 17.6629 28.1531 17.6629V16.3738C27.3678 16.3738 26.6928 16.2109 26.1336 15.938C26.7173 15.2752 27.0981 14.4643 27.2274 13.6163H28.1531V12.3272H25.7307V11.0967H24.4416V12.3272ZM21.2841 21.6257H17.8834V17.4869H9V28.8237H11.5453L15.1355 30.9998V28.8237H21.2841V21.6257ZM16.7002 26.2665L16.1761 24.8778H14.1107L13.5813 26.2677L12.3767 25.8089L14.6033 19.9628L15.6986 19.9616L17.9062 25.8115L16.7002 26.2665ZM25.0862 15.1739C25.516 14.7193 25.7957 14.1757 25.9176 13.6161H24.2549C24.3768 14.1757 24.6565 14.7194 25.0862 15.1739ZM14.6018 23.5889H15.6897L15.1483 22.154L14.6018 23.5889Z" fill="white"/>
</svg>
