<svg width="25" height="24" viewBox="0 0 25 24" fill="none" xmlns="http://www.w3.org/2000/svg">
<path d="M20.5306 7.71938L15.2806 2.46938C15.2109 2.39975 15.1282 2.34454 15.0371 2.3069C14.9461 2.26926 14.8485 2.24992 14.75 2.25H5.75C5.35218 2.25 4.97064 2.40804 4.68934 2.68934C4.40804 2.97064 4.25 3.35218 4.25 3.75V20.25C4.25 20.6478 4.40804 21.0294 4.68934 21.3107C4.97064 21.592 5.35218 21.75 5.75 21.75H19.25C19.6478 21.75 20.0294 21.592 20.3107 21.3107C20.592 21.0294 20.75 20.6478 20.75 20.25V8.25C20.7501 8.15148 20.7307 8.05391 20.6931 7.96286C20.6555 7.87182 20.6003 7.78908 20.5306 7.71938ZM15.5 4.81031L18.1897 7.5H15.5V4.81031ZM19.25 20.25H5.75V3.75H14V8.25C14 8.44891 14.079 8.63968 14.2197 8.78033C14.3603 8.92098 14.5511 9 14.75 9H19.25V20.25ZM15.2806 14.4694C15.3504 14.539 15.4057 14.6217 15.4434 14.7128C15.4812 14.8038 15.5006 14.9014 15.5006 15C15.5006 15.0986 15.4812 15.1962 15.4434 15.2872C15.4057 15.3783 15.3504 15.461 15.2806 15.5306L13.0306 17.7806C12.961 17.8504 12.8783 17.9057 12.7872 17.9434C12.6962 17.9812 12.5986 18.0006 12.5 18.0006C12.4014 18.0006 12.3038 17.9812 12.2128 17.9434C12.1217 17.9057 12.039 17.8504 11.9694 17.7806L9.71937 15.5306C9.57864 15.3899 9.49958 15.199 9.49958 15C9.49958 14.801 9.57864 14.6101 9.71937 14.4694C9.86011 14.3286 10.051 14.2496 10.25 14.2496C10.449 14.2496 10.6399 14.3286 10.7806 14.4694L11.75 15.4397V11.25C11.75 11.0511 11.829 10.8603 11.9697 10.7197C12.1103 10.579 12.3011 10.5 12.5 10.5C12.6989 10.5 12.8897 10.579 13.0303 10.7197C13.171 10.8603 13.25 11.0511 13.25 11.25V15.4397L14.2194 14.4694C14.289 14.3996 14.3717 14.3443 14.4628 14.3066C14.5538 14.2688 14.6514 14.2494 14.75 14.2494C14.8486 14.2494 14.9462 14.2688 15.0372 14.3066C15.1283 14.3443 15.211 14.3996 15.2806 14.4694Z" fill="#323231"/>
</svg>
