<svg width="24" height="24" viewBox="0 0 24 24" fill="none" xmlns="http://www.w3.org/2000/svg">
<g clip-path="url(#clip0_47_3756)">
<path d="M1.22046 12.5088H2.21332L7.13706 19.5154C7.27266 19.7081 7.46114 19.8575 7.67975 19.9454C7.89836 20.0334 8.13776 20.0561 8.36903 20.011C8.6004 19.9659 8.81375 19.8547 8.9833 19.6909C9.15285 19.5272 9.27136 19.3178 9.32449 19.0881L12.2582 6.40702H22.7796C22.9415 6.4097 23.1024 6.38011 23.2528 6.31998C23.4032 6.25985 23.5402 6.17038 23.6557 6.05678C23.7712 5.94319 23.8629 5.80774 23.9255 5.65834C23.9881 5.50893 24.0204 5.34856 24.0204 5.18656C24.0204 5.02457 23.9881 4.8642 23.9255 4.71479C23.8629 4.56539 23.7712 4.42994 23.6557 4.31635C23.5402 4.20275 23.4032 4.11328 23.2528 4.05315C23.1024 3.99302 22.9415 3.96343 22.7796 3.96611H11.288C11.0121 3.96614 10.7444 4.05962 10.5285 4.23131C10.3125 4.403 10.1611 4.64278 10.0989 4.91155L7.56269 15.8754L3.84589 10.5865C3.73326 10.4264 3.58375 10.2957 3.40999 10.2054C3.23623 10.1152 3.04331 10.0681 2.84751 10.0681H1.22046C0.901081 10.0745 0.596964 10.2059 0.37338 10.4341C0.149797 10.6623 0.0245667 10.969 0.0245667 11.2884C0.0245667 11.6079 0.149797 11.9146 0.37338 12.1427C0.596964 12.3709 0.901081 12.5023 1.22046 12.5088Z" fill="white"/>
<path d="M13.6468 17.6964C13.6468 18.2957 14.1353 18.7365 14.7654 18.7365C15.191 18.7365 15.5219 18.4687 15.8055 18.1219L17.5075 15.8842L19.2094 18.1219C19.5246 18.5159 19.8552 18.7365 20.3278 18.7365C20.9272 18.7365 21.431 18.311 21.431 17.6336C21.431 17.3185 21.3048 17.0348 21.0368 16.7192L18.9252 14.2927L20.9742 11.897C21.1635 11.6606 21.3048 11.4084 21.3048 11.0773C21.3048 10.478 20.8162 10.0369 20.1859 10.0369C19.7602 10.0369 19.4296 10.3049 19.1457 10.652L17.5539 12.7318L15.994 10.652C15.6784 10.2578 15.3479 10.0369 14.8754 10.0369C14.2763 10.0369 13.7723 10.4628 13.7723 11.1404C13.7723 11.4552 13.8986 11.7392 14.1661 12.054L16.1359 14.3236L13.9769 16.8765C13.7728 17.1131 13.6468 17.3653 13.6468 17.6964Z" fill="white"/>
</g>
<defs>
<clipPath id="clip0_47_3756">
<rect width="24" height="24" fill="white"/>
</clipPath>
</defs>
</svg>
