<svg width="24" height="24" viewBox="0 0 24 24" fill="none" xmlns="http://www.w3.org/2000/svg">
<path d="M12.7031 5.95818V3.81635C13.4448 3.53243 13.9731 2.8135 13.9731 1.97317C13.9731 0.885146 13.088 0 11.9999 0C10.9119 0 10.0268 0.885146 10.0268 1.97317C10.0268 2.81355 10.5551 3.53247 11.2968 3.81635V5.95822C11.5284 5.91277 11.7639 5.88985 11.9999 5.88978C12.236 5.88989 12.4714 5.91279 12.7031 5.95818ZM8.5654 10.829C8.47931 10.5978 8.41698 10.3584 8.37935 10.1146C8.3508 9.92889 8.33643 9.74127 8.33636 9.55337C8.33636 9.39648 8.34743 9.24221 8.36665 9.09043L5.25746 7.29459C5.27358 7.19306 5.28221 7.08909 5.28221 6.98306C5.28221 5.8955 4.40058 5.01392 3.31307 5.01392C2.22556 5.01392 1.34393 5.89555 1.34393 6.98306C1.34393 8.07056 2.22556 8.95219 3.31307 8.95219C3.76524 8.95283 4.20372 8.79713 4.55423 8.51147L8.5654 10.829ZM4.54955 15.4848C4.19978 15.2015 3.76318 15.0472 3.31307 15.0478C2.22552 15.0478 1.34393 15.9294 1.34393 17.0169C1.34393 18.1045 2.22556 18.9861 3.31307 18.9861C4.40058 18.9861 5.28221 18.1045 5.28221 17.0169C5.28221 16.9108 5.27353 16.8067 5.25736 16.705L6.94103 15.7329C6.94103 15.7329 6.9429 14.9391 6.94675 14.8547C6.95917 14.583 6.99347 14.3128 7.04931 14.0466L4.54955 15.4848ZM15.4345 10.829C15.5206 10.5978 15.5829 10.3584 15.6205 10.1146C15.6491 9.92964 15.6635 9.74078 15.6635 9.55337C15.6635 9.39648 15.6525 9.24221 15.6333 9.09043L18.7424 7.29459C18.726 7.19156 18.7177 7.08739 18.7177 6.98306C18.7177 5.8955 19.5993 5.01392 20.6868 5.01392C21.7743 5.01392 22.656 5.89555 22.656 6.98306C22.656 8.07056 21.7743 8.95219 20.6868 8.95219C20.2347 8.95283 19.7962 8.79713 19.4457 8.51147L15.4345 10.829ZM19.4504 15.4848C19.8002 15.2015 20.2368 15.0472 20.6869 15.0478C21.7744 15.0478 22.656 15.9294 22.656 17.0169C22.656 18.1045 21.7744 18.9861 20.6869 18.9861C19.5994 18.9861 18.7177 18.1045 18.7177 17.0169C18.7177 16.9108 18.7264 16.8067 18.7426 16.705L17.0589 15.7329C17.0589 15.7329 17.057 14.9391 17.0532 14.8547C17.0408 14.583 17.0065 14.3128 16.9506 14.0466L19.4504 15.4848ZM11.297 20.1837C10.5553 20.4677 10.0271 21.1865 10.0271 22.0268C10.0271 23.1148 10.9122 24 12.0002 24C13.0883 24 13.9734 23.1149 13.9734 22.0268C13.9734 21.1864 13.4451 20.4675 12.7032 20.1836V17.5621H11.297V20.1837ZM14.3896 12.3269C13.7475 12.8809 12.9125 13.217 12 13.217C11.0875 13.217 10.2525 12.8809 9.61043 12.3269C8.83755 12.9972 8.34729 13.9851 8.34729 15.086V16.1558H15.6527V15.086C15.6527 13.9851 15.1624 12.9972 14.3896 12.3269Z" fill="white"/>
<path d="M14.0901 10.4196C14.5676 9.26793 14.0211 7.94726 12.8695 7.46976C11.7179 6.99227 10.3972 7.53877 9.9197 8.69041C9.4422 9.84205 9.9887 11.1627 11.1403 11.6402C12.292 12.1177 13.6127 11.5712 14.0901 10.4196Z" fill="white"/>
</svg>
