<svg width="54" height="61" viewBox="0 0 54 61" fill="none" xmlns="http://www.w3.org/2000/svg">
<path d="M53.2244 39.0162C53.2244 45.6436 47.8518 51.0162 41.2244 51.0162H29.949C28.0004 51.0162 26.4207 52.5959 26.4207 54.5444C26.4207 57.294 23.415 58.9869 21.0637 57.5617L12.182 52.1782C10.9279 51.4181 9.48957 51.0162 8.02317 51.0162C3.59208 51.0162 -3.05176e-05 47.4241 -3.05176e-05 42.993V12C-3.05176e-05 5.37258 5.37255 0 12 0H41.2244C47.8518 0 53.2244 5.37258 53.2244 12V39.0162Z" fill="white"/>
<path d="M23.7114 14.9726H12.8105V20.7734H16.9759C17.5583 24.5892 19.2715 28.2383 21.8983 31.2212C19.3817 32.4493 16.3444 33.1823 12.8105 33.1823V38.9831C18.8794 38.9831 23.3899 37.2707 26.6118 35.23C29.8338 37.2707 34.3443 38.9831 40.4131 38.9831V33.1823C36.8793 33.1823 33.842 32.4493 31.3254 31.2212C33.9522 28.2383 35.6656 24.5892 36.2478 20.7734H40.4131V14.9726H29.5122V9.4353H23.7114V14.9726Z" fill="#323231"/>
<path d="M30.3532 20.7722C29.8046 23.2903 28.5458 25.7367 26.612 27.7825C24.6782 25.7369 23.4195 23.2905 22.8711 20.7722H30.3532Z" fill="white"/>
</svg>
