<svg width="42" height="43" viewBox="0 0 42 43" fill="none" xmlns="http://www.w3.org/2000/svg">
<path d="M31.7491 27.8771C30.8148 26.8963 26.1101 21.7523 25.7814 21.3418C25.6209 21.151 25.6857 20.698 25.9729 20.03C28.0613 15.0069 29.8733 9.65242 29.7569 8.87406C29.6769 8.28835 28.5325 7.7993 27.9718 8.08868C27.4112 8.37806 23.3593 12.2432 20.5937 15.1587L18.7846 17.057C6.39406 14.3174 5.86457 13.9136 9.76713 18.1041L13.2119 21.8095C15.1671 23.9192 15.2117 23.9693 15.0011 24.6324C14.6971 25.585 13.5176 30.3974 12.8426 32.6316C11.3781 37.4264 14.8787 35.9652 21.1762 29.1052L22.6227 27.5371C22.8653 27.6281 24.3416 28.3088 31.1468 30.4967C32.711 30.9829 33.1334 29.314 31.7491 27.8771Z" fill="#323231"/>
<path d="M22.9908 25.4933C23.7841 25.9513 28.3872 27.3092 28.6092 27.2657C28.8602 27.2144 25.7869 23.8458 24.3282 22.5377C23.1591 21.4949 23.1453 21.7324 24.7892 16.9677C26.2678 12.7451 26.2676 12.745 25.4465 13.5706L20.7794 18.3311C20.3132 18.7976 19.6765 18.9205 19.1784 18.6329C18.6618 18.3346 13.2923 17.1964 12.1921 16.929C11.3083 16.713 11.5264 17.0597 13.2612 18.6988C16.7125 21.9666 17.5333 22.931 17.3466 23.5099C17.1466 24.1546 16.7599 27.1681 16.0581 29.534C15.5083 31.4237 15.5952 31.4005 17.9606 28.9651C21.5446 25.2714 22.0314 24.9394 22.9908 25.4933Z" fill="white"/>
</svg>
