<svg width="69" height="71" viewBox="0 0 69 71" fill="none" xmlns="http://www.w3.org/2000/svg">
<path d="M53.1496 25.1451C50.903 25.5979 39.2964 27.6931 38.4122 27.7935C37.9945 27.8512 37.4044 27.3499 36.7073 26.3363C31.4003 18.8166 25.3698 11.3936 24.1506 10.8582C23.24 10.4445 21.5078 11.6416 21.4164 12.7051C21.325 13.7687 23.2035 23.0547 24.8827 29.643L25.9684 33.9447C10.8719 49.2106 9.8163 49.6044 19.3345 47.7974L27.7455 46.2082C32.5289 45.3122 32.6408 45.2934 33.4 46.193C34.4895 47.4872 40.3145 53.5159 42.904 56.4972C48.4467 62.9179 49.5121 56.5891 45.3719 41.3875L44.4318 37.9026C44.781 37.6374 47.0868 36.138 56.3563 28.3698C58.463 26.5691 56.4549 24.4593 53.1496 25.1451Z" fill="#323231"/>
<path d="M41.8382 35.5327C43.2093 34.8102 49.3047 29.4456 49.4425 29.0887C49.5955 28.6831 42.0017 30.0444 38.8136 30.9526C36.2665 31.6856 36.5939 31.9196 31.2561 25.2691C26.545 19.3443 26.5447 19.3444 26.9861 21.2645L29.5912 32.2387C29.8387 33.3267 29.4403 34.349 28.5794 34.8026C27.6865 35.2731 21.2144 41.9329 19.8395 43.2666C18.7333 44.3369 19.4261 44.3374 23.3371 43.3324C31.1275 41.3392 33.2482 41.034 33.9086 41.8233C34.651 42.6911 38.6161 45.9625 41.3699 49.1009C43.579 51.5921 43.6242 51.4468 42.2714 45.8644C40.2162 37.4028 40.1801 36.4064 41.8382 35.5327Z" fill="white"/>
</svg>
