<svg width="37" height="38" viewBox="0 0 37 38" fill="none" xmlns="http://www.w3.org/2000/svg">
<path d="M28.0898 14.055C34.5178 11.0785 37.1229 9.39525 36.2634 8.78225C35.8138 8.47042 35.5843 8.45143 34.5971 8.63341C32.6825 9.01337 25.1305 12.6029 24.9657 13.2179C24.7372 14.0709 26.8013 14.6452 28.0898 14.055Z" fill="#323231"/>
<path d="M14.2575 10.5187C15.0311 10.2582 15.0126 10.1682 13.2044 6.72838C12.25 4.87793 11.3856 3.64702 10.6654 3.07134C9.68395 2.27683 8.96594 2.80737 9.25488 3.48011C11.7094 9.28315 12.9213 10.9686 14.2575 10.5187Z" fill="#323231"/>
<path d="M30.2345 21.731C29.1164 21.0487 23.4344 17.4213 23.0246 17.1201C22.827 16.9821 22.7741 16.5427 22.8752 15.8469C23.5687 10.6323 23.9211 5.1774 23.6175 4.47949C23.3962 3.95243 22.2049 3.78204 21.7536 4.19266C21.3024 4.60328 18.485 9.22767 16.6315 12.6431L15.4168 14.869C3.15749 15.4112 2.56186 15.1666 7.25589 18.104L11.4009 20.7029C13.7552 22.1842 13.8095 22.2198 13.7787 22.8919C13.7331 23.8578 13.8359 28.6481 13.7646 30.9039C13.5967 35.7491 16.5007 33.5081 20.6661 25.5243L21.6247 23.6975C21.8741 23.7219 23.4235 23.9882 30.3276 24.3286C31.9104 24.3912 31.8872 22.7266 30.2345 21.731Z" fill="#323231"/>
<path d="M21.4569 21.6965C22.3125 21.9258 26.9521 22.0421 27.1485 21.9459C27.3701 21.8351 23.6563 19.4578 21.9664 18.6011C20.6134 17.9196 20.6599 18.1449 21.003 13.2829C21.3272 8.96865 21.327 8.9686 20.7667 9.94532L17.5987 15.56C17.2801 16.1124 16.7161 16.3865 16.1789 16.2426C15.6217 16.0933 10.3213 16.374 9.22674 16.3996C8.34721 16.4191 8.63765 16.6882 10.6683 17.7852C14.7099 19.9737 15.7179 20.669 15.6885 21.2565C15.663 21.9087 16.056 24.8203 15.9927 27.2059C15.9521 29.1086 16.0274 29.0652 17.6274 26.1984C20.0505 21.8512 20.4222 21.4192 21.4569 21.6965Z" fill="white"/>
<path d="M22.113 26.2522C21.996 26.6886 25.83 33.3927 26.4866 33.8876C27.8686 34.9382 28.4898 34.2115 27.6123 32.5519C25.2619 28.0312 22.485 24.8636 22.113 26.2522Z" fill="#323231"/>
<path d="M6.45095 23.4163C1.93941 24.9714 1.34216 25.4492 3.25243 25.9611C4.18767 26.2117 11.1924 23.7088 11.1569 23.1252C11.1015 22.2174 9.65139 22.2965 6.45095 23.4163Z" fill="#323231"/>
</svg>
