<svg width="76" height="86" viewBox="0 0 76 86" fill="none" xmlns="http://www.w3.org/2000/svg">
<path d="M19.1572 63.9184C12.7302 57.7737 10.7381 40.3739 25.9059 42.1488C28.2982 39.4545 30.5571 21.124 35.148 16.806C38.5512 13.6054 45.8577 13.8848 45.2645 23.2532C44.5371 34.7464 34.1365 42.9988 37.0082 44.7236C39.5207 46.2333 50.1618 30.8439 52.5124 25.8792C55.3508 19.885 65.1787 22.9996 62.076 33.3731C59.8485 40.8213 50.6684 46.2708 47.9732 48.3227C47.6629 48.5588 47.8479 49.0566 48.2371 49.032C54.5363 48.6393 57.881 58.3956 52.3006 60.4285C52.3006 60.4285 51.289 71.9502 40.8058 72.4133C40.8058 72.4133 45.3425 78.8219 35.5484 79.3761C25.7544 79.9303 15.1607 72.3464 14.3284 66.9886C13.496 61.6308 19.1572 63.9184 19.1572 63.9184Z" fill="white"/>
<path fill-rule="evenodd" clip-rule="evenodd" d="M19.1572 63.9184C12.7302 57.7737 10.7381 40.3739 25.9059 42.1488C28.2982 39.4545 30.5571 21.124 35.148 16.806C38.5512 13.6054 45.8577 13.8848 45.2645 23.2532C44.5371 34.7464 34.1365 42.9988 37.0082 44.7236C39.5207 46.2333 50.1618 30.8439 52.5124 25.8792C55.3508 19.885 65.1787 22.9996 62.076 33.3731C59.8485 40.8213 50.6684 46.2708 47.9732 48.3227C47.6629 48.5588 47.8479 49.0566 48.2371 49.032C54.5363 48.6393 57.881 58.3956 52.3006 60.4285C52.3006 60.4285 51.289 71.9502 40.8058 72.4133C40.8058 72.4133 45.3425 78.8219 35.5484 79.3761C25.7544 79.9303 15.1607 72.3464 14.3284 66.9886C13.4961 61.6308 19.1572 63.9184 19.1572 63.9184Z" stroke="#323231" stroke-width="3" stroke-miterlimit="2"/>
<path d="M26.6839 69.1177C26.6839 69.1177 33.58 73.2453 40.8067 72.4131" stroke="#323231" stroke-width="3" stroke-miterlimit="2" stroke-linecap="round"/>
<path d="M25.906 42.1491C32.7728 43.2 38.9121 53.1859 36.5571 57.8908C34.2023 62.5952 27.8018 62.5482 23.213 50.8643" stroke="#323231" stroke-width="3" stroke-miterlimit="2" stroke-linecap="round"/>
<path d="M49.8259 52.7697C45.3636 51.6866 35.9524 53.3392 39.0874 60.1679C41.6418 65.7315 52.3008 60.429 52.3008 60.429" stroke="#323231" stroke-width="3" stroke-miterlimit="2" stroke-linecap="round"/>
<path d="M57.8417 16.8054C66.5674 15.6933 72.0673 24.6934 69.1 30.8671" stroke="#323231" stroke-width="3" stroke-linecap="round"/>
<path d="M29.6427 14.4464C31.7122 7.44394 43.2119 5.94397 47.4497 11.7273" stroke="#323231" stroke-width="3" stroke-linecap="round"/>
</svg>
