<svg width="66" height="68" viewBox="0 0 66 68" fill="none" xmlns="http://www.w3.org/2000/svg">
<path d="M50.4957 44.1382C49.0049 42.5731 41.4976 34.3648 40.973 33.7097C40.717 33.4053 40.8203 32.6824 41.2787 31.6166C44.611 23.6012 47.5025 15.057 47.3168 13.815C47.1891 12.8804 45.363 12.1 44.4683 12.5618C43.5737 13.0235 37.1082 19.1911 32.6951 23.8434L29.8083 26.8724C10.0367 22.5009 9.19175 21.8566 15.4191 28.5433L20.9159 34.4561C24.0358 37.8226 24.107 37.9025 23.7709 38.9606C23.2858 40.4806 21.4037 48.1597 20.3266 51.7249C17.9897 59.3759 23.5755 57.0443 33.6245 46.0978L35.9327 43.5956C36.3198 43.7409 38.6755 44.827 49.5347 48.3182C52.0307 49.0941 52.7047 46.4309 50.4957 44.1382Z" fill="#323231"/>
<path d="M36.5198 40.3345C37.7857 41.0654 45.131 43.2322 45.4851 43.1628C45.8856 43.081 40.9815 37.7057 38.6539 35.6183C36.7885 33.9543 36.7664 34.3333 39.3896 26.7302C41.749 19.9922 41.7487 19.992 40.4385 21.3095L32.9911 28.9057C32.2473 29.6502 31.2313 29.8463 30.4364 29.3873C29.6121 28.9114 21.0439 27.0951 19.2884 26.6685C17.8782 26.3239 18.2261 26.877 20.9943 29.4926C26.5016 34.707 27.8113 36.2458 27.5135 37.1695C27.1943 38.1983 26.5772 43.007 25.4574 46.7823C24.5801 49.7976 24.7187 49.7607 28.4933 45.8745C34.2121 39.9805 34.989 39.4507 36.5198 40.3345Z" fill="white"/>
</svg>
