<svg width="39" height="51" viewBox="0 0 39 51" fill="none" xmlns="http://www.w3.org/2000/svg">
<path d="M14.3671 42.2268C14.1435 43.2489 16.5039 43.6967 24.4199 44.1668C32.7997 44.6591 34.6661 44.4627 34.5001 43.2184C34.2507 41.5101 14.7712 40.5831 14.3671 42.2268Z" fill="#323231"/>
<path d="M13.5499 5.17022C10.4515 4.72084 9.97611 5.1942 6.96836 11.7027C3.85473 18.4218 3.52515 19.76 4.73599 20.4478C6.93661 21.6859 8.33141 20.1708 12.5971 12.0521C15.7408 6.06042 15.8368 5.50188 13.5499 5.17022Z" fill="#323231"/>
<path d="M29.1346 18.3071C26.911 17.9544 26.0353 18.2794 23.026 20.5395C14.1248 27.2779 7.23214 31.3851 11.5741 31.9847C13.3446 32.2415 15.1286 31.1595 25.8025 23.6236C31.6833 19.4299 32.1063 18.7983 29.1346 18.3071Z" fill="#323231"/>
</svg>
