<svg width="28" height="28" viewBox="0 0 28 28" fill="none" xmlns="http://www.w3.org/2000/svg">
<path d="M0.826681 27.3709C0.675845 27.2873 0.562548 27.0969 0.559999 26.9228C0.558974 26.8528 1.03642 25.555 1.62098 24.0388L2.68382 21.282L2.51202 20.9859C2.19598 20.4412 1.56605 19.1186 1.36961 18.5873C1.11943 17.9106 0.805424 16.6573 0.68478 15.8539C0.567662 15.0741 0.549446 13.0543 0.653016 12.3321C1.09933 9.22013 2.38708 6.59191 4.5021 4.47641C6.61493 2.36311 9.27649 1.05482 12.3298 0.628738C12.986 0.537166 15.0369 0.537166 15.6931 0.628738C19.625 1.17743 22.9684 3.23443 25.1468 6.44499C26.3011 8.14613 27.0044 9.97307 27.3425 12.1482C27.4603 12.9063 27.4747 14.974 27.3672 15.6962C26.9102 18.7668 25.5825 21.4538 23.4985 23.5257C20.2487 26.7565 15.6245 28.0993 11.0948 27.1274C9.94717 26.8812 8.22531 26.1978 7.15342 25.563L6.89066 25.4074L4.05285 26.4235C2.49205 26.9823 1.15592 27.4398 1.08366 27.4401C1.0114 27.4403 0.895759 27.4092 0.826681 27.3709Z" fill="#25D366"/>
<path d="M19.4985 19.4778C19.101 19.8707 18.6942 20.1215 18.1492 20.3095C17.6395 20.4853 16.7286 20.532 16.1875 20.4101C14.9264 20.1259 12.9952 19.1245 11.3429 17.8977C9.78148 16.7385 8.43723 15.0538 7.31808 12.8536C6.44965 11.1463 6.21921 10.0573 6.49671 8.97205C6.80181 7.77885 7.74271 6.79377 8.90313 6.45264C9.11387 6.39069 9.42657 6.36523 9.97689 6.36523C10.6845 6.36523 10.7664 6.3755 10.9005 6.48101C10.9936 6.55424 11.2927 7.0824 11.7146 7.91831L12.3815 9.23982L12.3796 9.70523C12.3779 10.1213 12.3573 10.2142 12.1849 10.5814C12.0789 10.8073 11.8291 11.194 11.63 11.4408L11.2679 11.8894L11.5248 12.4017C12.1926 13.7336 13.1778 14.7069 14.5412 15.3817L15.0028 15.6102L15.3165 15.327C15.9787 14.7292 16.638 14.4419 17.255 14.4822C17.6143 14.5056 17.7201 14.5483 18.952 15.1661C19.6746 15.5285 20.315 15.8797 20.3753 15.9465C20.4719 16.0536 20.4868 16.1595 20.5023 16.8486C20.5187 17.5732 20.5095 17.6603 20.3751 18.0608C20.1858 18.625 19.9096 19.0715 19.4985 19.4778Z" fill="white"/>
</svg>
