<svg width="27" height="28" viewBox="0 0 27 28" fill="none" xmlns="http://www.w3.org/2000/svg">
<path d="M0.326681 27.3709C0.175845 27.2873 0.0625477 27.0969 0.0599992 26.9228C0.0589744 26.8528 0.536416 25.555 1.12098 24.0388L2.18382 21.282L2.01202 20.9859C1.69598 20.4412 1.06605 19.1186 0.869608 18.5873C0.619434 17.9106 0.305424 16.6573 0.18478 15.8539C0.0676622 15.0741 0.0494455 13.0543 0.153016 12.3321C0.599327 9.22013 1.88708 6.59191 4.0021 4.47641C6.11493 2.36311 8.77649 1.05482 11.8298 0.628738C12.486 0.537166 14.5369 0.537166 15.1931 0.628738C19.125 1.17743 22.4684 3.23443 24.6468 6.44499C25.8011 8.14613 26.5044 9.97307 26.8425 12.1482C26.9603 12.9063 26.9747 14.974 26.8672 15.6962C26.4102 18.7668 25.0825 21.4538 22.9985 23.5257C19.7487 26.7565 15.1245 28.0993 10.5948 27.1274C9.44717 26.8812 7.72531 26.1978 6.65342 25.563L6.39066 25.4074L3.55285 26.4235C1.99205 26.9823 0.655916 27.4398 0.583657 27.4401C0.511398 27.4403 0.395759 27.4092 0.326681 27.3709Z" fill="#25D366"/>
<path d="M18.9985 19.4778C18.601 19.8707 18.1941 20.1215 17.6492 20.3095C17.1395 20.4853 16.2286 20.532 15.6875 20.4101C14.4263 20.1259 12.4952 19.1245 10.8429 17.8977C9.28145 16.7385 7.9372 15.0538 6.81805 12.8536C5.94962 11.1463 5.71918 10.0573 5.99668 8.97205C6.30178 7.77885 7.24268 6.79377 8.4031 6.45264C8.61384 6.39069 8.92654 6.36523 9.47686 6.36523C10.1844 6.36523 10.2664 6.3755 10.4005 6.48101C10.4935 6.55424 10.7927 7.0824 11.2145 7.91831L11.8815 9.23982L11.8796 9.70523C11.8779 10.1213 11.8573 10.2142 11.6849 10.5814C11.5788 10.8073 11.3291 11.194 11.13 11.4408L10.7679 11.8894L11.0247 12.4017C11.6926 13.7336 12.6778 14.7069 14.0412 15.3817L14.5027 15.6102L14.8165 15.327C15.4787 14.7292 16.1379 14.4419 16.755 14.4822C17.1143 14.5056 17.2201 14.5483 18.4519 15.1661C19.1745 15.5285 19.815 15.8797 19.8752 15.9465C19.9719 16.0536 19.9868 16.1595 20.0023 16.8486C20.0187 17.5732 20.0095 17.6603 19.8751 18.0608C19.6857 18.625 19.4095 19.0715 18.9985 19.4778Z" fill="white"/>
</svg>
