<svg width="23" height="24" viewBox="0 0 23 24" fill="none" xmlns="http://www.w3.org/2000/svg">
<path d="M18.8112 9.68127C17.992 9.66396 13.7786 9.48944 13.4622 9.45548C13.312 9.44301 13.1452 9.22203 12.981 8.81396C11.716 5.77601 10.191 2.71535 9.80732 2.43341C9.52187 2.21801 8.82405 2.50055 8.70917 2.86452C8.59429 3.2285 8.52519 6.61525 8.59704 9.04516L8.64023 10.6309C2.18142 14.7797 1.78238 14.8347 5.24457 14.9469L8.30344 15.0487C10.0424 15.1092 10.083 15.1114 10.2777 15.4846C10.5568 16.0212 12.119 18.5793 12.7899 19.8216C14.2229 22.4945 15.0885 20.3693 14.83 14.7419L14.7739 13.4526C14.9164 13.3873 15.838 13.044 19.6785 11.0567C20.5541 10.5928 20.0181 9.69989 18.8112 9.68127Z" fill="#323231"/>
<path d="M14.0538 12.4233C14.5886 12.2781 17.1341 10.8819 17.21 10.7681C17.2951 10.6385 14.5391 10.521 13.3558 10.5891C12.4099 10.6461 12.5059 10.7533 11.1622 8.01627C9.98069 5.58132 9.98057 5.58135 9.98477 6.28575L10.0375 10.3183C10.0389 10.7172 9.82018 11.0428 9.48437 11.134C9.13612 11.2285 6.35815 13.0473 5.77431 13.4054C5.30482 13.6925 5.54654 13.7467 6.98962 13.7013C9.86348 13.6136 10.6273 13.6726 10.7961 13.9995C10.9875 14.3603 12.1157 15.8111 12.8317 17.1211C13.4082 18.1627 13.4353 18.1156 13.3988 16.0621C13.342 12.9492 13.4071 12.5988 14.0538 12.4233Z" fill="white"/>
</svg>
