<svg width="69" height="71" viewBox="0 0 69 71" fill="none" xmlns="http://www.w3.org/2000/svg">
<path d="M53.8469 25.2698C51.6003 25.7226 39.9936 27.8179 39.1095 27.9183C38.6917 27.976 38.1016 27.4746 37.4045 26.461C32.0976 18.9413 26.067 11.5183 24.8479 10.9829C23.9373 10.5693 22.2051 11.7663 22.1137 12.8299C22.0223 13.8934 23.9008 23.1794 25.5799 29.7678L26.6656 34.0695C11.5691 49.3354 10.5136 49.7292 20.0317 47.9221L28.4427 46.3329C33.2262 45.4369 33.3381 45.4181 34.0973 46.3177C35.1867 47.612 41.0117 53.6406 43.6012 56.6219C49.1439 63.0426 50.2094 56.7138 46.0692 41.5123L45.1291 38.0274C45.4783 37.7621 47.7841 36.2628 57.0535 28.4945C59.1603 26.6939 57.1522 24.5841 53.8469 25.2698Z" fill="#323231"/>
<path d="M42.5355 35.6575C43.9066 34.9349 50.002 29.5704 50.1398 29.2134C50.2928 28.8079 42.6989 30.1691 39.5109 31.0774C36.9638 31.8104 37.2912 32.0444 31.9533 25.3939C27.2423 19.469 27.242 19.4692 27.6834 21.3892L30.2885 32.3634C30.5359 33.4515 30.1376 34.4737 29.2766 34.9274C28.3838 35.3979 21.9117 42.0576 20.5367 43.3914C19.4305 44.4617 20.1234 44.4621 24.0344 43.4572C31.8248 41.464 33.9455 41.1588 34.6058 41.948C35.3483 42.8158 39.3133 46.0872 42.0671 49.2256C44.2762 51.7169 44.3215 51.5716 42.9687 45.9891C40.9135 37.5275 40.8774 36.5312 42.5355 35.6575Z" fill="white"/>
</svg>
