<svg width="36" height="38" viewBox="0 0 36 38" fill="none" xmlns="http://www.w3.org/2000/svg">
<path d="M30.2345 21.7309C29.1164 21.0486 23.4344 17.4213 23.0246 17.1201C22.827 16.9821 22.7741 16.5427 22.8752 15.8469C23.5687 10.6323 23.9211 5.17737 23.6176 4.47946C23.3962 3.9524 22.2049 3.78201 21.7536 4.19263C21.3024 4.60325 18.4851 9.22763 16.6315 12.6431L15.4168 14.869C3.15752 15.4112 2.56189 15.1665 7.25592 18.104L11.401 20.7029C13.7553 22.1842 13.8095 22.2198 13.7787 22.8919C13.7332 23.8577 13.8359 28.648 13.7646 30.9039C13.5967 35.7491 16.5007 33.5081 20.6661 25.5243L21.6248 23.6975C21.8742 23.7218 23.4235 23.9881 30.3276 24.3285C31.9104 24.3912 31.8872 22.7266 30.2345 21.7309Z" fill="#323231"/>
<path d="M21.4569 21.6965C22.3126 21.9258 26.9521 22.0421 27.1485 21.9459C27.3701 21.8351 23.6563 19.4578 21.9664 18.6011C20.6135 17.9196 20.66 18.1449 21.003 13.2829C21.3272 8.96865 21.327 8.9686 20.7667 9.94532L17.5988 15.56C17.2801 16.1124 16.7161 16.3865 16.1789 16.2426C15.6217 16.0933 10.3213 16.374 9.22677 16.3996C8.34724 16.4191 8.63768 16.6882 10.6683 17.7852C14.7099 19.9737 15.718 20.669 15.6885 21.2565C15.663 21.9087 16.0561 24.8203 15.9927 27.2059C15.9521 29.1086 16.0275 29.0652 17.6274 26.1984C20.0505 21.8512 20.4222 21.4192 21.4569 21.6965Z" fill="white"/>
</svg>
