<svg width="16" height="24" viewBox="0 0 16 24" fill="none" xmlns="http://www.w3.org/2000/svg">
<path d="M14.8151 16.855L13.9858 15.7194C12.6253 16.7131 11.0127 17.2383 9.32227 17.2383C4.95741 17.2383 1.40625 13.6871 1.40625 9.32227C1.40625 4.95741 4.95741 1.40625 9.32227 1.40625V0C4.18195 0 0 4.18195 0 9.32227C0 14.2703 3.87525 18.3296 8.74988 18.6264V19.875H7.13269C6.03422 19.875 5.1405 20.7687 5.1405 21.8672V24H13.6718V21.8672C13.6718 20.7687 12.778 19.875 11.6796 19.875H10.1561V18.6075C11.8413 18.459 13.4377 17.861 14.815 16.855H14.8151Z" fill="white"/>
<path d="M8.21319 4.62525C7.82591 5.70412 7.59008 7.10231 7.53407 8.61914H11.1103C11.0544 7.10227 10.8186 5.70408 10.4313 4.62525C9.98329 3.37664 9.50999 3.04688 9.32225 3.04688C9.13452 3.04688 8.66122 3.37664 8.21319 4.62525ZM3.08643 8.61914H6.12721C6.19682 6.65498 6.55789 4.74225 7.19713 3.41747C4.99124 4.21383 3.35596 6.21295 3.08643 8.61914ZM11.4473 15.2271C13.6533 14.4307 15.2886 12.4316 15.5581 10.0254H12.5173C12.4477 11.9895 12.0866 13.9023 11.4474 15.2271H11.4473ZM15.5579 8.61914C15.2884 6.21295 13.6533 4.21383 11.4474 3.41747C12.0866 4.74225 12.4477 6.65498 12.5173 8.61914H15.5579ZM8.21319 14.0193C8.66122 15.2679 9.13457 15.5977 9.32225 15.5977C9.50994 15.5977 9.98329 15.2679 10.4313 14.0193C10.8186 12.9405 11.0544 11.5422 11.1103 10.0254H7.53407C7.59008 11.5423 7.82591 12.9405 8.21319 14.0193ZM3.08643 10.0254C3.35596 12.4316 4.99124 14.4307 7.19713 15.2271C6.55789 13.9023 6.19682 11.9895 6.12725 10.0254H3.08643Z" fill="white"/>
</svg>
