<svg width="50" height="58" viewBox="0 0 50 58" fill="none" xmlns="http://www.w3.org/2000/svg">
<path d="M4.36294 34.9023C1.13977 40.4913 5.63165 49.1286 14.3959 54.1944C23.1602 59.2602 32.8785 58.836 36.1017 53.2469C39.3255 47.6579 34.8336 39.0199 26.0687 33.9542C17.3044 28.8884 7.5861 29.3132 4.36294 34.9023Z" fill="white"/>
<path fill-rule="evenodd" clip-rule="evenodd" d="M4.36294 34.9023C1.13977 40.4913 5.63165 49.1286 14.3959 54.1944C23.1602 59.2602 32.8785 58.836 36.1017 53.2469C39.3255 47.6579 34.8336 39.0199 26.0687 33.9542C17.3044 28.8884 7.5861 29.3132 4.36294 34.9023Z" stroke="#2D1F16" stroke-width="3" stroke-miterlimit="2"/>
<path d="M9.66645 34.2717C9.66645 34.2717 9.66646 19.0705 1.84168 10.1335C-5.98374 1.19581 14.0137 -7.33415 17.318 13.3818C17.318 13.3818 24.1583 4.54062 30.3388 5.59734C36.5917 6.66676 36.8987 13.8085 36.8987 13.8085C36.8987 13.8085 41.4889 12.5117 43.5759 19.1264C43.5759 19.1264 55.5748 22.7824 46.3582 37.0576C46.3582 37.0576 42.9613 54.2344 25.7226 49.6335C16.9812 47.3003 10.1873 41.054 9.66645 34.2717Z" fill="white"/>
<path fill-rule="evenodd" clip-rule="evenodd" d="M9.66645 34.2717C9.66645 34.2717 9.66645 19.0705 1.84168 10.1335C-5.98374 1.19581 14.0137 -7.33415 17.318 13.3818C17.318 13.3818 24.1583 4.54062 30.3388 5.59734C36.5917 6.66676 36.8987 13.8085 36.8987 13.8085C36.8987 13.8085 41.4889 12.5117 43.5759 19.1264C43.5759 19.1264 55.5748 22.7824 46.3582 37.0576C46.3582 37.0576 42.9613 54.2344 25.7226 49.6335C16.9812 47.3003 10.1873 41.054 9.66645 34.2717Z" stroke="#2D1F16" stroke-width="3" stroke-miterlimit="2"/>
<path d="M36.8984 13.8085C36.5368 23.7185 32.4649 36.0403 23.4881 34.7435C14.5114 33.4468 21.7005 20.3908 26.5128 17.5191" stroke="#2D1F16" stroke-width="3" stroke-miterlimit="2" stroke-linecap="round"/>
<path d="M43.5759 19.1264C45.6045 25.8585 40.3946 40.8241 30.0869 39.4479C26.3334 38.9475 27.0065 34.5212 27.0065 34.5212" stroke="#2D1F16" stroke-width="3" stroke-miterlimit="2" stroke-linecap="round"/>
<path d="M46.3582 37.0576C42.9143 41.7462 35.8628 44.5182 35.8444 38.4014" stroke="#2D1F16" stroke-width="3" stroke-miterlimit="2" stroke-linecap="round"/>
<path d="M16.3448 23.2282C16.3448 23.2282 18.7763 15.5288 16.7286 10.5875" stroke="#2D1F16" stroke-width="3" stroke-miterlimit="2" stroke-linecap="round"/>
</svg>
