<svg width="53" height="77" viewBox="0 0 53 77" fill="none" xmlns="http://www.w3.org/2000/svg">
<path d="M28.1737 27.6842C24.7096 24.8048 21.7791 20.9117 19.6231 16.3529C17.9637 12.8385 15.4028 6.29808 15.2797 5.23543C15.0878 3.57967 12.045 3.25601 12.4172 6.46868C12.609 8.12445 12.6354 17.8637 9.99096 24.0055C7.488 29.8553 6.44029 31.4044 4.34964 32.5984C3.1494 33.2633 3.39286 33.6356 5.24377 34.0473C9.82018 35.0699 12.2238 38.523 17.8288 52.099C21.0966 59.9852 22.5013 59.572 22.6959 50.6586C22.8714 41.7975 26.1223 31.378 29.1348 29.927C30.1327 29.4608 30.0328 29.247 28.1737 27.6842Z" fill="#323231"/>
<path d="M19.4092 46.9323L19.6211 44.6537C20.6698 32.7362 25.9783 29.9176 26.2129 29.5648L23.9953 27.7177C20.6167 24.9285 18.0251 21.7977 16.2754 18.3689C15.4382 16.7628 15.3755 16.8703 15.1686 19.6241C14.7626 25.6318 11.8865 32.1509 9.58816 32.4172C8.87149 32.5002 9.13113 32.7957 10.4584 33.4434C15.3187 35.8356 19.1514 46.4362 19.4092 46.9323Z" fill="white"/>
<path d="M49.3644 54.7317C45.118 52.018 41.6261 46.7376 41.0908 42.1163C40.856 40.0899 37.8931 38.0787 37.547 43.9542C37.1388 51.2393 36.5494 53.2861 34.0804 56.4022C32.0455 58.9421 32.0036 58.7967 34.9866 59.2525C37.7662 59.6818 40.1803 63.0088 42.2316 69.2577C43.5081 73.142 46.4689 72.9741 46.1229 68.9068C45.6346 63.1781 46.575 59.8384 49.323 57.6166C51.0609 56.1881 51.0673 55.8117 49.3644 54.7317Z" fill="#323231"/>
<path d="M43.1694 60.0576C43.61 59.1049 45.7202 56.782 46.5507 56.3852C46.7399 56.2882 46.5601 56.0333 46.0533 55.7664C44.2182 54.6266 42.7206 53.3728 41.7561 52.1822C40.4959 50.6001 40.6413 50.558 39.7783 52.8369C39.3986 53.8826 38.5923 55.3538 37.9776 56.1012C36.7075 57.6759 36.6885 57.7279 37.601 57.8225C38.7883 57.9104 40.6947 59.0169 41.5735 60.1172C42.5988 61.4009 42.574 61.4038 43.1694 60.0576Z" fill="white"/>
</svg>
