<svg width="23" height="24" viewBox="0 0 23 24" fill="none" xmlns="http://www.w3.org/2000/svg">
<path d="M19.3484 10.3716C18.4657 10.2693 13.9348 9.65075 13.5967 9.58179C13.4358 9.55299 13.2783 9.2974 13.1427 8.8401C12.0871 5.43121 10.7531 1.97127 10.3677 1.62772C10.0816 1.36603 9.29936 1.59983 9.13818 1.98104C8.977 2.36226 8.55667 6.01151 8.38617 8.64215L8.27093 10.3585C0.874516 14.1782 0.438097 14.1969 4.1644 14.6714L7.45634 15.0935C9.32756 15.3364 9.37108 15.3429 9.54322 15.7656C9.7898 16.3734 11.2151 19.2946 11.8126 20.7043C13.0869 23.7362 14.2383 21.5302 14.5337 15.4286L14.6047 14.0309C14.7653 13.975 15.7952 13.6984 20.1443 11.945C21.137 11.5336 20.6494 10.5149 19.3484 10.3716Z" fill="#323231"/>
<path d="M13.9327 12.8461C14.5249 12.7441 17.4154 11.4965 17.5091 11.3814C17.6141 11.2502 14.6508 10.842 13.3663 10.7948C12.3393 10.7598 12.432 10.8853 11.2608 7.79321C10.2338 5.04384 10.2337 5.04387 10.1663 5.80475L9.81157 10.1636C9.77239 10.5945 9.50298 10.9237 9.13114 10.9878C8.74553 11.0542 5.56078 12.7342 4.89392 13.0612C4.35775 13.3233 4.61317 13.4065 6.17576 13.5047C9.28729 13.7035 10.1058 13.8451 10.2547 14.2153C10.4245 14.6243 11.4945 16.3058 12.1337 17.7931C12.6497 18.9765 12.6838 18.9284 12.8541 16.7078C13.1105 13.3413 13.2165 12.9696 13.9327 12.8461Z" fill="white"/>
</svg>
