<svg width="56" height="61" viewBox="0 0 56 61" fill="none" xmlns="http://www.w3.org/2000/svg">
<path d="M55.2788 12C55.2788 5.37259 49.9062 0 43.2788 0H12.0002C5.37276 0 0.000183105 5.37258 0.000183105 12V42.0637C0.000183105 47.008 4.00838 51.0162 8.95273 51.0162C10.589 51.0162 12.1939 51.4646 13.5932 52.3128L22.2528 57.5615C24.6042 58.9867 27.6099 57.2938 27.6099 54.5443C27.6099 52.5957 29.1896 51.016 31.1382 51.016H43.2788C49.9062 51.016 55.2788 45.6434 55.2788 39.016V12Z" fill="white"/>
<path d="M22.986 33.2595L20.6276 39.5089L15.2005 37.461L25.1348 11.1367L30.0638 11.1417L40.0833 37.4494L34.6625 39.5141L32.2803 33.2595H22.986Z" fill="#323231"/>
<path d="M30.0701 27.4591H25.1744L27.6112 21.0024L30.0701 27.4591Z" fill="white"/>
</svg>
