<svg width="27" height="28" viewBox="0 0 27 28" fill="none" xmlns="http://www.w3.org/2000/svg">
<path d="M0.329672 27.3709C0.178836 27.2873 0.0655384 27.0969 0.0629899 26.9228C0.0619652 26.8528 0.539406 25.555 1.12397 24.0388L2.18681 21.282L2.01501 20.9859C1.69897 20.4412 1.06904 19.1186 0.872599 18.5873C0.622425 17.9106 0.308415 16.6573 0.187771 15.8539C0.0706529 15.0741 0.0524362 13.0543 0.156006 12.3321C0.602317 9.22013 1.89007 6.59191 4.00509 4.47641C6.11792 2.36311 8.77948 1.05482 11.8328 0.628738C12.489 0.537166 14.5399 0.537166 15.1961 0.628738C19.128 1.17743 22.4714 3.23443 24.6498 6.44499C25.8041 8.14613 26.5074 9.97307 26.8455 12.1482C26.9633 12.9063 26.9777 14.974 26.8702 15.6962C26.4132 18.7668 25.0855 21.4538 23.0015 23.5257C19.7517 26.7565 15.1275 28.0993 10.5978 27.1274C9.45016 26.8812 7.7283 26.1978 6.65641 25.563L6.39365 25.4074L3.55584 26.4235C1.99504 26.9823 0.658907 27.4398 0.586647 27.4401C0.514389 27.4403 0.398749 27.4092 0.329672 27.3709Z" fill="#25D366"/>
<path d="M19.0015 19.4778C18.604 19.8707 18.1972 20.1215 17.6522 20.3095C17.1425 20.4853 16.2317 20.532 15.6905 20.4101C14.4294 20.1259 12.4983 19.1245 10.8459 17.8977C9.2845 16.7385 7.94025 15.0538 6.82111 12.8536C5.95267 11.1463 5.72223 10.0573 5.99973 8.97205C6.30483 7.77885 7.24573 6.79377 8.40615 6.45264C8.61689 6.39069 8.92959 6.36523 9.47992 6.36523C10.1875 6.36523 10.2694 6.3755 10.4035 6.48101C10.4966 6.55424 10.7957 7.0824 11.2176 7.91831L11.8845 9.23982L11.8826 9.70523C11.881 10.1213 11.8603 10.2142 11.6879 10.5814C11.5819 10.8073 11.3322 11.194 11.133 11.4408L10.7709 11.8894L11.0278 12.4017C11.6957 13.7336 12.6808 14.7069 14.0442 15.3817L14.5058 15.6102L14.8195 15.327C15.4817 14.7292 16.141 14.4419 16.758 14.4822C17.1173 14.5056 17.2231 14.5483 18.455 15.1661C19.1776 15.5285 19.8181 15.8797 19.8783 15.9465C19.9749 16.0536 19.9898 16.1595 20.0054 16.8486C20.0217 17.5732 20.0126 17.6603 19.8782 18.0608C19.6888 18.625 19.4126 19.0715 19.0015 19.4778Z" fill="white"/>
</svg>
