<svg width="175" height="14" viewBox="0 0 175 14" fill="none" xmlns="http://www.w3.org/2000/svg">
<path fill-rule="evenodd" clip-rule="evenodd" d="M111.242 5.56723C110.744 6.24182 110.244 6.91881 109.746 7.5934C109.637 7.73985 109.538 7.89109 109.423 8.03033C109.017 8.52487 108.905 8.53687 108.524 8.04473C108.006 7.37734 107.521 6.68595 107.021 6.00655C106.914 5.86491 106.797 5.73047 106.68 5.58643C106.375 5.72087 106.49 5.95614 106.49 6.13379C106.48 7.84548 106.49 9.55716 106.48 11.2713C106.472 12.1979 106.373 12.2916 105.41 12.3156C104.813 12.3324 104.214 12.3132 103.617 12.306C103.13 12.2964 102.86 12.0659 102.845 11.5977C102.835 11.3625 102.825 11.1272 102.825 10.8896C102.822 7.73265 102.822 4.57335 102.822 1.41404C102.822 1.35403 102.822 1.29641 102.825 1.23639C102.845 0.112871 102.916 0.0288483 104.125 0.0408517C106.591 0.0624578 106.02 -0.244831 107.399 1.71653C107.78 2.25908 108.141 2.81364 108.532 3.34899C108.918 3.87955 109.017 3.88435 109.388 3.3658C109.962 2.55437 110.543 1.74774 111.064 0.905095C111.453 0.273714 111.953 -0.0407663 112.743 0.0288535C113.241 0.0720659 113.749 0.0240508 114.252 0.0480576C114.899 0.0792665 115.019 0.18969 115.087 0.773056C115.113 1.00592 115.105 1.2436 115.105 1.48126C115.108 4.60936 115.108 7.73985 115.105 10.8679C115.105 11.0168 115.108 11.1632 115.1 11.3121C115.059 12.1643 114.942 12.2844 114.051 12.3156C113.518 12.3348 112.982 12.3348 112.451 12.3156C111.585 12.282 111.465 12.1787 111.458 11.3745C111.442 9.75162 111.453 8.12876 111.45 6.5059V5.62964C111.382 5.60804 111.313 5.58883 111.242 5.56723ZM77.2483 7.47577C76.9003 7.73264 76.8114 8.05914 76.6539 8.33762C75.671 10.0925 74.5611 11.7706 73.2124 13.2998C72.547 14.0536 72.4708 14.0512 71.6072 13.4631C71.1755 13.1678 70.7437 12.8725 70.3221 12.5652C69.6617 12.0827 69.6465 12.0467 70.1671 11.4633C71.1374 10.371 71.9984 9.21387 72.7629 7.98712C73.3928 6.97163 73.2429 7.04125 72.4962 6.4915C71.526 5.77609 70.8478 4.88303 70.6649 3.6995C70.4237 2.16786 71.1501 0.95071 72.6765 0.386549C73.3293 0.148881 74.0099 0.0408517 74.7059 0.0408517C76.4355 0.038451 78.1626 0.0312489 79.8923 0.0408517C80.8168 0.045653 80.8955 0.112876 81.1495 0.919507C81.274 1.31562 81.3807 1.71653 81.4924 2.11745C81.5813 2.43434 81.6423 2.73681 81.3603 3.02729C81.0581 3.33938 81.147 3.75471 81.147 4.13162C81.1394 6.37386 81.147 8.6185 81.1419 10.8631C81.1394 12.2723 81.0886 12.3156 79.6231 12.3228C79.1837 12.3252 78.7417 12.3348 78.3049 12.3107C77.5734 12.2699 77.4337 12.1547 77.4083 11.4489C77.3727 10.4742 77.3956 9.50195 77.3829 8.52727C77.3778 8.20798 77.4489 7.87908 77.2483 7.47577ZM77.3626 4.71499C77.388 2.96969 77.5099 2.90967 75.544 2.98169C74.6525 3.0129 74.3833 3.51465 74.8633 4.23245C75.3561 4.97186 76.0876 5.4856 76.8521 5.95373C77.1594 6.14099 77.3346 5.97775 77.3575 5.68486C77.3829 5.36317 77.3626 5.03668 77.3626 4.71499ZM97.2319 4.84222C96.8992 4.7774 96.7748 4.97906 96.6224 5.1135C95.7512 5.87932 94.8953 6.66434 94.0165 7.42296C93.5923 7.78786 93.3917 8.20798 93.4044 8.75054C93.4247 9.60758 93.4222 10.4646 93.3968 11.3217C93.3739 12.1667 93.2393 12.2916 92.3402 12.3156C91.7128 12.3324 91.0855 12.3156 90.4556 12.2963C90.0086 12.2843 89.7597 12.0683 89.7622 11.629C89.7647 11.4225 89.752 11.216 89.752 11.0096C89.752 7.79026 89.752 4.57095 89.752 1.35163C89.752 1.20279 89.7495 1.05394 89.7571 0.907497C89.7978 0.18489 89.8917 0.0768659 90.6334 0.0480576C91.2607 0.0240508 91.8906 0.0240495 92.518 0.0456556C93.2164 0.0720632 93.346 0.182495 93.3866 0.83068C93.4247 1.39004 93.3993 1.9518 93.4094 2.51356C93.4145 2.77284 93.3714 3.0417 93.511 3.27937C93.8489 3.33939 93.9733 3.08972 94.1409 2.93848C95.0045 2.16306 95.868 1.38283 96.7113 0.5906C97.1126 0.211291 97.557 0.00964935 98.1361 0.0312555C98.7965 0.0576631 99.4594 0.0216514 100.117 0.0504596C100.755 0.0744665 100.869 0.196889 100.935 0.789858C100.958 0.996317 100.953 1.20278 100.953 1.40924C100.955 4.57094 100.955 7.73025 100.953 10.892C100.953 11.1272 100.943 11.3649 100.933 11.6001C100.915 12.0659 100.648 12.3012 100.158 12.3036C99.4975 12.3108 98.8346 12.3348 98.1768 12.306C97.4351 12.2723 97.3158 12.1571 97.3056 11.4393C97.2878 9.96289 97.3081 8.48646 97.2929 7.01004C97.2853 6.28503 97.3666 5.55042 97.2319 4.84222ZM170.568 7.2405C170.139 7.98952 169.717 8.74573 169.278 9.48755C168.45 10.8847 167.497 12.2003 166.403 13.4223C165.864 14.0224 165.775 14.0272 165.079 13.5711C164.566 13.2326 164.056 12.8869 163.563 12.522C162.987 12.0995 162.971 11.9987 163.459 11.4609C164.424 10.4022 165.262 9.26429 166.012 8.06635C166.123 7.8887 166.225 7.70383 166.332 7.52378C166.512 7.2165 166.448 6.97163 166.149 6.75317C165.852 6.53711 165.565 6.30665 165.293 6.06418C164.808 5.63205 164.429 5.1255 164.188 4.53733C163.352 2.51355 164.378 0.684239 166.629 0.1993C166.994 0.120078 167.373 0.0576512 167.744 0.0528498C169.598 0.036045 171.452 0.0312385 173.306 0.0432419C174.114 0.0480433 174.19 0.122477 174.424 0.849884C174.543 1.21719 174.652 1.58689 174.751 1.959C174.858 2.35751 174.987 2.73681 174.566 3.09451C174.299 3.32258 174.403 3.7091 174.403 4.03079C174.398 6.27303 174.401 8.51527 174.398 10.7575C174.398 11.024 174.408 11.2905 174.388 11.5545C174.34 12.1451 174.231 12.2699 173.583 12.3036C172.925 12.3372 172.262 12.3372 171.604 12.3084C170.878 12.2747 170.743 12.1451 170.728 11.4369C170.708 10.2582 170.718 9.07703 170.718 7.89589V7.28373C170.67 7.26932 170.619 7.25491 170.568 7.2405ZM170.705 4.64057C170.708 2.98649 170.946 2.91447 168.917 2.97929C168.008 3.0081 167.711 3.56025 168.206 4.29246C168.704 5.02947 169.45 5.52881 170.218 5.99214C170.527 6.1794 170.69 5.99455 170.7 5.69927C170.715 5.34636 170.705 4.99347 170.705 4.64057ZM127.611 6.165C127.611 7.84788 127.616 9.53076 127.609 11.2136C127.604 12.2315 127.522 12.3011 126.412 12.3204C125.877 12.33 125.343 12.3372 124.81 12.3084C124.122 12.2699 123.982 12.1427 123.951 11.5089C123.921 10.9208 123.936 10.3302 123.936 9.73962C123.934 7.82148 123.941 5.90333 123.931 3.98518C123.926 3.10893 123.814 3.0129 122.905 2.99369C122.435 2.98409 121.963 2.99129 121.493 3.0009C121.043 3.0105 120.794 3.22656 120.777 3.65628C120.766 3.92276 120.759 4.18923 120.761 4.45331C120.769 6.81318 120.764 9.17546 120.804 11.5353C120.812 12.0731 120.642 12.4308 120.154 12.6997C119.56 13.0286 118.994 13.4079 118.402 13.7392C117.83 14.0585 117.652 13.9984 117.426 13.4103C117.058 12.4524 117.018 11.4345 117.002 10.4406C116.957 7.31252 116.974 4.18443 116.99 1.05394C116.992 0.156079 117.127 0.0432524 118.099 0.0408517C120.896 0.0312489 123.69 0.0312489 126.486 0.0408517C127.517 0.045653 127.601 0.132072 127.609 1.11875C127.619 2.80163 127.611 4.48452 127.611 6.165ZM56.8379 6.22261C56.8379 7.90549 56.8455 9.58837 56.8328 11.2713C56.8278 12.1859 56.7109 12.2915 55.7534 12.318C55.187 12.3324 54.6206 12.3372 54.0568 12.3084C53.2999 12.2723 53.1754 12.1643 53.1627 11.4609C53.1424 10.2822 53.1602 9.10104 53.15 7.9199C53.1424 6.92601 53.0637 6.85159 52.0299 6.83239C51.621 6.82519 51.2121 6.82039 50.8057 6.83719C50.0616 6.8684 49.9041 6.99083 49.899 7.67262C49.8888 8.76253 49.8304 9.85725 49.9701 10.9472C49.9981 11.18 49.9981 11.4177 50.0235 11.653C50.0666 12.0419 49.9396 12.342 49.5739 12.5532C48.9059 12.9421 48.2532 13.3551 47.5725 13.7224C47.0645 13.996 46.8613 13.9168 46.653 13.3887C46.3305 12.5772 46.2441 11.713 46.234 10.8607C46.201 7.5862 46.2086 4.30687 46.2213 1.02994C46.2238 0.168093 46.361 0.0624578 47.2626 0.0408517C47.796 0.0288483 48.3319 0.0264476 48.8653 0.0408517C49.7771 0.0672592 49.866 0.153682 49.8838 1.03954C49.899 1.66131 49.8761 2.28069 49.8965 2.90007C49.9168 3.63948 50.0463 3.75711 50.8515 3.78112C51.3543 3.79552 51.8572 3.80032 52.3601 3.77391C52.9849 3.7379 53.1195 3.60826 53.1424 3.01049C53.1703 2.30229 53.1373 1.59169 53.1627 0.883489C53.1881 0.177687 53.2999 0.0744639 54.0618 0.0456556C54.6892 0.0240495 55.3191 0.0240508 55.9464 0.0480576C56.6804 0.0744652 56.8125 0.194493 56.8277 0.907497C56.8531 2.02862 56.8379 3.15213 56.8379 4.27325C56.8405 4.92144 56.8379 5.57203 56.8379 6.22261ZM34.1087 6.13619C34.1087 4.48212 34.101 2.83044 34.1112 1.17877C34.1188 0.13687 34.2077 0.045653 35.277 0.0408517C37.3495 0.0288483 39.4246 0.0312489 41.4971 0.0408517C42.4546 0.045653 42.5105 0.0960672 42.8179 0.977119C42.9245 1.28681 43.021 1.59889 43.115 1.91098C43.4071 2.88086 43.3487 2.95527 42.2337 2.96248C41.1365 2.97208 40.0367 2.96489 38.9369 2.96729C38.716 2.96969 38.495 2.96968 38.2791 2.99609C37.9997 3.0297 37.8092 3.17375 37.8169 3.45943C37.827 3.74991 38.0378 3.87714 38.3121 3.89634C38.655 3.92275 39.0004 3.91796 39.3459 3.92276C39.6938 3.92516 40.0418 3.92276 40.3542 4.09321C41.774 4.86863 43.1176 5.73287 44.0827 7.02204C44.6415 7.77105 44.9361 8.5921 44.8218 9.52116C44.6618 10.8103 43.9329 11.629 42.6096 11.9843C41.7257 12.2195 40.8114 12.2771 39.9046 12.3036C38.335 12.3492 36.7628 12.3324 35.1932 12.3156C34.2382 12.306 34.1188 12.1859 34.1137 11.2689C34.101 9.55958 34.1112 7.84788 34.1087 6.13619ZM39.2392 9.29309C39.3967 9.29309 39.5516 9.30029 39.7091 9.29069C40.0799 9.26668 40.4913 9.29309 40.6615 8.88258C40.8114 8.51767 40.6742 8.18637 40.4405 7.89349C40.1027 7.46617 39.7091 7.07966 39.2087 6.82518C38.3858 6.40266 37.794 6.71716 37.7508 7.5742C37.7432 7.69183 37.7457 7.80947 37.7457 7.9271C37.7407 9.23788 37.8118 9.30269 39.2392 9.29309ZM58.1815 7.79987C58.2247 5.73048 58.8139 3.84114 60.315 2.26629C61.651 0.864289 63.4009 0.273714 65.3312 0.098464C66.2024 0.0168406 67.0888 0.0624474 67.9676 0.0432419C68.4426 0.0312385 68.7372 0.235304 68.8591 0.667428C69.0039 1.18117 69.1639 1.69252 69.2985 2.20626C69.3518 2.40312 69.4509 2.6456 69.2909 2.80644C68.8185 3.27938 68.9455 3.85554 68.9429 4.4029C68.9328 6.67635 68.9455 8.94979 68.9353 11.2232C68.9328 12.2099 68.8413 12.2939 67.8203 12.318C67.2539 12.33 66.6875 12.3372 66.1237 12.3036C65.4506 12.2627 65.3134 12.1307 65.283 11.4825C65.2474 10.7743 65.2779 10.0661 65.255 9.35791C65.2322 8.60649 65.1052 8.49367 64.3102 8.47206C63.7743 8.45766 63.2409 8.45284 62.7075 8.47685C62.0497 8.50566 61.877 8.70733 61.9964 9.33151C62.1361 10.0589 62.4104 10.7503 62.7507 11.4201C63.1622 12.2243 63.1469 12.2483 62.3418 12.7669C61.8999 13.0502 61.4579 13.331 61.0008 13.5927C60.3759 13.9504 60.2439 13.9288 59.8781 13.3478C58.7987 11.641 58.1561 9.80924 58.1815 7.79987ZM63.6956 5.51921C65.2626 5.51921 65.3414 5.4424 65.2601 3.96597C65.255 3.87715 65.2525 3.78832 65.2449 3.6995C65.2144 3.30338 64.9782 3.20015 64.5972 3.30818C63.98 3.48584 63.4568 3.80993 63.0606 4.28526C62.8015 4.59495 62.3316 4.91424 62.5552 5.34156C62.738 5.68726 63.2435 5.46881 63.6016 5.51682C63.632 5.52162 63.6651 5.51921 63.6956 5.51921ZM158.488 4.70298C157.295 5.7977 156.172 6.82038 155.06 7.85268C154.793 8.09995 154.79 8.43845 154.788 8.76734C154.788 9.65079 154.798 10.5366 154.78 11.4225C154.76 12.1739 154.648 12.2795 153.833 12.3107C153.236 12.3348 152.637 12.3372 152.04 12.3084C151.316 12.2723 151.199 12.1427 151.143 11.4393C151.13 11.2641 151.133 11.0864 151.133 10.9088C151.13 7.74945 151.13 4.59015 151.133 1.43085C151.133 1.22439 151.128 1.01552 151.148 0.811464C151.214 0.177683 151.329 0.0696625 152.04 0.0456556C152.67 0.0240495 153.299 0.0240508 153.927 0.0480576C154.63 0.0768659 154.747 0.184888 154.775 0.837874C154.801 1.48606 154.783 2.13665 154.79 2.78724C154.793 2.95769 154.755 3.14253 154.897 3.30098C155.166 3.40661 155.293 3.18574 155.438 3.05611C156.355 2.24708 157.274 1.44045 158.163 0.605012C158.593 0.201696 159.062 -0.00235408 159.675 0.0312555C160.175 0.0600637 160.68 0.028847 161.181 0.0384497C162.235 0.0552545 162.324 0.127269 162.329 1.09475C162.341 2.89526 162.334 4.69579 162.334 6.4987C162.334 8.09276 162.341 9.68679 162.331 11.2808C162.324 12.1979 162.219 12.2916 161.247 12.3156C160.683 12.3324 160.114 12.3372 159.55 12.306C158.874 12.2675 158.747 12.1355 158.692 11.4969C158.666 11.2328 158.674 10.9664 158.674 10.6999C158.674 9.07704 158.676 7.45176 158.669 5.8289C158.669 5.50961 158.737 5.17832 158.488 4.70298ZM21.7573 6.24902C21.7573 7.9319 21.7649 9.61238 21.7547 11.2929C21.7471 12.2027 21.643 12.2939 20.6626 12.318C20.0962 12.3324 19.5298 12.3372 18.966 12.3036C18.2954 12.2651 18.1634 12.1331 18.1176 11.4897C18.0872 11.0792 18.1126 10.6639 18.0948 10.251C18.0618 9.49475 17.95 9.38672 17.1779 9.31229C16.7715 9.27388 16.3651 9.23787 15.9613 9.18026C13.1344 8.77214 11.3743 6.61633 11.6969 3.93956C11.8416 2.75603 12.3217 1.66131 12.7839 0.561799C12.9287 0.220902 13.1903 0.0504596 13.5789 0.0504596C14.2367 0.0480589 14.8996 0.0216422 15.5575 0.0552518C16.1696 0.08406 16.2813 0.232901 16.0705 0.79226C15.7124 1.73813 15.3746 2.684 15.2324 3.68749C15.1511 4.26365 15.2298 4.80621 15.4813 5.32476C15.7302 5.8385 16.1746 6.1506 16.7436 6.31384C17.729 6.59472 18.0846 6.36185 18.0948 5.38717C18.11 3.97317 18.0897 2.55676 18.1049 1.14036C18.1176 0.136873 18.2218 0.0504531 19.3139 0.0384497C19.8168 0.0312476 20.3197 0.0240364 20.8226 0.0432419C21.6252 0.0744508 21.742 0.172881 21.7497 0.941101C21.7674 2.71041 21.7573 4.47972 21.7573 6.24902ZM23.7155 6.13619C23.7155 4.48212 23.7079 2.83044 23.7155 1.17877C23.7231 0.122466 23.7943 0.045653 24.8686 0.0408517C26.8142 0.0288483 28.7622 0.0288483 30.7078 0.0408517C31.6323 0.045653 31.6907 0.103266 31.9548 0.926701C32.0564 1.23639 32.153 1.54849 32.2368 1.86298C32.4984 2.81605 32.4095 2.92408 31.3224 2.93848C30.5376 2.95048 29.7528 2.94087 28.968 2.94327C28.7495 2.94327 28.5286 2.93848 28.3076 2.94809C27.5025 2.9889 27.1062 3.62508 27.4618 4.29967C27.6091 4.58055 27.8834 4.62856 28.1781 4.62856C29.0264 4.63096 29.8747 4.63096 30.723 4.63576C30.9719 4.63576 31.2234 4.64056 31.4748 4.65016C31.8456 4.66697 31.9904 4.87583 31.8964 5.18552C31.7136 5.8097 31.5053 6.42907 31.2843 7.04364C31.1649 7.37254 30.8475 7.45417 30.5224 7.46377C29.8645 7.48778 29.2042 7.48777 28.5463 7.50218C27.5329 7.52618 27.317 7.74945 27.3907 8.66892C27.4364 9.24028 27.566 9.38191 28.2111 9.39632C29.2778 9.42032 30.3471 9.40353 31.4139 9.40833C31.6958 9.40833 31.9802 9.41313 32.2622 9.42513C32.6508 9.44193 32.859 9.61718 32.7397 9.99648C32.5441 10.6183 32.3384 11.2377 32.1174 11.8522C31.9853 12.2195 31.645 12.2988 31.2843 12.306C30.7509 12.3204 30.215 12.3228 29.6817 12.3228C28.1755 12.3252 26.6668 12.3276 25.1607 12.3228C23.7485 12.318 23.7181 12.2868 23.7155 11.0024C23.7104 9.37952 23.713 7.75665 23.7155 6.13619ZM6.53585 5.69446C7.01843 4.20604 7.45275 2.85446 7.89468 1.50287C8.42044 -0.103188 8.26804 0.0480511 10.0206 0.0360477C10.4295 0.033647 10.8384 0.0384562 11.2473 0.0504596C11.6486 0.0648637 11.8188 0.256916 11.7045 0.633824C11.6435 0.83068 11.5673 1.02513 11.4911 1.21959C10.3076 4.23725 9.12652 7.25731 7.93278 10.2726C7.62546 11.0456 7.30797 11.8186 6.82032 12.5124C6.23615 13.3478 5.42847 13.8496 4.35919 13.984C3.8944 14.0441 3.56421 13.9456 3.38642 13.5039C3.15275 12.9253 2.88861 12.3564 2.65748 11.7754C2.53557 11.4681 2.64478 11.2569 3.01814 11.2112C3.14513 11.1968 3.27213 11.1944 3.39404 11.1704C4.51412 10.94 4.8697 10.371 4.46332 9.37471C3.36102 6.67394 2.24094 3.98038 1.13102 1.28441C0.653524 0.120075 0.7094 0.0432498 2.03775 0.0360477C2.50763 0.033647 2.98004 0.0600533 3.44992 0.0336457C4.08743 -0.00236455 4.42269 0.268907 4.61572 0.828267C5.07035 2.14864 5.56816 3.45463 6.05074 4.7654C6.15233 5.03668 6.20059 5.33196 6.53585 5.69446ZM140.156 7.5886C140.156 6.49629 140.163 5.40397 140.151 4.31166C140.146 3.79071 140.267 3.23856 139.77 2.82084C139.648 2.72001 139.676 2.54237 139.716 2.39833C139.889 1.77175 140.064 1.14277 140.255 0.518587C140.354 0.194495 140.62 0.0528603 140.971 0.0504596C142.856 0.0432576 144.75 -0.0887856 146.625 0.10567C149.182 0.369745 150.452 2.18706 149.848 4.54213C149.622 5.43039 149.126 6.1698 148.459 6.82039C147.417 7.84068 146.15 8.55367 144.781 9.08903C144.062 9.36991 143.722 9.76123 143.805 10.4934C143.846 10.8439 143.823 11.204 143.795 11.5569C143.747 12.1427 143.623 12.2723 142.983 12.3036C142.325 12.3372 141.662 12.3372 141.001 12.306C140.323 12.2723 140.181 12.1379 140.168 11.4873C140.146 10.1885 140.161 8.88737 140.161 7.5886H140.156ZM143.813 4.45092H143.838C143.838 4.83263 143.823 5.21672 143.844 5.59603C143.859 5.8553 144.052 5.98495 144.298 5.86732C145.065 5.50722 145.769 5.05828 146.117 4.28526C146.335 3.79552 146.19 3.30818 145.779 3.12333C145.251 2.88806 144.664 2.86406 144.141 3.07292C143.676 3.25537 143.851 3.73311 143.816 4.10042C143.803 4.21565 143.813 4.33328 143.813 4.45092ZM129.57 6.11699C129.57 4.43411 129.562 2.75362 129.575 1.07314C129.58 0.141673 129.671 0.0480433 130.646 0.0432419C132.658 0.0288378 134.667 0.0288378 136.676 0.0432419C137.484 0.0480433 137.568 0.122473 137.804 0.842678C137.943 1.2628 138.073 1.69012 138.172 2.12224C138.319 2.77763 138.22 2.90486 137.484 2.92887C136.699 2.95768 135.912 2.94087 135.127 2.94327C134.814 2.94327 134.499 2.93608 134.187 2.94809C133.369 2.9841 132.978 3.58906 133.318 4.28766C133.456 4.57335 133.725 4.62616 134.022 4.62856C134.776 4.63096 135.531 4.63096 136.282 4.63336C136.564 4.63576 136.849 4.62376 137.131 4.64057C137.789 4.68138 137.885 4.79901 137.712 5.42319C137.585 5.87932 137.405 6.32344 137.281 6.77957C137.151 7.2501 136.839 7.46856 136.336 7.47577C135.645 7.48537 134.954 7.49018 134.263 7.50698C133.92 7.51658 133.519 7.48298 133.362 7.84789C133.181 8.2632 133.171 8.71693 133.374 9.13465C133.511 9.41553 133.837 9.40352 134.121 9.40352C135.221 9.40832 136.318 9.40353 137.418 9.40833C138.794 9.41553 138.838 9.46593 138.408 10.7143C137.832 12.3828 138.065 12.3204 136.082 12.3228C134.479 12.3276 132.879 12.3252 131.276 12.3228C131.025 12.3228 130.773 12.33 130.525 12.3156C129.707 12.2699 129.597 12.1763 129.577 11.4249C129.557 10.7479 129.57 10.0685 129.57 9.38912C129.57 8.29921 129.57 7.2069 129.57 6.11699Z" fill="#E13B22"/>
</svg>
