<svg width="53" height="52" viewBox="0 0 53 52" fill="none" xmlns="http://www.w3.org/2000/svg">
<g clip-path="url(#clip0_47_4231)">
<path fill-rule="evenodd" clip-rule="evenodd" d="M25.9996 6.35547H28.0166C28.0801 6.36414 28.1437 6.38031 28.2073 6.38089C29.0872 6.38782 29.9643 6.44502 30.8413 6.508C31.5121 6.55654 32.1806 6.62067 32.848 6.69809C34.1763 6.85294 35.4959 7.06209 36.8075 7.32382C38.3161 7.62485 39.8056 8.0004 41.2812 8.43316C41.4412 8.48054 41.5279 8.54987 41.5597 8.72956C41.6325 9.14267 41.7457 9.54711 41.9179 9.93307C41.9792 10.07 42.0502 10.2017 42.1554 10.3109C42.3183 10.4808 42.5049 10.4924 42.6881 10.3416C42.743 10.2965 42.795 10.2451 42.8377 10.189C43.0209 9.94982 43.1694 9.69271 43.2376 9.39458C43.2786 9.21431 43.3219 9.03462 43.3739 8.85725C43.404 8.75498 43.4548 8.74747 43.5236 8.82316C43.5421 8.84396 43.5565 8.86938 43.5721 8.89307C43.8754 9.35876 44.173 9.82734 44.4503 10.3086C45.2205 11.6462 45.8745 13.0328 46.2443 14.5385C46.2536 14.5744 46.2489 14.6287 46.3102 14.6373C46.372 14.5836 46.3951 14.5068 46.4315 14.4386C46.7678 13.8192 47.1023 13.1992 47.4392 12.5804C47.4721 12.5204 47.4958 12.4175 47.5697 12.4285C47.6668 12.4429 47.6385 12.5539 47.6495 12.6255C47.7275 13.1311 47.7789 13.6401 47.8303 14.1491C47.9077 14.9124 47.9759 15.6762 47.9904 16.4446C48.01 17.4933 47.9395 18.5321 47.6888 19.5548C47.6795 19.5935 47.6541 19.6351 47.6917 19.6888C47.7373 19.6576 47.7841 19.6282 47.8292 19.5958C48.014 19.4618 48.1955 19.3225 48.3838 19.1943C48.5606 19.0735 48.7444 18.9626 48.9269 18.8511C48.9732 18.8222 49.0275 18.7702 49.0824 18.8112C49.1326 18.8499 49.1014 18.9175 49.1009 18.973C49.1009 18.9799 49.0991 18.9868 49.098 18.9938C48.9495 19.92 48.8403 20.8519 48.671 21.7752C48.5433 22.4755 48.3879 23.17 48.0926 23.8223C47.9967 24.0337 47.9655 24.2394 47.9938 24.463C48.0123 24.6132 48.0256 24.7646 48.0441 24.9426C48.0637 24.8819 48.0753 24.849 48.0851 24.8149C48.2556 24.2042 48.6236 23.7391 49.1546 23.3988C49.544 23.1492 49.9727 22.9932 50.4228 22.8955C50.7383 22.8268 51.056 22.7776 51.379 22.7742C51.5084 22.7724 51.531 22.8135 51.4877 22.9319C51.4726 22.9724 51.4512 23.0093 51.4333 23.048C51.2531 23.4369 51.0312 23.8009 50.7914 24.1556C50.6903 24.3053 50.699 24.3255 50.8741 24.3584C51.1138 24.4029 51.3519 24.4492 51.5789 24.5393C51.7257 24.5976 51.7373 24.6381 51.6246 24.7484C51.1046 25.2575 50.5314 25.685 49.8237 25.9098C49.4955 26.0144 49.1604 26.0825 48.8224 26.1432C48.6479 26.1744 48.6432 26.1825 48.6958 26.3535C48.9229 27.0884 48.8744 27.8124 48.6178 28.53C48.6005 28.5791 48.5595 28.6271 48.5884 28.686C48.6074 28.682 48.6236 28.6825 48.634 28.675C49.2025 28.2619 49.8502 28.0533 50.5378 27.9488C50.7354 27.9187 50.9336 27.8829 51.1346 27.8892C51.2484 27.8927 51.2721 27.9222 51.2456 28.0146C51.2317 28.062 51.2069 28.1065 51.1855 28.1516C51.0069 28.5323 50.796 28.8952 50.5568 29.2412C50.3997 29.4683 50.406 29.4787 50.6753 29.5059C51.178 29.5556 51.6598 29.6821 52.1197 29.8895C52.2896 29.9664 52.2954 30.0051 52.155 30.1241C52.0573 30.2073 51.9505 30.2795 51.8522 30.3627C51.7794 30.424 51.791 30.4592 51.8857 30.4892C51.9741 30.517 52.0672 30.5343 52.1509 30.5719C52.3566 30.6643 52.415 30.818 52.3324 31.0266C52.2763 31.1676 52.1827 31.2848 52.0816 31.3958C51.8979 31.5957 51.7037 31.7852 51.4934 31.9562C50.9463 32.4028 50.3945 32.8437 49.8491 33.2926C49.5677 33.5232 49.2852 33.7548 49.065 34.0478C48.9443 34.2084 48.9541 34.2569 49.1072 34.3846C49.1453 34.417 49.1846 34.4482 49.2251 34.4771C49.7139 34.8237 50.205 35.1681 50.6921 35.5177C51.2022 35.8845 51.7072 36.2584 52.1515 36.7056C52.2977 36.8529 52.4323 37.0083 52.5259 37.1961V37.5797C52.4081 37.7011 52.2607 37.7681 52.0984 37.8109C51.8343 37.8813 51.5639 37.9085 51.2935 37.9287C50.7013 37.972 50.1079 37.979 49.514 37.9767C49.2707 37.9761 49.0281 37.9871 48.786 38.0079C48.6178 38.0229 48.5901 38.05 48.5924 38.2211C48.5947 38.3701 48.6184 38.5186 48.6196 38.6677C48.6265 39.5557 48.6542 40.4444 48.5439 41.3289C48.4636 41.9674 48.311 42.5862 48.0372 43.1721C47.6466 44.0087 47.0503 44.6269 46.16 44.9395C45.9306 45.0204 45.7029 45.107 45.4661 45.1608C45.1737 45.2266 44.879 45.2827 44.5849 45.3433H9.21628C9.16774 45.3318 9.11979 45.3173 9.07125 45.3092C8.71072 45.2497 8.35423 45.1758 8.00699 45.0631C7.48699 44.8944 6.98374 44.6881 6.57988 44.3085C5.71783 43.4996 5.2533 42.5053 5.21343 41.3243C5.19668 40.8205 5.21112 40.3161 5.18454 39.8117C5.15739 39.2928 5.2065 38.7752 5.21459 38.2569C5.21805 38.0472 5.18974 38.0183 4.98925 38.0096C4.47503 37.9865 3.96023 37.9836 3.44774 37.9328C2.96472 37.8848 2.47997 37.8478 1.9981 37.7837C1.77277 37.7536 1.58094 37.6855 1.4937 37.4521C1.48734 37.4347 1.46308 37.4232 1.4469 37.4093V37.1961C1.47463 37.1632 1.51045 37.1348 1.52779 37.0979C1.70805 36.7056 2.01139 36.4167 2.33263 36.1422C2.66312 35.8597 3.01268 35.6008 3.3657 35.3478C3.80597 35.0317 4.24854 34.7192 4.68534 34.3991C4.88063 34.2564 4.88237 34.213 4.72925 34.0229C4.55881 33.8115 4.3589 33.6289 4.15379 33.4521C3.63032 32.9997 3.07277 32.59 2.5389 32.1509C2.12117 31.8066 1.69939 31.4645 1.4469 30.9682V30.7117C1.61157 30.4569 1.88948 30.5008 2.18414 30.4742C2.03277 30.3564 1.92183 30.2703 1.81148 30.183C1.5717 29.9935 1.57574 29.9716 1.86059 29.8508C2.31183 29.6596 2.78157 29.5446 3.26979 29.5018C3.46797 29.4845 3.47952 29.4533 3.36974 29.2846C3.24899 29.0997 3.12708 28.916 3.01094 28.7282C2.87979 28.5161 2.77059 28.2914 2.66774 28.0649C2.60361 27.9245 2.63019 27.8852 2.78734 27.8898C2.93699 27.8939 3.08663 27.9095 3.23512 27.9303C3.94406 28.0296 4.62063 28.2186 5.21054 28.6438C5.2377 28.6629 5.2637 28.6935 5.3157 28.6756C5.31397 28.5837 5.26659 28.5028 5.23886 28.4173C5.0297 27.7806 4.98405 27.1381 5.16085 26.4864C5.24637 26.1709 5.24694 26.1663 4.90894 26.1149C3.8909 25.9606 3.02423 25.5163 2.30605 24.7831C2.14832 24.6225 2.1541 24.5965 2.36672 24.5185C2.58974 24.437 2.82143 24.3937 3.0537 24.3532C3.09934 24.3452 3.1577 24.359 3.18659 24.2804C3.10974 24.1649 3.02828 24.0407 2.94565 23.917C2.73939 23.6085 2.56432 23.2826 2.41121 22.9452C2.3517 22.8146 2.37712 22.7719 2.51868 22.7742C2.66832 22.7765 2.81854 22.7915 2.96703 22.81C3.6205 22.8915 4.24161 23.0677 4.7957 23.4363C5.2689 23.7518 5.6017 24.1747 5.78081 24.7149C5.7993 24.7716 5.80219 24.8351 5.85419 24.8952C5.87614 24.6664 5.89348 24.4544 5.9189 24.2435C5.92872 24.162 5.91774 24.0886 5.88365 24.0158C5.53583 23.2751 5.34979 22.4882 5.20765 21.688C5.05223 20.8132 4.94188 19.9321 4.80783 19.0544C4.7957 18.9741 4.74139 18.8724 4.82806 18.8193C4.90086 18.7742 4.97308 18.8557 5.03837 18.8938C5.38503 19.0949 5.71032 19.3266 6.02925 19.5681C6.08588 19.6108 6.13557 19.675 6.23032 19.6767C6.21588 19.6051 6.20663 19.549 6.19334 19.4941C6.00499 18.7245 5.92121 17.9416 5.90272 17.1512C5.8825 16.3048 5.93797 15.4618 6.01828 14.6194C6.08125 13.9544 6.15117 13.2905 6.2413 12.629C6.25112 12.5544 6.23899 12.4701 6.31641 12.4158C6.40539 12.4418 6.4233 12.5261 6.45912 12.592C6.79308 13.2039 7.12414 13.818 7.45752 14.4305C7.49681 14.5027 7.52454 14.5842 7.5933 14.6385C7.64877 14.5882 7.64934 14.5287 7.66379 14.4744C7.77703 14.0411 7.90588 13.6124 8.06245 13.1923C8.6281 11.6774 9.41214 10.2763 10.3013 8.93005C10.3429 8.86765 10.3701 8.76538 10.4573 8.77174C10.5619 8.77925 10.5613 8.89538 10.5891 8.97049C10.7162 9.31831 10.8502 9.66267 11.0449 9.98045C11.1125 10.0896 11.1836 10.196 11.2761 10.2867C11.5101 10.5189 11.7475 10.4993 11.9434 10.2306C12.0364 10.1035 12.1029 9.96138 12.1624 9.81636C12.2976 9.48587 12.3952 9.14325 12.4582 8.79369C12.4963 8.58569 12.5905 8.48342 12.7997 8.4216C14.6318 7.8808 16.4876 7.44227 18.3694 7.11178C19.5169 6.91014 20.6707 6.75067 21.8303 6.63107C22.6693 6.54498 23.5093 6.47622 24.3517 6.43174C24.8371 6.40574 25.3224 6.378 25.8089 6.38089C25.8725 6.38147 25.936 6.36414 25.9996 6.35547ZM44.745 35.7401C44.7265 35.7308 44.7086 35.721 44.6901 35.7112C44.2695 36.1393 43.8309 36.5478 43.3421 36.9055C43.7651 36.924 44.1788 36.9245 44.5919 36.9234C44.6843 36.9228 44.7433 36.876 44.7438 36.7812C44.7461 36.434 44.745 36.0873 44.745 35.7401ZM41.5418 31.6188C41.5909 31.6078 41.6204 31.5703 41.6371 31.5252C41.6573 31.4726 41.6672 31.4166 41.6221 31.3709C41.6111 31.36 41.5816 31.3571 41.5661 31.3634C41.5129 31.3848 41.5037 31.4345 41.5031 31.4836C41.5019 31.5292 41.4863 31.5807 41.5418 31.6188ZM5.45263 25.4764C5.46881 25.3771 5.43703 25.2892 5.42374 25.2014C5.3053 24.4122 4.92223 23.8252 4.14628 23.5241C3.78517 23.3837 3.42174 23.2584 3.04041 23.1884C2.86072 23.1555 2.81797 23.2046 2.88788 23.3641C3.01903 23.6651 3.18254 23.9476 3.40499 24.1944C3.53557 24.3382 3.68348 24.4174 3.8857 24.4359C4.31557 24.4769 4.70788 24.6167 5.00659 24.9518C5.11579 25.0743 5.21979 25.2008 5.31743 25.3326C5.35383 25.3811 5.37463 25.4464 5.45263 25.4764ZM36.7705 33.4157C36.7543 33.2972 36.7376 33.1782 36.7208 33.0598C36.7081 32.972 36.6492 32.9621 36.5793 32.9847C36.3765 33.05 36.1789 33.1303 35.9928 33.2331C35.8836 33.2938 35.8749 33.3325 35.9379 33.4382C35.9917 33.5289 36.0569 33.6133 36.1159 33.7017C36.1621 33.7716 36.221 33.7901 36.2979 33.7531C36.4256 33.6913 36.5538 33.63 36.6815 33.5694C36.7468 33.5382 36.7786 33.4891 36.7705 33.4157ZM41.3638 32.4173C41.0969 32.4052 41.0622 32.4398 41.0645 32.7033C41.1807 32.6288 41.261 32.5352 41.3638 32.4173ZM45.4834 21.0328C45.232 21.313 45.0165 21.6204 44.7918 21.9214C44.1106 22.8354 43.471 23.776 42.8909 24.7571C42.769 24.9622 42.7314 25.1465 42.8187 25.3782C42.9562 25.7434 43.0457 26.1253 43.137 26.5055C43.1526 26.5713 43.1746 26.636 43.2069 26.7493C44.058 24.8449 44.7288 22.9221 45.4834 21.0328ZM21.5149 35.2663C21.6287 35.0011 21.6836 34.7411 21.6951 34.4707C21.7055 34.2321 21.6714 34.0004 21.5541 33.7918C21.3167 33.3689 20.9712 33.043 20.58 32.7622C20.5742 32.7576 20.5679 32.7536 20.5615 32.7507C20.476 32.7056 20.4385 32.7247 20.4442 32.8171C20.4506 32.9159 20.4645 33.0141 20.4749 33.1129C20.5263 33.5902 20.6274 34.0472 20.9348 34.4407C21.0919 34.6417 21.2144 34.8688 21.3554 35.082C21.3935 35.1404 21.4195 35.2097 21.5149 35.2663ZM30.6622 36.8939C30.7397 36.9384 30.7905 36.9263 30.839 36.9263C31.5462 36.9274 32.2534 36.928 32.9601 36.9268C33.2149 36.9263 33.2305 36.9124 33.2946 36.6668C33.3015 36.6391 33.3108 36.612 33.3154 36.5842C33.3373 36.4479 33.3189 36.4063 33.1871 36.3548C32.9814 36.274 32.7717 36.2041 32.5649 36.1249C32.4476 36.0804 32.3424 36.1047 32.2355 36.1555C31.9905 36.2722 31.7444 36.3855 31.4989 36.4999C31.2285 36.627 30.9581 36.7547 30.6622 36.8939ZM5.89752 26.413C5.78197 26.6424 5.75654 26.8724 5.7577 27.1058C5.75828 27.1994 5.80681 27.2514 5.90561 27.2444C5.99517 27.2381 6.03041 27.189 6.0125 27.0775C5.97725 26.8556 5.93623 26.6349 5.89752 26.413ZM12.3611 31.6269C12.3958 31.5662 12.3981 31.5102 12.3958 31.4547C12.3941 31.4004 12.3704 31.3501 12.3109 31.3542C12.2311 31.36 12.2352 31.4287 12.2433 31.4836C12.2513 31.5414 12.2814 31.5893 12.3611 31.6269ZM16.2715 35.4934C16.2669 35.6211 16.2698 35.6511 16.2935 35.6875C16.3235 35.7349 16.3576 35.7349 16.3917 35.6933C16.4651 35.6055 16.4304 35.5488 16.2715 35.4934ZM45.4869 21.0293C45.5568 21.1362 45.4932 21.2356 45.4632 21.3326C45.2003 22.182 44.8969 23.0174 44.589 23.8512C44.1845 24.9449 43.7847 26.0404 43.3577 27.1254C43.3306 27.1936 43.2873 27.2635 43.3219 27.3421C43.3757 27.3409 43.3936 27.3074 43.4149 27.2808C44.0846 26.4644 44.7935 25.685 45.5897 24.9871C45.6752 24.9114 45.7133 24.816 45.7278 24.7068C45.7763 24.333 45.8092 23.9575 45.8116 23.5813C45.8168 22.799 45.7445 22.0208 45.6319 21.2465C45.6203 21.1697 45.6163 21.0888 45.5885 21.0172C45.5556 20.9316 45.5163 20.9836 45.4869 21.0293ZM31.9853 35.0265C32.0015 35.0248 32.0171 35.0225 32.0333 35.0202C32.016 34.8469 31.9923 34.6729 31.983 34.4984C31.9651 34.1604 31.99 33.8219 32.2072 33.5463C32.3829 33.3244 32.4071 33.1066 32.3077 32.8558C32.2789 32.7842 32.265 32.7056 32.2378 32.6328C32.2217 32.59 32.2193 32.5259 32.1535 32.5253C32.1049 32.5248 32.0859 32.5733 32.0633 32.608C31.8894 32.8784 31.7646 33.1696 31.6641 33.4752C31.4723 34.0588 31.6514 34.558 31.9853 35.0265ZM47.9956 26.4165C47.9551 26.6464 47.9135 26.8764 47.8736 27.1064C47.8586 27.1942 47.902 27.2398 47.9886 27.2502C48.0713 27.26 48.1296 27.2398 48.1325 27.1422C48.1406 26.8932 48.1198 26.6488 47.9956 26.4165ZM17.2971 32.9789C17.2058 32.9691 17.1746 33.0026 17.1705 33.0598C17.1376 33.4792 17.0405 33.4336 17.4311 33.615C17.7287 33.7537 17.7148 33.8051 17.9448 33.4544C17.9488 33.448 17.9529 33.4423 17.9563 33.4359C18.0129 33.3285 18.0083 33.2892 17.8985 33.2308C17.7737 33.1638 17.642 33.11 17.5109 33.0552C17.4329 33.0222 17.3514 32.9974 17.2971 32.9789ZM46.8065 28.6866C46.8787 28.6952 46.9301 28.6623 46.9648 28.6022C47.0457 28.4607 47.111 28.3116 47.1676 28.1591C47.1982 28.0753 47.1618 28.0221 47.0838 27.9927C47.0243 27.9701 46.9631 27.9511 46.903 27.9303C46.8163 27.8996 46.751 27.9268 46.7008 28.0008C46.5852 28.1706 46.4685 28.3393 46.3518 28.508C46.3027 28.5791 46.3148 28.6305 46.4044 28.6432C46.5378 28.6617 46.6725 28.6727 46.8065 28.6866ZM6.0593 29.8947C6.06161 30.0571 6.0905 30.172 6.14365 30.2784C6.17543 30.3413 6.23783 30.3708 6.30485 30.3257C6.36725 30.2836 6.37823 30.2206 6.33028 30.1605C6.26094 30.0732 6.19103 29.9848 6.0593 29.8947ZM47.8465 29.8722C47.7552 29.9236 47.7153 29.9929 47.6616 30.049C47.6321 30.0796 47.6038 30.112 47.5778 30.1455C47.5518 30.179 47.5224 30.2165 47.5501 30.2604C47.5853 30.3153 47.6362 30.2963 47.6841 30.2812C47.7442 30.2622 47.7783 30.22 47.7928 30.1605C47.8136 30.0721 47.8529 29.9872 47.8465 29.8722ZM12.8274 32.7085C12.8465 32.4456 12.8054 32.4063 12.5327 32.415C12.6125 32.53 12.7072 32.6103 12.8274 32.7085ZM37.6406 35.5494C37.6389 35.5182 37.6314 35.498 37.6094 35.4922C37.5719 35.4818 37.543 35.5044 37.5153 35.5252C37.4633 35.5644 37.4477 35.6136 37.4835 35.6702C37.4973 35.6921 37.5216 35.7222 37.5424 35.7233C37.6094 35.7268 37.6106 35.6661 37.6239 35.6216C37.6325 35.5951 37.6366 35.5673 37.6406 35.5494ZM23.6971 34.9584C23.7029 34.9352 23.7087 34.9121 23.7145 34.889C23.3869 34.7365 23.0593 34.5834 22.7311 34.432C22.6785 34.4077 22.6282 34.4233 22.6097 34.4817C22.5416 34.6966 22.4393 34.8965 22.3018 35.123C22.7958 35.0647 23.2465 35.0115 23.6971 34.9584ZM30.0723 34.8931C30.1012 34.9613 30.1486 34.9566 30.1885 34.9613C30.471 34.9936 30.7541 35.0254 31.0366 35.0566C31.1637 35.0704 31.2909 35.0901 31.4185 35.0941C31.5272 35.0976 31.5509 35.0583 31.4989 34.9653C31.4151 34.8168 31.3469 34.6631 31.2943 34.5002C31.2516 34.3667 31.2302 34.3598 31.0904 34.4222C30.85 34.5291 30.612 34.64 30.3728 34.7504C30.2717 34.7966 30.1717 34.8457 30.0723 34.8931ZM11.1934 31.5564C11.0039 31.2606 10.4891 30.7163 10.358 30.6655C10.3834 30.8735 10.41 31.0763 10.4331 31.2796C10.4435 31.3767 10.4949 31.4391 10.5897 31.4559C10.7763 31.4905 10.9646 31.5188 11.1934 31.5564ZM45.6244 30.25C45.2552 30.3379 44.8825 30.4153 44.5052 30.4742C44.4232 30.4869 44.3856 30.5424 44.3816 30.6233C44.3769 30.7371 44.3954 30.8486 44.4162 30.9596C44.4422 31.0953 44.4596 31.1063 44.5809 31.037C44.9582 30.822 45.306 30.5667 45.6244 30.25ZM16.6199 35.286C16.7014 35.275 16.7303 35.2137 16.7661 35.1623C16.9365 34.9173 17.1064 34.6718 17.2757 34.4262C17.4791 34.131 17.475 34.1188 17.1417 33.9877C16.9926 33.9288 16.9753 33.9311 16.9111 34.0697C16.7678 34.3794 16.613 34.6828 16.4298 34.9711C16.3963 35.0236 16.3437 35.0832 16.394 35.145C16.4524 35.2172 16.5344 35.2628 16.6199 35.286ZM7.09179 28.6848C7.22006 28.6721 7.34832 28.6612 7.47543 28.645C7.55459 28.6352 7.5985 28.5941 7.54534 28.515C7.42632 28.3376 7.30326 28.1631 7.18134 27.988C7.13397 27.9199 7.0681 27.9037 6.99241 27.9337C6.8965 27.9719 6.77517 27.9678 6.72086 28.0793C6.71045 28.1007 6.71623 28.1371 6.72721 28.1614C6.79308 28.3104 6.86068 28.4595 6.93174 28.6068C6.96237 28.6704 7.0213 28.6952 7.09179 28.6848ZM7.02245 29.0893C7.40148 29.4019 7.76085 29.6844 8.19361 29.8421C8.60903 29.9941 9.05103 30.0501 9.4861 30.1299C9.5901 30.1484 9.61437 30.1091 9.56525 30.0085C9.49534 29.8664 9.40232 29.7474 9.25152 29.6734C8.93894 29.5186 8.62174 29.3655 8.34268 29.1569C8.1393 29.0055 7.92899 28.9495 7.68517 28.9755C7.64241 28.9795 7.5985 28.9732 7.5569 28.9795C7.3905 29.0055 7.21659 28.9951 7.02245 29.0893ZM45.9086 30.5332C46.3992 30.2662 46.8365 29.9311 47.2046 29.5088C47.4825 29.1904 47.7136 28.842 47.88 28.4537C47.9349 28.3255 47.9164 28.2891 47.7997 28.2353C47.6373 28.1602 47.5726 28.1695 47.5131 28.2879C47.4553 28.4017 47.4062 28.5202 47.3531 28.6363C47.2866 28.7802 47.2843 28.7842 47.4374 28.868C47.5328 28.9206 47.5177 28.9737 47.4559 29.0338C47.3589 29.1274 47.2653 29.2274 47.1572 29.3077C46.6857 29.659 46.3246 30.1212 45.9086 30.5332ZM44.9923 31.7673C44.9177 31.7546 44.8536 31.7892 44.7883 31.8089C44.5485 31.88 44.3111 31.9574 44.0649 32.0048C43.4473 32.1238 42.8297 32.2416 42.2045 32.3098C42.0081 32.3306 41.8601 32.4092 41.7272 32.556C41.5297 32.7744 41.3656 33.0344 41.064 33.1412C41.1362 33.1511 41.1882 33.1118 41.2437 33.0858C41.8792 32.7882 42.5385 32.5554 43.2179 32.3786C43.6813 32.2578 44.1499 32.1613 44.6254 32.0995C44.9033 32.0625 44.9455 32.0204 44.9923 31.7673ZM21.8552 35.03C21.8858 35.0219 21.9043 35.0231 21.9106 35.0144C22.2446 34.5718 22.4017 34.0888 22.2475 33.537C22.1608 33.2273 22.0389 32.9327 21.8638 32.6617C21.8303 32.6103 21.8089 32.5236 21.7385 32.5305C21.6535 32.5392 21.6564 32.6357 21.6345 32.6992C21.6004 32.7998 21.5796 32.9049 21.5449 33.0055C21.4894 33.1667 21.5143 33.3024 21.6217 33.4411C21.8887 33.7866 21.9563 34.1859 21.9072 34.61C21.8904 34.748 21.8731 34.8861 21.8552 35.03ZM36.8803 34.0033C36.8664 34.0062 36.8514 34.0079 36.8387 34.0131C36.7734 34.0408 36.7069 34.0674 36.6434 34.0992C36.481 34.1789 36.4706 34.2084 36.5689 34.3534C36.7526 34.6232 36.9386 34.8913 37.1276 35.1577C37.2391 35.316 37.2553 35.316 37.4176 35.2149C37.5545 35.13 37.5551 35.1276 37.4719 34.9844C37.3795 34.8249 37.2836 34.6677 37.1957 34.5054C37.1218 34.3684 37.0577 34.2263 36.9895 34.0859C36.9669 34.0397 36.9421 33.9969 36.8803 34.0033ZM8.2641 30.2495C8.57957 30.5569 8.92565 30.814 9.30121 31.0324C9.31912 31.0428 9.33819 31.0532 9.35725 31.0624C9.41445 31.0896 9.45201 31.0763 9.46877 31.0121C9.50517 30.874 9.50979 30.7331 9.51325 30.5915C9.51499 30.5245 9.4757 30.484 9.41214 30.4754C9.02561 30.424 8.64659 30.335 8.2641 30.2495ZM12.6367 33.0667C12.4397 32.8812 12.2721 32.6675 12.0832 32.4751C12.0046 32.3948 11.9197 32.3456 11.8065 32.3312C11.5372 32.2977 11.268 32.2607 11.0005 32.2151C10.325 32.0995 9.64441 32.0048 8.99441 31.7736C8.90948 31.7436 8.82628 31.7003 8.7217 31.6939C8.79219 31.9239 8.89619 32.07 9.16139 32.0874C9.50228 32.1105 9.83912 32.1862 10.1748 32.259C11.0224 32.4427 11.8417 32.7125 12.6367 33.0667ZM9.10477 35.598C9.08166 35.6251 9.06548 35.6349 9.06548 35.6453C9.06317 36.0007 9.05797 36.3554 9.06259 36.7102C9.06432 36.8408 9.10534 36.8731 9.25557 36.8818C9.64037 36.9037 10.0246 36.9482 10.4111 36.928C10.4556 36.9257 10.5122 36.9523 10.5515 36.8795C10.0148 36.5149 9.54445 36.074 9.10477 35.598ZM7.99254 30.5222C7.79899 30.324 7.59792 30.1328 7.41361 29.9265C7.2657 29.7607 7.10392 29.6139 6.93117 29.4747C6.76534 29.34 6.60645 29.1956 6.45161 29.0483C6.35108 28.9518 6.35859 28.9281 6.47414 28.8628C6.60472 28.7888 6.60588 28.7888 6.54637 28.6548C6.49205 28.5312 6.43543 28.4081 6.37881 28.2856C6.35454 28.2319 6.32392 28.1885 6.25343 28.1885C6.02868 28.188 5.94317 28.3116 6.03734 28.5138C6.45334 29.4019 7.12588 30.049 7.99254 30.5222ZM42.7002 31.5552C42.9279 31.5183 43.1168 31.4894 43.3052 31.4559C43.3716 31.4443 43.4352 31.4125 43.4461 31.3415C43.4808 31.115 43.5236 30.8885 43.5247 30.6447C43.3745 30.7521 42.8377 31.3415 42.7002 31.5552ZM41.5054 23.9933C41.5591 24.0748 41.5406 24.1551 41.5383 24.2302C41.5337 24.3654 41.5146 24.4994 41.5112 24.634C41.4909 25.4152 41.473 26.1964 41.4534 26.9769C41.4511 27.0694 41.4424 27.1612 41.4384 27.2537C41.4106 27.8852 41.4158 28.5173 41.4152 29.15C41.4152 29.1638 41.417 29.1777 41.4176 29.1921C41.4222 29.2875 41.4736 29.3158 41.5614 29.2915C41.7336 29.2453 41.9064 29.1991 42.0785 29.1511C42.16 29.1286 42.2074 29.0668 42.2455 28.9957C42.4431 28.6334 42.6627 28.2839 42.9053 27.9493C42.9677 27.8632 42.9926 27.772 42.9753 27.6685C42.9417 27.4652 42.914 27.2612 42.8747 27.059C42.6696 26.0016 42.3247 24.9865 41.9289 23.9869C41.8214 23.716 41.7076 23.4479 41.5903 23.1809C41.5389 23.0642 41.5002 23.0642 41.4337 23.1659C41.4106 23.2017 41.3927 23.241 41.3719 23.278C41.0206 23.9147 40.7213 24.5745 40.4648 25.254C40.2135 25.9202 40.0188 26.602 39.8945 27.3045C39.8529 27.5414 39.8622 27.7581 39.9697 27.9846C40.1892 28.4474 40.3649 28.9287 40.5289 29.414C40.5492 29.4747 40.5717 29.5348 40.5919 29.5948C40.6225 29.6861 40.6792 29.6977 40.7577 29.6526C40.8323 29.6104 40.9045 29.5619 40.9837 29.5307C41.1298 29.4724 41.183 29.373 41.1807 29.217C41.1766 28.9113 41.1813 28.6057 41.1974 28.3012C41.2454 27.4004 41.3003 26.5008 41.354 25.6007C41.3829 25.1044 41.4141 24.6086 41.4459 24.1129C41.4482 24.073 41.4412 24.0256 41.5054 23.9933ZM39.6675 36.8841C39.7304 36.9396 39.7749 36.9297 39.816 36.9297C40.6595 36.9309 41.5037 36.9292 42.3472 36.932C42.4743 36.932 42.5835 36.8933 42.6916 36.8332C43.3693 36.46 43.9396 35.9585 44.4578 35.3934C45.2563 34.5239 45.9306 33.563 46.5523 32.564C46.5846 32.5115 46.6493 32.4566 46.6181 32.3936C46.58 32.3168 46.4905 32.3497 46.4229 32.3491C45.5764 32.3416 44.7392 32.4306 43.9113 32.6016C42.3125 32.9321 40.849 33.5648 39.5369 34.5343C39.0365 34.9046 38.6396 35.3674 38.3374 35.9094C38.1884 36.1775 38.0705 36.46 37.989 36.7552C37.9509 36.8922 37.9757 36.924 38.1185 36.9274C38.3825 36.9332 38.6477 36.9274 38.9117 36.9315C39.0319 36.9338 39.1325 36.8985 39.2307 36.8304C39.8177 36.4248 40.4128 36.0301 40.9952 35.6188C42.5263 34.5372 44.1632 33.6341 45.8283 32.7796C45.8815 32.7524 45.9317 32.7004 46.0392 32.7466C45.4741 33.069 44.9316 33.377 44.3897 33.6867C43.8379 34.0027 43.2982 34.3367 42.7615 34.677C42.2305 35.0133 41.7261 35.3871 41.2182 35.7563C40.7052 36.1289 40.1933 36.5016 39.6675 36.8841ZM42.6136 16.9976C42.5604 17.0236 42.5558 17.0773 42.5448 17.1235C42.1467 18.7465 41.7902 20.3764 41.7319 22.0543C41.7209 22.3616 41.7521 22.6586 41.8896 22.9458C42.1051 23.3947 42.2842 23.8598 42.4604 24.3249C42.4847 24.3885 42.4893 24.4665 42.5633 24.504C42.6378 24.4861 42.6523 24.4156 42.6846 24.3642C42.8019 24.1776 42.9088 23.984 43.0336 23.802C43.1307 23.6599 43.1694 23.5132 43.163 23.3416C43.1474 22.9088 43.1133 22.4772 43.0741 22.0456C43.0111 21.3528 42.9475 20.6601 42.8764 19.9679C42.7979 19.2052 42.7106 18.4432 42.628 17.6811C42.6245 17.6493 42.6095 17.6071 42.6898 17.5984C42.9845 19.4219 43.248 21.2494 43.449 23.0943C43.5403 23.0584 43.5617 22.9932 43.5975 22.9429C43.7916 22.6702 43.9817 22.3952 44.1759 22.123C44.4856 21.6891 44.485 21.6897 44.3746 21.1662C44.0672 19.7183 43.4692 18.3871 42.7257 17.1148C42.6985 17.0686 42.6829 17.0068 42.6136 16.9976ZM9.69063 19.062C9.72645 19.0152 9.74321 19.0001 9.7513 18.9816C9.92521 18.5685 10.113 18.1612 10.3152 17.7608C10.3441 17.7048 10.362 17.6418 10.3759 17.5794C10.6099 16.5735 10.7693 15.556 10.7942 14.5224C10.8133 13.7476 10.7942 12.9739 10.7173 12.2014C10.637 11.3873 10.5221 10.579 10.3643 9.77649C10.3539 9.72391 10.3609 9.66094 10.2846 9.62916C10.2066 9.74471 10.1032 9.84294 10.1263 10.0047C10.1338 10.0579 10.1095 10.1168 10.0951 10.1711C9.77499 11.3683 9.54157 12.5816 9.37228 13.8082C9.30699 14.2803 9.2521 14.7535 9.27752 15.2313C9.29543 15.5716 9.32837 15.9113 9.34917 16.2516C9.39423 16.975 9.43872 17.6984 9.47685 18.4218C9.48899 18.6488 9.58548 18.8412 9.69063 19.062ZM40.2655 24.6283C40.3493 24.5578 40.3602 24.4925 40.3857 24.4353C40.5596 24.0447 40.7341 23.6553 40.9444 23.2832C41.0316 23.1278 41.0669 22.9706 41.0663 22.795C41.0622 21.9711 41.0645 21.1466 41.0645 20.3215C41.0645 16.6041 41.0645 12.8867 41.064 9.16925C41.064 8.84742 41.064 8.84569 40.7572 8.75729C40.0292 8.54698 39.2971 8.35227 38.5599 8.17662C37.1056 7.82996 35.6398 7.548 34.1595 7.33711C33.1542 7.19382 32.146 7.08174 31.1343 6.9968C30.1509 6.91418 29.1658 6.85929 28.1795 6.8408C26.8425 6.8148 25.5056 6.82867 24.1697 6.91014C23.3632 6.95925 22.5577 7.0176 21.7546 7.10254C20.7522 7.20827 19.7538 7.34462 18.7594 7.5116C16.8892 7.82591 15.0432 8.2448 13.2232 8.77636C12.9765 8.84858 12.9684 8.85898 12.9684 9.11782C12.9672 9.79325 12.9678 10.4687 12.9678 11.1441C12.9678 15.0961 12.9684 19.0481 12.9655 23.0001C12.9655 23.2046 13.0007 23.3895 13.0984 23.5715C13.3064 23.9609 13.4826 24.3654 13.6501 24.7739C13.6727 24.8293 13.6779 24.8975 13.7576 24.9489V24.6612C13.7576 19.7564 13.7576 14.8517 13.7582 9.94694C13.7582 9.54538 13.7224 9.56965 14.1268 9.45351C15.9225 8.93987 17.7489 8.56258 19.5926 8.26502C20.6228 8.09862 21.6581 7.9692 22.697 7.86694C23.6937 7.76871 24.6915 7.69187 25.6916 7.67222C27.0505 7.64507 28.4089 7.64276 29.7661 7.74329C30.3577 7.7872 30.9494 7.83054 31.5393 7.8912C32.6625 8.00676 33.7817 8.15929 34.8956 8.34938C36.5804 8.63769 38.2519 8.9884 39.8974 9.45351C40.3129 9.5708 40.2649 9.54249 40.2649 9.94405C40.2655 14.7419 40.2655 19.5398 40.2655 24.3382V24.6283ZM44.849 21.2061C45.0298 20.9802 45.2026 20.7837 45.3412 20.5607C45.3632 20.5255 45.373 20.4821 45.3857 20.4411C45.6018 19.7339 45.8197 19.0273 46.0334 18.3195C46.4257 17.0189 46.7695 15.7056 47.1098 14.3912C47.1341 14.2976 47.1428 14.1971 47.2196 14.1196C47.2225 14.2028 47.215 14.2843 47.1971 14.364C47.0116 15.1816 46.8279 16.0003 46.6366 16.8167C46.4009 17.8203 46.1305 18.8152 45.8468 19.8067C45.7989 19.9748 45.7908 20.136 45.8335 20.3088C45.8925 20.5503 45.9277 20.797 45.9739 21.0414C45.9855 21.1009 45.9843 21.1674 46.0635 21.2252C46.1132 21.1668 46.1559 21.1102 46.205 21.0593C46.4477 20.8074 46.6898 20.5544 46.9567 20.3284C47.0879 20.2169 47.1647 20.0846 47.2179 19.9246C47.475 19.1532 47.5449 18.3536 47.5732 17.5505C47.6131 16.4123 47.5478 15.2769 47.4409 14.1445C47.4236 13.9654 47.4322 13.7782 47.3635 13.5991C47.304 13.617 47.2907 13.6603 47.2716 13.6961C46.5528 15.047 45.8393 16.4007 45.1945 17.7885C44.9368 18.3438 44.6866 18.9025 44.4827 19.4803C44.4301 19.6282 44.4261 19.7657 44.4798 19.9148C44.5861 20.2088 44.6583 20.5139 44.7334 20.8178C44.7623 20.934 44.7704 21.0564 44.849 21.2061ZM16.6997 27.9441C16.784 28.0042 16.7713 28.073 16.773 28.1336C16.7846 28.5098 16.806 28.8865 16.8106 29.2626C16.8169 29.8121 16.8759 30.3523 16.9758 30.892C17.0134 31.093 17.1001 31.2022 17.2792 31.2848C18.0967 31.661 18.9102 32.0469 19.7249 32.43C20.0115 32.5646 20.0109 32.5652 20.0311 32.263C20.0317 32.2561 20.0311 32.2486 20.0317 32.2416C20.0467 32.0903 20.0802 32.0712 20.2241 32.1359C20.5193 32.2688 20.7857 32.4462 21.0313 32.6565C21.2242 32.8212 21.2387 32.8148 21.3167 32.5658C21.3825 32.3549 21.4588 32.148 21.5489 31.9464C21.6085 31.8147 21.6431 31.8124 21.7494 31.9158C21.765 31.9308 21.7789 31.947 21.7928 31.9632C22.1799 32.4393 22.4855 32.9581 22.6057 33.5653C22.6404 33.7387 22.7178 33.838 22.8761 33.9114C24.1461 34.5019 25.4137 35.097 26.6796 35.6956C26.809 35.7568 26.9171 35.7511 27.0442 35.6927C28.3552 35.0884 29.6661 34.4852 30.9817 33.8918C31.1713 33.8063 31.2649 33.6942 31.3082 33.4914C31.4324 32.9003 31.7404 32.3971 32.1246 31.9383C32.2419 31.7979 32.2875 31.8077 32.3592 31.977C32.4493 32.1862 32.5244 32.4011 32.5914 32.6189C32.6544 32.8217 32.6648 32.824 32.822 32.6906C33.0571 32.4912 33.3021 32.3098 33.5835 32.1775C33.8365 32.0585 33.8504 32.0637 33.8602 32.3462C33.8672 32.5536 33.8776 32.56 34.0671 32.4762C34.0804 32.4704 34.0931 32.4635 34.1058 32.4577C34.8789 32.1036 35.6519 31.7494 36.425 31.3952C36.529 31.3472 36.633 31.2999 36.737 31.2525C36.8127 31.2184 36.8705 31.1658 36.8814 31.0803C36.9323 30.658 37.0605 30.2472 37.0657 29.8167C37.0721 29.2765 37.0969 28.7368 37.1154 28.1972C37.1177 28.114 37.1131 28.0273 37.19 27.9314C37.3061 28.2001 37.298 28.4809 37.4072 28.7634C37.4419 28.6542 37.4656 28.5803 37.4887 28.5063C37.7891 27.5553 38.1381 26.6233 38.5853 25.7301C38.6153 25.67 38.6315 25.5776 38.7193 25.5839C38.7875 25.5891 38.8089 25.6694 38.8412 25.7232C39.0562 26.0843 39.2509 26.4564 39.4404 26.8313C39.4664 26.8828 39.4745 26.9556 39.5739 26.9712C39.6288 26.6586 39.7328 26.3668 39.7328 26.0479C39.7293 20.7941 39.7304 15.5404 39.7299 10.2867C39.7299 10.2156 39.7281 10.1445 39.7241 10.0735C39.7201 10.0024 39.6819 9.95329 39.6155 9.92845C39.5623 9.9088 39.5074 9.89147 39.4525 9.87645C37.9544 9.46969 36.4377 9.14498 34.9072 8.88382C33.7158 8.68102 32.5192 8.5204 31.3163 8.4008C30.4265 8.31182 29.5356 8.23787 28.6423 8.21187C27.1557 8.16796 25.6685 8.16969 24.1819 8.27485C23.0477 8.35574 21.917 8.46551 20.7903 8.61978C18.7196 8.90289 16.6725 9.30618 14.6555 9.85391C14.2377 9.96716 14.2944 9.95849 14.2938 10.3254C14.2926 15.7357 14.2932 21.146 14.2932 26.5557C14.2932 26.6557 14.2944 26.7551 14.299 26.8544C14.3019 26.907 14.3082 26.9619 14.3585 27.0024C14.5775 26.5939 14.7889 26.1987 15.0016 25.8046C15.0357 25.7422 15.0749 25.6827 15.1165 25.6249C15.1616 25.5625 15.2125 25.5666 15.2512 25.6313C15.2922 25.6977 15.3286 25.7671 15.3627 25.8376C15.7769 26.6909 16.1115 27.5749 16.3969 28.478C16.4206 28.5537 16.4246 28.6421 16.5026 28.7178C16.5939 28.4578 16.5922 28.1908 16.6997 27.9441ZM29.2473 15.6652C29.2473 15.0539 29.2467 14.4426 29.2473 13.8313C29.2473 13.7603 29.2473 13.6892 29.2525 13.6181C29.2605 13.5055 29.3201 13.4338 29.4356 13.4148C29.4778 13.4078 29.5205 13.4038 29.5627 13.3974C29.7303 13.3703 29.7441 13.3552 29.7644 13.1796C29.7909 12.9502 29.8395 12.8913 30.0764 12.8971C30.8055 12.915 31.5353 12.9005 32.2644 12.9075C32.3528 12.9086 32.4337 12.9346 32.5094 12.9774C32.6307 13.0456 32.7561 13.0473 32.8792 12.9866C33.0045 12.9242 33.1351 12.9052 33.2738 12.9052C33.9602 12.9075 34.6472 12.9069 35.3336 12.9075C35.3763 12.9075 35.4197 12.9092 35.4624 12.9115C35.5624 12.9161 35.6207 12.967 35.6357 13.0658C35.6427 13.1155 35.6525 13.164 35.6554 13.2137C35.6629 13.335 35.7322 13.383 35.8472 13.402C36.1627 13.4552 36.1737 13.4673 36.1742 13.7776C36.1754 15.0216 36.1731 16.2655 36.1725 17.5095C36.1725 17.5239 36.1725 17.5384 36.1719 17.5522C36.1609 17.8145 36.117 17.8665 35.8536 17.8688C35.3029 17.874 34.7523 17.8706 34.2011 17.8706C34.0942 17.8706 33.9868 17.8712 33.8793 17.8723C33.7227 17.874 33.5835 17.9214 33.4737 18.0364C33.368 18.1479 33.2385 18.1878 33.0872 18.186C32.7942 18.182 32.5007 18.1837 32.2072 18.1849C32.0813 18.1855 31.9645 18.1618 31.8698 18.0745C31.7461 17.9601 31.5982 17.9278 31.4347 17.9284C30.8344 17.9307 30.2335 17.9301 29.6326 17.9295C29.2646 17.9289 29.2478 17.9116 29.2473 17.5418C29.2467 16.9161 29.2473 16.2909 29.2473 15.6652ZM35.2209 15.1845C35.2209 14.6876 35.2215 14.1901 35.2203 13.6927C35.2197 13.3795 35.2024 13.3616 34.8973 13.3616C34.3895 13.361 33.8822 13.3604 33.3743 13.3628C32.9982 13.3639 32.9572 13.4049 32.9566 13.7805C32.956 14.7824 32.9566 15.7836 32.9566 16.7855C32.9566 16.8283 32.9549 16.871 32.9583 16.9132C32.9699 17.0444 32.9878 17.064 33.1132 17.0588C33.7065 17.034 34.2999 17.0519 34.8933 17.0478C34.943 17.0478 34.9933 17.0478 35.0429 17.0444C35.1539 17.038 35.2122 16.9779 35.2174 16.8681C35.2197 16.8115 35.2209 16.7549 35.2209 16.6983C35.2215 16.1933 35.2209 15.6889 35.2209 15.1845ZM30.1682 15.2007V16.6076C30.1682 16.6434 30.1677 16.6786 30.1682 16.7144C30.17 17.0241 30.1902 17.0455 30.4929 17.0467C30.5288 17.0467 30.5646 17.0467 30.6004 17.0467C31.1297 17.049 31.6583 17.0501 32.1876 17.0536C32.4002 17.0548 32.432 17.0288 32.4325 16.8052C32.4343 15.7675 32.4343 14.7298 32.432 13.6927C32.4314 13.4182 32.3782 13.3651 32.1067 13.3633C31.5485 13.3604 30.991 13.3622 30.4334 13.3616C30.4045 13.3616 30.3757 13.3633 30.3473 13.3645C30.2353 13.3685 30.1769 13.4275 30.1723 13.5378C30.1694 13.6014 30.1682 13.6655 30.1682 13.7296C30.1682 14.2202 30.1682 14.7101 30.1682 15.2007ZM27.2048 27.4958C27.2048 29.3441 27.2048 31.1918 27.2042 33.0401C27.2042 33.1256 27.2071 33.2112 27.1996 33.2961C27.1881 33.4359 27.1453 33.474 27.0147 33.4758C26.8841 33.4775 26.8391 33.4388 26.8264 33.2996C26.8183 33.2077 26.8206 33.1152 26.8206 33.0228C26.8206 29.3481 26.8206 25.6735 26.8206 21.9988C26.8206 21.9133 26.8223 21.8278 26.8189 21.7428C26.8113 21.5348 26.7761 21.5019 26.5606 21.495C26.4814 21.4927 26.4029 21.4938 26.3243 21.4938C22.9986 21.4938 19.6729 21.4938 16.3466 21.4938C16.2467 21.4938 16.1467 21.4909 16.0468 21.4852C15.941 21.4794 15.8994 21.4187 15.9017 21.3153C15.9035 21.2153 15.937 21.15 16.0479 21.1477C16.134 21.146 16.2195 21.1437 16.3056 21.1437C19.6816 21.1437 23.0569 21.1437 26.4335 21.1437C26.82 21.1437 26.8206 21.1431 26.8206 20.7525C26.8206 17.1414 26.8206 13.5309 26.8206 9.91978C26.8206 9.81347 26.8194 9.706 26.8327 9.60085C26.8477 9.47836 26.8899 9.45525 27.0245 9.45525C27.1262 9.45525 27.1909 9.49338 27.1967 9.59969C27.2025 9.69907 27.2042 9.79845 27.2042 9.89782C27.2048 13.5089 27.2048 17.1195 27.2048 20.7306C27.2048 20.8155 27.2054 20.901 27.2083 20.986C27.2123 21.0894 27.2689 21.1408 27.3724 21.142C27.4509 21.1425 27.5295 21.1437 27.6081 21.1437C30.9985 21.1437 34.3889 21.1437 37.7787 21.1437C37.8648 21.1437 37.9509 21.1408 38.0364 21.1483C38.1485 21.1576 38.1849 21.202 38.1872 21.3118C38.1895 21.4118 38.1497 21.4782 38.0422 21.4846C37.9422 21.4904 37.8423 21.4938 37.7423 21.4938C34.3733 21.4938 31.0049 21.4938 27.6358 21.4944C27.5503 21.4944 27.4642 21.495 27.3787 21.4984C27.2661 21.5025 27.21 21.5637 27.2077 21.6747C27.2065 21.7527 27.2048 21.8312 27.2048 21.9092C27.2048 23.7714 27.2048 25.6336 27.2048 27.4958ZM21.6859 13.8001C21.6229 14.026 21.7315 14.1797 21.9517 14.293C22.1354 14.3877 22.3105 14.5016 22.4763 14.6246C22.6415 14.7477 22.7808 14.7512 22.9628 14.6425C23.4244 14.3658 23.9438 14.4201 24.335 14.7592C24.7406 15.11 24.8457 15.7357 24.5811 16.2228C24.3413 16.663 23.7381 16.9103 23.2528 16.7664C23.128 16.7295 23.0142 16.6711 22.9108 16.5925C22.7218 16.4498 22.5323 16.4498 22.3347 16.5787C22.1308 16.711 21.9101 16.8132 21.6905 16.9178C21.5622 16.9785 21.5131 17.0611 21.5201 17.2188C21.5513 17.9694 20.9908 18.4079 20.4402 18.4443C19.7203 18.4917 19.2592 17.9509 19.1864 17.4326C19.1211 16.9704 19.3811 16.4724 19.822 16.2499C19.8728 16.2239 19.9265 16.2037 19.9785 16.1806C20.0872 16.132 20.1432 16.0488 20.1473 15.9304C20.1559 15.6392 20.1478 15.3474 20.1837 15.0574C20.1993 14.9314 20.1386 14.8384 20.0288 14.776C19.9791 14.7477 19.9289 14.7205 19.8809 14.6893C19.4545 14.4137 19.2575 13.9157 19.3805 13.4275C19.5001 12.9554 19.9081 12.6064 20.3876 12.5677C20.9423 12.5227 21.3958 12.7804 21.6038 13.2559C21.6766 13.4228 21.6992 13.5968 21.6859 13.8001ZM23.4937 15.1383C23.5007 15.0169 23.4129 14.9135 23.2961 14.9048C23.1569 14.895 22.9859 15.0504 22.9772 15.1943C22.9709 15.3104 23.0633 15.4168 23.1794 15.4254C23.3256 15.437 23.4851 15.2908 23.4937 15.1383ZM22.4116 15.3775C22.4179 15.2665 22.3555 15.2099 22.2804 15.1631C22.0279 15.0042 21.7737 14.8465 21.5212 14.6876C21.4005 14.6119 21.2843 14.6027 21.1641 14.6922C21.1139 14.7304 21.0573 14.7685 20.9972 14.7835C20.7903 14.8338 20.7383 14.9794 20.7337 15.166C20.7268 15.4347 20.7435 15.7045 20.6956 15.9714C20.6759 16.0829 20.732 16.1604 20.8273 16.2158C20.9255 16.2736 21.0226 16.3325 21.1162 16.3972C21.2144 16.4648 21.3144 16.4741 21.4184 16.4215C21.698 16.28 21.9765 16.1367 22.2544 15.9934C22.3284 15.9552 22.3781 15.8969 22.3798 15.8096C22.3833 15.6612 22.374 15.5115 22.4116 15.3775ZM19.8237 13.3368C19.826 13.4714 19.9069 13.5569 20.0317 13.5557C20.1738 13.5552 20.3154 13.4078 20.3142 13.2611C20.3142 13.1311 20.2091 13.0219 20.0889 13.0265C19.9497 13.0317 19.8214 13.1819 19.8237 13.3368ZM19.6596 16.9155C19.6619 17.0432 19.7538 17.1345 19.8751 17.1299C20.0242 17.1247 20.1646 16.9646 20.1571 16.8086C20.1507 16.685 20.0733 16.6087 19.9537 16.6081C19.8012 16.6076 19.6561 16.7595 19.6596 16.9155ZM23.5677 26.3674C23.5677 26.4956 23.5689 26.6239 23.5342 26.7481C23.4828 26.9353 23.5457 27.0711 23.689 27.1994C24.0184 27.494 24.3361 27.8014 24.6123 28.1481C24.7192 28.2821 24.8169 28.4225 24.8775 28.5837C24.9705 28.8333 24.8781 28.968 24.6123 28.9795C24.4592 28.9864 24.3148 28.9518 24.1709 28.9061C23.7613 28.775 23.3713 28.5988 22.9986 28.3861C21.9499 27.7858 20.9469 27.1196 20.0184 26.3466C19.5903 25.9907 19.1864 25.6093 18.8039 25.2055C18.6202 25.0119 18.4821 24.7883 18.3637 24.5532C18.2377 24.3018 18.3457 24.1395 18.6306 24.1291C18.7981 24.1233 18.9565 24.1649 19.1107 24.2227C19.473 24.3567 19.8318 24.5017 20.16 24.7051C20.3714 24.8363 20.5482 24.8455 20.7724 24.7172C21.9135 24.0626 23.3227 24.8311 23.5365 26.0074C23.5585 26.127 23.5671 26.2466 23.5677 26.3674ZM23.7173 28.2365C23.9028 28.248 23.9548 28.1868 23.9086 28.0366C23.8941 27.9898 23.8745 27.9401 23.8433 27.9031C23.711 27.7448 23.5746 27.5894 23.4371 27.4351C23.3713 27.3612 23.3031 27.3612 23.2418 27.4432C23.143 27.5744 23.0419 27.7032 22.9194 27.8141C22.8617 27.8661 22.8755 27.9152 22.9402 27.9488C23.1939 28.0816 23.451 28.2064 23.7173 28.2365ZM19.4441 24.8634C19.3066 24.8582 19.2523 24.9356 19.3124 25.0703C19.4181 25.306 19.5966 25.4903 19.774 25.6735C19.8416 25.7434 19.9 25.7237 19.9381 25.6388C19.9988 25.5036 20.0652 25.3707 20.1444 25.2448C20.1929 25.1679 20.1663 25.1096 20.0889 25.0726C19.8832 24.9755 19.6712 24.8969 19.4441 24.8634ZM30.1266 26.721C30.1278 26.9041 30.1041 27.0908 30.2214 27.256C30.263 27.3149 30.2653 27.3935 30.2422 27.4628C30.2012 27.5865 30.2306 27.7009 30.2751 27.8153C30.3375 27.9748 30.3751 28.1417 30.4097 28.3081C30.4253 28.3844 30.434 28.4636 30.4323 28.541C30.4282 28.6906 30.3681 28.7652 30.2197 28.7906C30.0423 28.8206 29.8626 28.82 29.6875 28.7727C29.5454 28.7345 29.5026 28.6773 29.5067 28.5248C29.5136 28.2885 29.5731 28.0614 29.65 27.839C29.6881 27.7292 29.7135 27.6264 29.6586 27.5102C29.6066 27.4004 29.6251 27.2832 29.7083 27.1907C29.7857 27.104 29.8065 27.007 29.8042 26.896C29.8013 26.7256 29.8077 26.5552 29.8037 26.3847C29.799 26.2073 29.7615 26.16 29.5928 26.112C29.483 26.0808 29.3703 26.0577 29.2605 26.0282C29.1976 26.0109 29.134 25.9855 29.1225 25.9104C29.1092 25.8237 29.1721 25.7815 29.238 25.7509C29.4449 25.6532 29.6529 25.5585 29.8609 25.4637C30.3809 25.2268 30.9003 24.9894 31.4209 24.7542C31.5578 24.693 31.6965 24.6358 31.8374 24.5844C32.0293 24.5144 32.2257 24.5029 32.4285 24.5428C33.6343 24.7796 34.8413 25.0125 36.0471 25.2494C36.1477 25.269 36.2805 25.2661 36.3025 25.4019C36.3245 25.5365 36.1997 25.5758 36.1101 25.6278C35.4376 26.0196 34.761 26.4044 34.0931 26.803C33.8111 26.9712 33.5251 27.0076 33.2091 26.9342C32.2973 26.721 31.3845 26.5159 30.4716 26.3079C30.1399 26.2322 30.1295 26.2408 30.1266 26.5719C30.1261 26.6216 30.1266 26.6713 30.1266 26.721ZM21.6437 28.3746C20.6921 28.3728 19.8734 27.6628 19.7417 26.7435C19.7388 26.7221 19.7336 26.7013 19.7336 26.68C19.7336 26.6112 19.7099 26.5286 19.7908 26.491C19.8613 26.4581 19.9104 26.5188 19.9583 26.5581C20.5482 27.0411 21.1647 27.4883 21.802 27.906C21.9037 27.9724 22.0083 28.0337 22.1105 28.0978C22.1591 28.1284 22.214 28.1596 22.1995 28.2284C22.1862 28.2948 22.1244 28.3104 22.0689 28.322C21.9228 28.3526 21.7754 28.3821 21.6437 28.3746ZM30.709 27.3744C30.709 27.1965 30.7044 27.0185 30.7102 26.8412C30.7171 26.6326 30.772 26.5875 30.9783 26.6326C31.6 26.7684 32.2199 26.9099 32.8405 27.0497C33.0357 27.0936 33.2305 27.141 33.4263 27.1826C33.6794 27.2358 33.9215 27.2184 34.148 27.0746C34.323 26.9642 34.505 26.8643 34.687 26.766C34.8696 26.6678 34.9372 26.7048 34.9395 26.9111C34.9424 27.2456 34.9343 27.5796 34.9314 27.9135C34.9303 28.0689 34.8575 28.1845 34.7292 28.2683C34.6269 28.3353 34.5166 28.385 34.401 28.4237C33.8764 28.5999 33.3414 28.723 32.7833 28.7114C32.228 28.6999 31.6913 28.5849 31.1695 28.3988C31.0892 28.37 31.0129 28.3289 30.9384 28.2873C30.7824 28.1995 30.7004 28.0707 30.7073 27.8858C30.7142 27.7159 30.709 27.5449 30.709 27.3744ZM15.1466 26.4725C15.0882 26.5141 15.064 26.5823 15.0322 26.6441C14.7612 27.1688 14.5174 27.7055 14.273 28.2428C14.1898 28.4266 14.1956 28.5612 14.3233 28.7259C14.6225 29.1118 14.8381 29.5428 14.9519 30.0212C15.09 30.5979 15.0091 31.1346 14.674 31.6292C14.6578 31.6523 14.6422 31.676 14.626 31.6997C14.5833 31.7633 14.5977 31.8106 14.6728 31.8251C14.7497 31.8401 14.8282 31.8488 14.9062 31.8505C15.1004 31.8563 15.1489 31.8193 15.1633 31.624C15.1986 31.1641 15.2408 30.7036 15.2512 30.2431C15.2731 29.2204 15.2639 28.1984 15.1893 27.1774C15.1865 27.1381 15.1726 27.0908 15.2269 27.0688C15.2835 27.085 15.2725 27.1352 15.2766 27.174C15.3396 27.7523 15.3771 28.3341 15.3991 28.9154C15.428 29.6884 15.4424 30.4627 15.4066 31.2363C15.3991 31.3923 15.3841 31.5477 15.3754 31.7037C15.3679 31.8493 15.3875 31.8742 15.532 31.9077C15.5736 31.9169 15.6157 31.9262 15.6585 31.9296C15.8012 31.9418 15.833 31.9198 15.8752 31.7846C15.8856 31.7511 15.8925 31.7159 15.8994 31.6812C16.015 31.1248 16.1248 30.5672 16.2478 30.0126C16.2923 29.8121 16.2842 29.6226 16.2311 29.4256C15.9745 28.4699 15.6452 27.5397 15.2564 26.6297C15.2327 26.5742 15.2257 26.5037 15.1466 26.4725ZM10.046 10.0538C9.97374 10.0798 9.96161 10.1324 9.93792 10.1734C9.47974 10.954 9.05623 11.7519 8.69397 12.581C8.35654 13.3518 8.06823 14.1381 7.91917 14.9696C7.88797 15.1458 7.90761 15.3024 7.99254 15.4618C8.35712 16.1465 8.69397 16.8456 9.02157 17.5488C9.03948 17.5863 9.04005 17.6504 9.11228 17.6476C9.1169 17.6233 9.12499 17.6031 9.12383 17.5823C9.10419 16.9577 9.09783 16.3314 9.05797 15.708C9.02965 15.2584 9.0337 14.8095 9.0961 14.3675C9.28792 13.0155 9.56988 11.6808 9.95641 10.3687C9.98645 10.2682 10.0142 10.1671 10.046 10.0538ZM45.6833 27.5576C45.6405 27.5235 45.6267 27.5044 45.6082 27.4981C45.1621 27.3467 44.7149 27.2 44.2701 27.0445C44.1406 26.9995 44.0678 27.0613 43.995 27.1468C43.5288 27.6951 43.0885 28.2625 42.7228 28.8836C42.6962 28.9281 42.6442 28.9708 42.6777 29.035C42.7343 29.061 42.7915 29.0408 42.8476 29.0419C42.9048 29.0431 42.9625 29.0367 43.0192 29.0408C43.1249 29.0494 43.1422 29.0772 43.107 29.1777C43.0931 29.2176 43.0729 29.2557 43.0544 29.2938C42.7788 29.8485 42.4801 30.3899 42.0693 30.8608C42.0265 30.9093 41.9884 30.9596 41.9844 31.0283C41.9734 31.186 41.9965 31.3409 42.0398 31.4911C42.0704 31.5974 42.1444 31.6124 42.238 31.5454C42.2611 31.5287 42.2813 31.5084 42.301 31.4876C42.6991 31.0705 43.0966 30.6522 43.4953 30.2356C43.5721 30.1547 43.6125 30.0611 43.6258 29.9513C43.7136 29.2326 43.8026 28.5144 43.8922 27.7962C43.9026 27.7142 43.9066 27.6292 43.9898 27.5229C44.0921 27.8679 44.0597 28.2041 44.1637 28.5566C44.5289 27.9909 45.0564 27.7275 45.6833 27.5576ZM11.2212 29.0431C11.2321 28.9778 11.2131 28.9477 11.1946 28.9171C10.8133 28.2798 10.3649 27.6911 9.88245 27.1272C9.80099 27.0324 9.71894 27.0116 9.59992 27.0526C9.16832 27.2028 8.73325 27.345 8.29992 27.4906C8.27334 27.4992 8.24503 27.5091 8.22654 27.5564C8.41952 27.624 8.61828 27.676 8.80259 27.7644C8.99037 27.8552 9.16543 27.9632 9.33068 28.0897C9.49303 28.214 9.59703 28.3913 9.74379 28.5514C9.82583 28.2001 9.8033 27.8552 9.9021 27.516C9.98645 27.5842 9.98357 27.6593 9.99223 27.7269C10.0824 28.4456 10.1737 29.1644 10.2586 29.8837C10.2777 30.0467 10.336 30.1784 10.4527 30.2968C10.8231 30.673 11.1842 31.0572 11.5517 31.4356C11.6129 31.4992 11.6597 31.6078 11.7712 31.5772C11.8821 31.5472 11.8671 31.4299 11.8862 31.3438C11.9347 31.1265 11.9035 30.9411 11.7435 30.7556C11.3552 30.3049 11.075 29.7832 10.8179 29.2499C10.8057 29.2239 10.7953 29.1979 10.7861 29.1708C10.7584 29.0893 10.7919 29.046 10.8745 29.0436C10.9877 29.0408 11.1016 29.0431 11.2212 29.0431ZM6.54925 24.6323C6.65614 24.7155 6.67868 24.8004 6.71508 24.875C7.04845 25.5516 7.39685 26.22 7.76606 26.8781C7.83886 27.0081 7.91917 27.0861 8.08441 27.0688C8.54605 27.0203 9.00943 26.9839 9.47165 26.9417C9.52712 26.9365 9.5953 26.9434 9.61899 26.8793C9.63921 26.825 9.58374 26.792 9.55601 26.7522C9.54388 26.7348 9.52885 26.7192 9.51499 26.7036C8.84765 25.9589 8.13294 25.2644 7.33272 24.6606C7.05943 24.4544 6.77863 24.2579 6.47645 24.095C6.35801 24.0314 6.33201 24.0476 6.29908 24.1741C6.2621 24.3203 6.26383 24.4705 6.25054 24.6184C6.18063 25.4088 6.2153 26.194 6.37014 26.9723C6.41348 27.1924 6.45103 27.2156 6.67579 27.1948C6.93174 27.1705 7.18712 27.1422 7.44365 27.1214C7.69961 27.1 7.71001 27.0879 7.59099 26.862C7.26223 26.2391 6.95717 25.6041 6.66597 24.9634C6.62263 24.8686 6.56774 24.7768 6.54925 24.6323ZM8.34614 20.9698C8.29125 21.0195 8.29183 21.064 8.28548 21.1056C8.16703 21.8503 8.09192 22.5991 8.09539 23.3543C8.09712 23.7807 8.09828 24.2065 8.1549 24.6306C8.17628 24.7912 8.21903 24.9304 8.35597 25.0368C8.48481 25.1373 8.60094 25.2546 8.71997 25.3678C9.31508 25.9335 9.86801 26.5378 10.3874 27.1728C10.4337 27.2294 10.4683 27.3051 10.5631 27.3224C10.5966 27.2127 10.5377 27.1335 10.5059 27.0509C9.82699 25.2771 9.14868 23.5039 8.54779 21.7024C8.46921 21.4678 8.37965 21.2361 8.34614 20.9698ZM51.5726 30.1316C51.5252 30.0415 51.4628 30.0374 51.4108 30.0212C50.9208 29.8699 50.4199 29.8 49.908 29.8335C49.6561 29.8502 49.4128 29.908 49.1898 30.0322C48.7681 30.2674 48.4537 30.6129 48.188 31.0075C48.1648 31.0422 48.1342 31.0809 48.1585 31.1248C48.1839 31.1699 48.2319 31.1595 48.2741 31.156C48.5872 31.1294 48.9015 31.1115 49.2141 31.0745C49.4689 31.0445 49.7295 31.0352 49.9768 30.9613C50.5592 30.788 51.0624 30.4638 51.5726 30.1316ZM8.60094 35.8718C8.60094 35.6378 8.60037 35.4032 8.60152 35.1692C8.60152 35.082 8.59054 35.0011 8.53334 34.9295C8.41837 34.7845 8.30917 34.6354 8.19245 34.4921C8.10579 34.3858 8.07805 34.3812 7.95846 34.4597C7.73139 34.6082 7.51299 34.7677 7.33041 34.9705C7.20561 35.1097 7.10739 35.2652 7.0369 35.4373C6.88321 35.8164 6.95659 36.0873 7.28592 36.3346C7.60543 36.5744 7.96423 36.7252 8.36001 36.7864C8.5553 36.8165 8.59805 36.7795 8.60037 36.5744C8.60325 36.3398 8.60094 36.1058 8.60094 35.8718ZM38.7471 34.4066C38.7251 34.1119 38.7089 33.864 38.6876 33.6162C38.6639 33.34 38.6373 33.0644 38.6096 32.7888C38.5922 32.6207 38.5605 32.5976 38.3894 32.616C38.3045 32.6247 38.219 32.6322 38.1341 32.6461C37.8729 32.6877 37.6112 32.727 37.3517 32.7772C37.2015 32.8061 37.1744 32.8454 37.1686 32.9933C37.164 33.1072 37.1721 33.2198 37.1981 33.3319C37.3575 34.0345 37.736 34.6279 38.1427 35.2062C38.1468 35.212 38.152 35.2172 38.1566 35.223C38.2086 35.2865 38.2612 35.2906 38.3149 35.2247C38.3912 35.13 38.4582 35.026 38.5454 34.9439C38.7188 34.7816 38.8285 34.6053 38.7471 34.4066ZM7.67477 23.7344C7.68632 23.7079 7.70192 23.6894 7.70134 23.6709C7.69499 23.0891 7.73312 22.509 7.7909 21.93C7.80419 21.7977 7.7493 21.7012 7.66379 21.6065C7.01899 20.8895 6.30486 20.2493 5.52486 19.6813C5.47574 19.6455 5.43472 19.5872 5.34921 19.5999C5.34459 19.6894 5.39428 19.7611 5.42952 19.8344C5.77561 20.559 6.13326 21.2777 6.52903 21.9763C6.83699 22.52 7.12934 23.074 7.5101 23.5738C7.55517 23.6322 7.58752 23.7079 7.67477 23.7344ZM13.9673 31.7396C13.9552 31.6621 13.9408 31.557 13.9223 31.4518C13.7877 30.6874 13.4185 30.0998 12.6621 29.804C12.6292 29.7907 12.5974 29.774 12.5651 29.7595C12.2485 29.6249 11.9209 29.5244 11.5823 29.462C11.5147 29.4492 11.4315 29.4111 11.3835 29.4804C11.3402 29.5423 11.4066 29.5995 11.4373 29.6526C11.5909 29.9172 11.7573 30.1744 11.9388 30.4211C12.0786 30.6106 12.2196 30.8024 12.4079 30.9451C12.8574 31.2866 13.3422 31.576 13.8316 31.8563C13.9379 31.9164 13.9668 31.8938 13.9673 31.7396ZM10.7023 26.6979C10.7156 26.6586 10.7329 26.6199 10.7416 26.5794C10.8364 26.1409 10.9594 25.7099 11.1021 25.2858C11.1576 25.1211 11.1362 24.9917 11.0513 24.8444C10.3152 23.5721 9.46299 22.379 8.5657 21.2165C8.5449 21.1893 8.52872 21.1547 8.45939 21.1448C9.18797 23.0076 9.8553 24.879 10.7023 26.6979ZM38.6685 27.1139C38.7269 27.1647 38.702 27.2306 38.6991 27.2901C38.6777 27.8078 38.6454 28.3255 38.6344 28.8437C38.6159 29.7324 38.6437 30.6198 38.7165 31.5061C38.7442 31.8464 38.7893 31.8892 39.1238 31.8447C39.3064 31.821 39.3254 31.7864 39.2249 31.6379C38.8898 31.1433 38.8043 30.6065 38.9395 30.0293C39.0568 29.5284 39.2919 29.0847 39.6028 28.6796C39.6969 28.556 39.7097 28.4514 39.6478 28.3099C39.3919 27.7228 39.1209 27.1428 38.8239 26.5748C38.8025 26.5338 38.7916 26.4777 38.7321 26.4737C38.6985 26.4858 38.6864 26.5124 38.6749 26.5384C38.2485 27.5264 37.8943 28.5387 37.625 29.5804C37.5973 29.6867 37.6025 29.7896 37.625 29.8959C37.7123 30.3061 37.7955 30.7169 37.8804 31.1277C37.9232 31.3368 37.9625 31.546 38.0104 31.754C38.0503 31.9268 38.0884 31.9487 38.2652 31.9262C38.2721 31.925 38.2791 31.9239 38.286 31.9227C38.5027 31.8892 38.5281 31.8603 38.5148 31.6477C38.5079 31.5414 38.4894 31.4356 38.4865 31.3293C38.4611 30.2916 38.4645 29.254 38.5316 28.2174C38.5529 27.8916 38.5836 27.5663 38.6119 27.241C38.6159 27.1959 38.6003 27.1376 38.6685 27.1139ZM6.54405 13.5661C6.46605 13.7452 6.48281 13.8903 6.46779 14.0295C6.37592 14.8632 6.33085 15.6999 6.31179 16.5382C6.29908 17.0923 6.31237 17.647 6.35628 18.1993C6.40423 18.8031 6.49205 19.4 6.69659 19.9743C6.72779 20.0609 6.74917 20.1528 6.82139 20.2181C7.14552 20.5087 7.45059 20.8184 7.75681 21.1275C7.8429 21.2136 7.88797 21.1986 7.91165 21.0824C7.94228 20.9293 7.94805 20.7681 7.99717 20.622C8.13294 20.2169 8.08961 19.8264 7.94343 19.4375C7.94112 19.4312 7.93881 19.4242 7.93708 19.4173C7.45637 17.7643 7.07503 16.0876 6.70814 14.4068C6.69197 14.3346 6.65961 14.2618 6.69832 14.1607C6.7561 14.2468 6.76939 14.3224 6.78845 14.3958C6.93752 14.9672 7.0889 15.5369 7.23565 16.1089C7.60948 17.5696 8.08441 19.0007 8.50908 20.4463C8.55761 20.6133 8.87712 21.0351 9.0493 21.1691C9.09725 21.1391 9.1013 21.0865 9.11054 21.0397C9.18797 20.6485 9.29659 20.2655 9.42081 19.8876C9.4653 19.7518 9.46761 19.6247 9.41503 19.493C9.2937 19.1891 9.18277 18.8811 9.05277 18.5812C8.35712 16.9814 7.54592 15.4381 6.72779 13.8984C6.67463 13.799 6.61859 13.7013 6.54405 13.5661ZM43.7841 10.0775C43.8743 10.126 43.8876 10.211 43.9118 10.2896C44.2007 11.2435 44.4214 12.213 44.604 13.1917C44.7508 13.9752 44.8854 14.7592 44.8461 15.5612C44.8311 15.8738 44.8172 16.1858 44.8062 16.4984C44.7999 16.6902 44.7941 16.8814 44.7802 17.0732C44.7664 17.2749 44.7773 17.4788 44.7773 17.684C44.8276 17.6707 44.8322 17.6314 44.8461 17.6013C45.1876 16.8652 45.5493 16.139 45.9219 15.4185C45.9993 15.2688 46.0017 15.1198 45.9728 14.9632C45.9161 14.6552 45.8457 14.3508 45.7521 14.052C45.2748 12.5348 44.5439 11.1377 43.7165 9.78574C43.6825 9.72969 43.6622 9.65516 43.5912 9.62627C43.5444 9.67134 43.5386 9.7216 43.5293 9.77014C43.2965 10.9286 43.1521 12.0992 43.1012 13.279C43.0504 14.4756 43.137 15.6646 43.3577 16.8433C43.4496 17.3344 43.564 17.8145 43.8153 18.2554C43.924 18.4466 43.9962 18.6575 44.0886 18.8574C44.1169 18.9198 44.1233 18.9967 44.2059 19.044C44.3047 18.8701 44.3821 18.6928 44.4093 18.494C44.4434 18.2467 44.4376 17.9977 44.4532 17.7498C44.5012 16.9837 44.5572 16.2187 44.6052 15.4532C44.6254 15.1336 44.6375 14.8118 44.6028 14.494C44.4873 13.4269 44.3128 12.3684 44.0805 11.3197C43.9881 10.9043 43.8835 10.4912 43.7841 10.0775ZM2.24481 30.1079C2.25001 30.157 2.29334 30.1738 2.32801 30.1969C2.70877 30.4505 3.10512 30.6764 3.52459 30.8619C3.66268 30.9226 3.80539 30.9728 3.95445 30.9919C4.32308 31.0393 4.69228 31.0815 5.06205 31.1213C5.22557 31.1392 5.38965 31.1491 5.55374 31.1572C5.64677 31.1618 5.67045 31.1225 5.63174 31.0399C5.61961 31.0145 5.60228 30.9908 5.58668 30.9671C5.39717 30.6886 5.17472 30.439 4.90894 30.2298C4.65241 30.0276 4.36641 29.8901 4.03592 29.8508C3.44197 29.7809 2.86708 29.8658 2.30317 30.0501C2.27601 30.0588 2.25232 30.0756 2.24481 30.1079ZM39.924 31.7661C39.9269 31.7921 39.9078 31.8412 39.9437 31.8724C39.9933 31.9146 40.0361 31.869 40.0794 31.8493C40.1049 31.8372 40.1291 31.821 40.1534 31.8066C40.5341 31.583 40.9085 31.349 41.276 31.104C41.4615 30.9798 41.6233 30.8325 41.7654 30.6626C42.0346 30.339 42.26 29.986 42.4732 29.6249C42.5009 29.5787 42.5506 29.5284 42.5032 29.4718C42.4674 29.4284 42.4102 29.4487 42.3617 29.4516C42.3472 29.4527 42.3333 29.4568 42.3195 29.4591C41.8122 29.5602 41.3297 29.7272 40.8797 29.9843C40.626 30.1299 40.4278 30.3281 40.2817 30.5788C40.0713 30.9417 39.9737 31.3392 39.924 31.7661ZM46.2333 23.7437C46.4055 23.5692 46.543 23.3808 46.6644 23.1815C47.3519 22.0508 47.9811 20.8889 48.5352 19.6871C48.5537 19.6478 48.5878 19.608 48.5612 19.556C48.5364 19.5664 48.5219 19.5698 48.5109 19.5779C47.6633 20.1765 46.8995 20.8687 46.2033 21.6348C46.1068 21.7411 46.0877 21.8584 46.1039 21.9901C46.1669 22.5263 46.1935 23.0642 46.1854 23.6044C46.1854 23.6449 46.1756 23.69 46.2333 23.7437ZM15.1379 34.4707C15.1044 34.6105 15.1691 34.7827 15.3338 34.9295C15.4181 35.004 15.4782 35.1051 15.5528 35.1912C15.6493 35.3033 15.6793 35.3062 15.7631 35.1895C16.1074 34.7082 16.4183 34.2078 16.6118 33.6445C16.6812 33.4429 16.7309 33.236 16.7228 33.0193C16.7158 32.8431 16.6933 32.8102 16.5223 32.7726C16.1802 32.6975 15.8336 32.6542 15.4863 32.6132C15.3361 32.5947 15.2957 32.6305 15.2818 32.7853C15.2344 33.3221 15.1899 33.8588 15.1379 34.4707ZM18.1435 36.9268C18.6653 36.9268 19.1876 36.928 19.7099 36.9263C19.8948 36.9257 19.9179 36.9026 19.8855 36.731C19.7913 36.2272 19.6654 35.7314 19.4932 35.2478C19.4476 35.1196 19.3725 35.0283 19.2448 34.9728C19.0414 34.8844 18.8397 34.7931 18.6433 34.6908C18.5121 34.6221 18.4122 34.6348 18.2932 34.7267C17.6998 35.1843 17.0983 35.6309 16.5038 36.0868C16.1253 36.3774 16.1721 36.2641 16.3004 36.7061C16.3622 36.9199 16.3703 36.9257 16.5985 36.9263C17.1139 36.928 17.6287 36.9268 18.1435 36.9268ZM22.2319 35.8331C22.2683 35.8996 22.3272 35.914 22.3775 35.9377C23.0309 36.2445 23.685 36.549 24.3373 36.8575C24.4511 36.9112 24.5673 36.928 24.6903 36.928C26.2214 36.9268 27.752 36.9263 29.2831 36.9286C29.4298 36.9286 29.5645 36.9003 29.6962 36.8379C30.3167 36.5455 30.939 36.2566 31.5589 35.9643C31.6202 35.9354 31.6988 35.925 31.7265 35.8452C31.6895 35.7805 31.6196 35.7759 31.5618 35.7545C31.0193 35.5535 30.4733 35.3605 29.9337 35.1502C29.758 35.0814 29.6113 35.0936 29.4449 35.171C28.6614 35.5367 27.8727 35.8909 27.0898 36.2572C26.9263 36.334 26.7905 36.3375 26.6253 36.2584C25.8788 35.8984 25.1248 35.554 24.3777 35.1964C24.2171 35.1201 24.0733 35.1063 23.9063 35.1704C23.4059 35.3622 22.9009 35.5425 22.3989 35.7297C22.3411 35.7511 22.2706 35.7568 22.2319 35.8331ZM12.3865 23.861C12.4426 23.9066 12.4385 23.9511 12.4414 23.9927C12.4697 24.411 12.5009 24.8288 12.5241 25.2471C12.5737 26.1328 12.6119 27.0197 12.6708 27.9054C12.6962 28.2885 12.6916 28.6727 12.7193 29.0546C12.7517 29.5024 12.6731 29.3955 13.0984 29.6295C13.2509 29.7139 13.2642 29.7081 13.3214 29.5376C13.4693 29.0997 13.6045 28.6525 13.8177 28.2446C14.0367 27.8251 14.0413 27.4212 13.9413 26.9735C13.6461 25.6509 13.1371 24.4139 12.4946 23.2254C12.4778 23.1942 12.4593 23.1636 12.438 23.1353C12.3958 23.0787 12.3542 23.0885 12.3224 23.1445C12.2947 23.1942 12.271 23.2462 12.2496 23.2988C12.1248 23.601 11.9954 23.9014 11.8787 24.2071C11.4552 25.3181 11.0848 26.4436 10.9242 27.6281C10.9057 27.7679 10.9352 27.8742 11.012 27.9852C11.1657 28.2076 11.3425 28.4225 11.4505 28.6664C11.6106 29.0275 11.8625 29.2251 12.2496 29.2684C12.2641 29.2696 12.2768 29.2782 12.2906 29.2811C12.4397 29.3181 12.4645 29.3002 12.4738 29.1436C12.4773 29.087 12.4761 29.0304 12.4755 28.9732C12.4669 28.2492 12.4657 27.5247 12.4397 26.8001C12.4079 25.8988 12.3917 24.9975 12.3496 24.0961C12.3461 24.0216 12.3259 23.9419 12.3865 23.861ZM47.2901 35.602C47.2462 35.6598 47.2774 35.7077 47.2843 35.7545C47.3623 36.2994 47.1613 36.7125 46.6909 36.9996C46.5627 37.0782 46.4263 37.14 46.283 37.1868C45.9138 37.3059 45.5365 37.3798 45.146 37.3798C44.288 37.3787 43.4294 37.3781 42.5714 37.3781C31.7069 37.3781 20.8423 37.3787 9.97779 37.3781C9.35552 37.3781 8.73383 37.3463 8.1185 37.2469C7.61468 37.166 7.15361 36.98 6.79077 36.6068C6.54001 36.3485 6.4129 36.0417 6.44699 35.6771C6.45046 35.639 6.47183 35.5928 6.42041 35.5621C6.34645 35.5904 6.32565 35.6632 6.28983 35.7216C6.1477 35.9533 6.04717 36.204 5.96397 36.4617C5.77619 37.0418 5.69472 37.6416 5.67277 38.2453C5.63463 39.2824 5.64272 40.3207 5.67161 41.3578C5.68663 41.9171 5.82299 42.4556 6.09339 42.9525C6.5221 43.7417 7.12934 44.3155 8.02143 44.5674C8.74712 44.7725 9.47743 44.914 10.2366 44.914C21.3375 44.9106 32.4377 44.9117 43.5386 44.9117C43.846 44.9123 44.1528 44.9065 44.4584 44.8632C45.0841 44.7742 45.6937 44.628 46.2767 44.3825C46.669 44.2172 46.9879 43.9648 47.2398 43.6239C47.4571 43.3292 47.6287 43.012 47.7569 42.67C48.0071 42.0038 48.1256 41.3133 48.1423 40.605C48.1562 40.037 48.1816 39.4702 48.151 38.9005C48.1233 38.3892 48.0961 37.879 48.0048 37.3746C47.9025 36.8119 47.7425 36.2676 47.4334 35.7776C47.3941 35.7147 47.3635 35.6401 47.2901 35.602ZM32.1182 40.7344C32.005 40.8968 31.8912 41.0597 31.7779 41.222C31.7531 41.2573 31.7305 41.2937 31.7045 41.3272C31.6121 41.4462 31.5867 41.4491 31.5 41.3307C31.3821 41.17 31.2718 41.0037 31.158 40.8401C31.1337 40.806 31.1071 40.7737 31.0805 40.739C31.0112 40.7714 31.0372 40.828 31.0372 40.8708C31.0349 41.2827 31.0372 41.6947 31.0349 42.1072C31.0332 42.3302 31.0106 42.3528 30.7917 42.3585C30.6559 42.3626 30.5195 42.358 30.3837 42.3562C30.2728 42.3539 30.2116 42.2984 30.2081 42.1858C30.2058 42.1292 30.2035 42.0725 30.2035 42.0153C30.2029 41.2556 30.2029 40.4952 30.2029 39.7348C30.2029 39.7204 30.2029 39.7065 30.2035 39.6921C30.2081 39.4217 30.2243 39.4015 30.4993 39.4044C31.0603 39.4096 30.9303 39.3356 31.2441 39.8076C31.3307 39.9382 31.4128 40.0717 31.5017 40.2005C31.5896 40.3282 31.6121 40.3294 31.6965 40.2046C31.827 40.0093 31.9593 39.8152 32.0778 39.6124C32.1662 39.4604 32.28 39.3847 32.4597 39.4015C32.5729 39.4119 32.6885 39.4003 32.8029 39.4061C32.9502 39.4136 32.9774 39.4402 32.993 39.5806C32.9988 39.6366 32.997 39.6938 32.997 39.751C32.9976 40.5039 32.9976 41.2573 32.997 42.0101C32.997 42.046 32.9976 42.0812 32.9959 42.117C32.9866 42.3221 32.9601 42.351 32.7573 42.3585C32.6359 42.3632 32.514 42.3632 32.3933 42.3585C32.1962 42.3505 32.1691 42.3256 32.1673 42.132C32.1639 41.7415 32.1662 41.3509 32.1656 40.9603V40.7494C32.15 40.7442 32.1344 40.7396 32.1182 40.7344ZM24.3853 41.1937C24.3061 41.2556 24.2859 41.3341 24.2501 41.4012C24.0265 41.8235 23.774 42.2274 23.4672 42.5954C23.3158 42.7768 23.2985 42.7763 23.102 42.6347C23.0038 42.5636 22.9056 42.4926 22.8097 42.4186C22.6594 42.3025 22.656 42.2938 22.7744 42.1534C22.9951 41.8905 23.191 41.612 23.3649 41.3168C23.5082 41.0724 23.4741 41.0892 23.3042 40.9568C23.0835 40.7847 22.9293 40.5697 22.8877 40.2849C22.8328 39.9163 22.998 39.6233 23.3453 39.4876C23.4937 39.4304 23.6486 39.4044 23.8069 39.4044C24.2004 39.4038 24.5933 39.4021 24.9867 39.4044C25.197 39.4055 25.2149 39.4217 25.2727 39.6158C25.301 39.7112 25.3253 39.8077 25.3507 39.9041C25.3709 39.9804 25.3848 40.0532 25.3207 40.1231C25.2519 40.1982 25.2721 40.2982 25.2721 40.3889C25.2704 40.9285 25.2721 41.4688 25.271 42.009C25.2704 42.3481 25.2589 42.3585 24.9255 42.3603C24.8255 42.3608 24.725 42.3632 24.6256 42.3574C24.4592 42.3476 24.4274 42.3198 24.4217 42.15C24.4136 41.9154 24.4188 41.6814 24.4159 41.4468C24.4147 41.37 24.4309 41.2908 24.3853 41.1937ZM24.4113 40.5293C24.417 40.1092 24.4448 40.0948 23.9976 40.1121C23.7948 40.1196 23.7335 40.2404 23.8427 40.4132C23.9548 40.5911 24.1212 40.7148 24.2951 40.8274C24.365 40.8725 24.4049 40.8332 24.4101 40.7627C24.4159 40.6853 24.4113 40.6067 24.4113 40.5293ZM28.9312 40.5599C28.8555 40.5443 28.8272 40.5928 28.7925 40.6252C28.5944 40.8095 28.3997 40.9984 28.1997 41.181C28.1033 41.2688 28.0576 41.37 28.0605 41.5005C28.0651 41.7068 28.0645 41.9131 28.0588 42.1193C28.0536 42.3227 28.0229 42.3528 27.8184 42.3585C27.6757 42.3626 27.533 42.3585 27.3897 42.3539C27.288 42.351 27.2314 42.299 27.232 42.1933C27.2325 42.1436 27.2297 42.0939 27.2297 42.0442C27.2297 41.2694 27.2297 40.4946 27.2297 39.7198C27.2297 39.684 27.2291 39.6482 27.2308 39.6129C27.2401 39.439 27.2614 39.413 27.4301 39.4061C27.5729 39.4003 27.7161 39.4003 27.8589 39.4055C28.0177 39.4119 28.0472 39.4384 28.0565 39.5944C28.0651 39.7291 28.0593 39.8643 28.0617 39.9995C28.0628 40.0619 28.053 40.1266 28.0848 40.1838C28.1616 40.1982 28.1899 40.1381 28.2281 40.1017C28.4245 39.9151 28.6209 39.7273 28.8128 39.5367C28.9041 39.4454 29.0052 39.3969 29.1369 39.4021C29.2871 39.4084 29.4379 39.3997 29.5876 39.4067C29.7326 39.4124 29.7586 39.4419 29.7736 39.5846C29.7788 39.6343 29.7777 39.684 29.7777 39.7337C29.7782 40.4946 29.7782 41.255 29.7777 42.0159C29.7777 42.0725 29.7753 42.1297 29.773 42.1864C29.769 42.2984 29.7083 42.3551 29.5968 42.3556C29.4466 42.3574 29.2958 42.3632 29.1461 42.3562C28.9774 42.3481 28.9503 42.3204 28.948 42.1477C28.9439 41.7923 28.9485 41.437 28.9451 41.0816C28.9433 40.9072 28.9618 40.7304 28.9312 40.5599ZM45.614 41.1371C45.5163 41.3174 45.4204 41.4994 45.3205 41.6779C45.1321 42.0142 44.9154 42.3308 44.6664 42.6249C44.5439 42.7693 44.5237 42.7705 44.3654 42.6607C44.2487 42.5793 44.1325 42.496 44.0205 42.4082C43.8893 42.3065 43.8858 42.2823 43.9968 42.1528C44.2163 41.898 44.407 41.6242 44.5774 41.3359C44.6029 41.2931 44.626 41.2486 44.6502 41.2053C44.6912 41.1313 44.6768 41.0724 44.6086 41.0198C44.541 40.9678 44.4757 40.9124 44.4139 40.854C44.3036 40.75 44.2175 40.6281 44.1626 40.4865C43.9725 39.9995 44.2059 39.5592 44.7178 39.4425C44.801 39.4234 44.8871 39.4084 44.9715 39.4072C45.3932 39.4032 45.815 39.402 46.2368 39.4049C46.4205 39.4061 46.4379 39.424 46.491 39.5991C46.5182 39.6875 46.543 39.7765 46.5656 39.866C46.5898 39.9619 46.6193 40.0532 46.5234 40.1393C46.4627 40.1942 46.4864 40.2872 46.4864 40.3646C46.4853 40.9043 46.4858 41.4439 46.4852 41.9836C46.4852 42.0477 46.4876 42.1118 46.4829 42.1754C46.472 42.3175 46.4471 42.3476 46.2998 42.3556C46.1501 42.3637 45.9993 42.3637 45.8497 42.3568C45.6845 42.3487 45.6538 42.3175 45.6504 42.1471C45.6457 41.8634 45.6481 41.5791 45.6481 41.2948V41.1475C45.6371 41.1441 45.6255 41.1406 45.614 41.1371ZM45.6452 40.5114C45.6457 40.1133 45.7001 40.096 45.2384 40.1116C45.0316 40.1185 44.964 40.2514 45.0766 40.4276C45.1899 40.605 45.3597 40.7252 45.5342 40.8367C45.6047 40.8817 45.6417 40.8372 45.644 40.7662C45.6475 40.6812 45.6452 40.5963 45.6452 40.5114ZM35.842 40.8783C35.842 41.2833 35.8432 41.6883 35.8414 42.0933C35.8403 42.3383 35.8218 42.3551 35.5693 42.3597C35.4474 42.362 35.3261 42.3637 35.2047 42.3568C35.0481 42.3476 35.0164 42.3169 35.0094 42.1644C35.0025 42.0228 35.006 41.8807 35.006 41.7386C35.0054 41.2769 35.0071 40.8153 35.0048 40.3536C35.0037 40.1428 34.9782 40.1196 34.7714 40.115C34.6645 40.1127 34.557 40.1144 34.4501 40.1168C34.3479 40.1191 34.2913 40.1711 34.2872 40.2745C34.2849 40.3386 34.2832 40.4028 34.2837 40.4663C34.2855 41.0343 34.2843 41.6028 34.2936 42.1708C34.2953 42.3002 34.2566 42.3863 34.1457 42.451C34.0105 42.5301 33.8816 42.6214 33.747 42.7012C33.617 42.778 33.5765 42.7636 33.5251 42.622C33.4413 42.3915 33.4321 42.1465 33.4286 41.9073C33.4182 41.1544 33.4223 40.4016 33.4257 39.6482C33.4263 39.4321 33.4569 39.4049 33.6782 39.4044C34.3144 39.4021 34.9499 39.4021 35.5861 39.4044C35.8206 39.4055 35.8397 39.4263 35.8414 39.6638C35.8437 40.0688 35.842 40.4738 35.842 40.8783ZM19.7422 40.8921C19.7422 41.2972 19.744 41.7022 19.7411 42.1072C19.7399 42.3273 19.7133 42.3528 19.4955 42.3591C19.3667 42.3626 19.2378 42.3637 19.1096 42.3568C18.9374 42.3481 18.9091 42.3221 18.9062 42.1528C18.9016 41.8692 18.9056 41.5849 18.9033 41.3006C18.9016 41.0614 18.8837 41.0435 18.6485 41.0389C18.5555 41.0372 18.4625 41.036 18.37 41.0401C18.2007 41.0476 18.1649 41.077 18.1637 41.2411C18.1614 41.5034 18.1481 41.7669 18.1799 42.0292C18.1863 42.0852 18.1863 42.1424 18.1921 42.1991C18.2019 42.2927 18.173 42.3649 18.0898 42.4157C17.9378 42.5093 17.7893 42.6087 17.6345 42.6971C17.5189 42.763 17.4727 42.7439 17.4253 42.6168C17.352 42.4215 17.3323 42.2135 17.33 42.0084C17.3225 41.2203 17.3242 40.4311 17.3271 39.6424C17.3277 39.435 17.3589 39.4096 17.564 39.4044C17.6853 39.4015 17.8073 39.4009 17.9286 39.4044C18.136 39.4107 18.1562 39.4315 18.1603 39.6447C18.1637 39.7944 18.1585 39.9434 18.1632 40.0925C18.1678 40.2705 18.1973 40.2988 18.3804 40.3045C18.4948 40.308 18.6092 40.3092 18.7236 40.3028C18.8657 40.2941 18.8964 40.2629 18.9016 40.1191C18.9079 39.9486 18.9004 39.7776 18.9062 39.6072C18.912 39.4373 18.9374 39.4124 19.1107 39.4055C19.2534 39.4003 19.3967 39.4003 19.5394 39.4061C19.7064 39.4124 19.7365 39.4413 19.7399 39.6129C19.7457 39.8828 19.7422 40.1532 19.7422 40.423C19.7428 40.579 19.7422 40.7356 19.7422 40.8921ZM14.5717 40.8713C14.5717 40.4732 14.57 40.0757 14.5723 39.6782C14.574 39.4275 14.5942 39.4055 14.8375 39.4044C15.3089 39.4015 15.781 39.4021 16.2525 39.4044C16.4703 39.4055 16.483 39.4176 16.5529 39.6297C16.5772 39.7042 16.5991 39.7793 16.6205 39.8545C16.6869 40.0879 16.6737 40.1058 16.42 40.1075C16.1704 40.1098 15.9202 40.1081 15.6701 40.1087C15.6198 40.1092 15.5695 40.1092 15.5204 40.1156C15.4569 40.1237 15.4135 40.1584 15.4153 40.2271C15.4176 40.297 15.4655 40.3276 15.5279 40.3323C15.6059 40.3386 15.6845 40.3375 15.7631 40.3386C15.8422 40.3392 15.9214 40.3386 15.9925 40.3797C16.3154 40.5663 16.6211 40.7743 16.8406 41.0845C16.9677 41.2648 17.0348 41.4624 17.0088 41.686C16.9724 41.9963 16.8065 42.1933 16.5055 42.2788C16.3045 42.3354 16.0965 42.3493 15.8902 42.3556C15.5331 42.3666 15.1755 42.3626 14.8184 42.3585C14.6012 42.3562 14.574 42.3273 14.5729 42.1066C14.57 41.6953 14.5723 41.2833 14.5717 40.8713ZM15.7388 41.6311C15.7746 41.6311 15.8099 41.6328 15.8457 41.6305C15.9301 41.6248 16.0237 41.6311 16.0624 41.5323C16.0965 41.4445 16.0653 41.3648 16.0121 41.2943C15.9353 41.1914 15.8457 41.0984 15.7319 41.0372C15.5447 40.9355 15.4101 41.0112 15.4002 41.2174C15.3985 41.2457 15.3991 41.274 15.3991 41.3024C15.3979 41.6178 15.4141 41.6334 15.7388 41.6311ZM20.0479 41.2717C20.0577 40.7737 20.1917 40.319 20.5332 39.94C20.8371 39.6025 21.2352 39.4604 21.6743 39.4182C21.8725 39.3986 22.0741 39.4096 22.2741 39.4049C22.3821 39.402 22.4491 39.4512 22.4769 39.5552C22.5098 39.6788 22.5462 39.8019 22.5768 39.9255C22.5889 39.9729 22.6115 40.0312 22.5751 40.07C22.4676 40.1838 22.4965 40.3224 22.4959 40.4542C22.4936 41.0013 22.4965 41.5485 22.4942 42.0956C22.4936 42.3331 22.4728 42.3533 22.2405 42.3591C22.1117 42.362 21.9829 42.3637 21.8546 42.3556C21.7015 42.3458 21.6703 42.314 21.6633 42.1581C21.6553 41.9876 21.6622 41.8172 21.657 41.6467C21.6518 41.4659 21.6229 41.4387 21.4421 41.4335C21.3201 41.43 21.1988 41.4289 21.0775 41.4347C20.9278 41.4416 20.8885 41.4901 20.9157 41.6404C20.9475 41.8154 21.0099 41.9818 21.0873 42.143C21.1809 42.3366 21.1774 42.3424 20.9943 42.4672C20.8937 42.5353 20.7932 42.6029 20.6892 42.6659C20.5471 42.752 20.517 42.7468 20.4338 42.607C20.1883 42.1962 20.0421 41.7553 20.0479 41.2717ZM21.3022 40.7228C21.6587 40.7228 21.6766 40.7044 21.6581 40.349C21.657 40.3276 21.6564 40.3063 21.6547 40.2849C21.6477 40.1896 21.594 40.1647 21.5073 40.1907C21.3669 40.2335 21.2479 40.3115 21.1578 40.4259C21.0989 40.5004 20.992 40.5772 21.0428 40.6801C21.0844 40.7633 21.1994 40.7107 21.2809 40.7223C21.2878 40.7234 21.2953 40.7228 21.3022 40.7228ZM42.8661 40.5264C42.5945 40.7899 42.3391 41.036 42.0861 41.2844C42.0254 41.344 42.0248 41.4254 42.0242 41.5046C42.0242 41.7172 42.0265 41.9304 42.0225 42.1436C42.0179 42.3244 41.9925 42.3499 41.807 42.3574C41.6712 42.3632 41.5348 42.3637 41.3991 42.3568C41.2344 42.3481 41.2078 42.3169 41.1951 42.1477C41.1922 42.1055 41.1928 42.0627 41.1928 42.02C41.1922 41.2596 41.1922 40.4992 41.1928 39.7389C41.1928 39.6892 41.1917 39.6389 41.1963 39.5898C41.2113 39.4373 41.2373 39.4113 41.3991 39.4055C41.5424 39.4003 41.6856 39.4003 41.8284 39.4061C41.9884 39.413 42.015 39.439 42.0213 39.5962C42.0271 39.7522 42.0231 39.9088 42.0248 40.0653C42.0254 40.1064 42.0167 40.1508 42.0491 40.189C42.1103 40.2144 42.1392 40.1612 42.1721 40.13C42.3807 39.9353 42.5899 39.7412 42.7921 39.5401C42.8897 39.4431 42.9966 39.394 43.1359 39.4021C43.2497 39.409 43.3647 39.4015 43.4785 39.4038C43.7183 39.4078 43.7385 39.4252 43.7397 39.658C43.7425 40.0913 43.7408 40.5247 43.7408 40.9586C43.7408 41.3422 43.7425 41.7259 43.7402 42.1095C43.7385 42.3302 43.7148 42.3528 43.4935 42.3585C43.3652 42.3626 43.2358 42.3637 43.1076 42.3562C42.9539 42.347 42.925 42.3152 42.9123 42.1615C42.9065 42.098 42.9082 42.0338 42.9082 41.9697C42.9082 41.5791 42.9088 41.188 42.9071 40.7974C42.9071 40.7205 42.9227 40.6408 42.8661 40.5264ZM11.762 40.8985C11.762 41.3035 11.7637 41.708 11.7614 42.1124C11.7597 42.3314 11.736 42.3533 11.5129 42.3591C11.3841 42.3626 11.2553 42.3637 11.127 42.3556C10.9745 42.3464 10.9444 42.3146 10.934 42.1598C10.9271 42.061 10.9329 41.961 10.9288 41.8616C10.9213 41.6796 10.8959 41.6536 10.7202 41.6357C10.6278 41.6265 10.5353 41.6178 10.4435 41.604C9.80041 41.5057 9.40001 40.9869 9.47339 40.3427C9.50632 40.0578 9.61552 39.7944 9.72068 39.5297C9.75361 39.4477 9.81312 39.4067 9.90152 39.4067C10.0512 39.4061 10.202 39.3997 10.3516 39.4078C10.4909 39.4148 10.5163 39.4506 10.4683 39.5852C10.3869 39.8128 10.31 40.0405 10.2777 40.282C10.2592 40.4207 10.2771 40.5512 10.3343 40.676C10.3909 40.7997 10.492 40.8748 10.6214 40.9141C10.8456 40.9817 10.9265 40.9256 10.9288 40.6911C10.9323 40.3508 10.9277 40.0099 10.9311 39.669C10.934 39.4275 10.9577 39.4067 11.2061 39.4038C11.3205 39.4021 11.4349 39.4003 11.5493 39.4049C11.7319 39.4124 11.7585 39.4361 11.7602 39.621C11.7643 40.0468 11.762 40.4727 11.762 40.8985ZM12.2074 40.8713C12.2074 40.4732 12.2057 40.0757 12.2074 39.6782C12.2092 39.424 12.2253 39.4055 12.4697 39.4044C12.9123 39.4015 13.3555 39.4015 13.7981 39.4044C14.0084 39.4055 14.0217 39.4194 14.0817 39.6176C14.1049 39.6921 14.1268 39.7672 14.1459 39.8429C14.2054 40.0723 14.1852 40.0983 13.9379 40.1017C13.7593 40.1046 13.5808 40.1023 13.4023 40.1029C13.3526 40.1029 13.3023 40.1017 13.2521 40.104C13.0689 40.1139 12.9788 40.267 13.0597 40.4293C13.0932 40.4969 13.1556 40.5085 13.2226 40.5085C13.4156 40.5091 13.6085 40.5091 13.8015 40.5102C13.8581 40.5102 13.9153 40.5114 13.9725 40.5137C14.0569 40.5177 14.0898 40.568 14.0685 40.6425C14.0269 40.7928 13.9795 40.9418 13.9292 41.0897C13.9021 41.1689 13.8298 41.1885 13.7559 41.1908C13.6062 41.1966 13.456 41.1966 13.3064 41.2001C13.0758 41.2059 13.0267 41.2596 13.0435 41.4809C13.0539 41.6184 13.0833 41.6525 13.2301 41.656C13.4728 41.6617 13.716 41.6577 13.9587 41.6588C14.0228 41.6588 14.0875 41.66 14.1517 41.6629C14.2401 41.6669 14.2874 41.7091 14.2603 41.8004C14.2158 41.95 14.169 42.0991 14.1187 42.247C14.0887 42.3354 14.0113 42.3545 13.9292 42.3562C13.8079 42.3597 13.686 42.3603 13.5646 42.3603C13.222 42.3608 12.8788 42.3614 12.5362 42.3603C12.2149 42.3591 12.208 42.3516 12.2074 42.0425C12.2063 41.6519 12.2069 41.2613 12.2074 40.8713ZM8.29934 40.765C8.40912 40.4068 8.50792 40.0815 8.60846 39.7562C8.72806 39.3697 8.69339 39.4061 9.09205 39.4032C9.18508 39.4026 9.2781 39.4038 9.37112 39.4067C9.46241 39.4101 9.50112 39.4564 9.47512 39.5471C9.46126 39.5944 9.44392 39.6413 9.42659 39.688C9.15734 40.4143 8.88868 41.1412 8.61712 41.8668C8.54721 42.0529 8.47499 42.2389 8.36405 42.4059C8.23117 42.607 8.04743 42.7277 7.80419 42.7601C7.69846 42.7745 7.62334 42.7509 7.5829 42.6445C7.52974 42.5053 7.46966 42.3684 7.41708 42.2285C7.38934 42.1546 7.41419 42.1037 7.49912 42.0928C7.52801 42.0893 7.5569 42.0887 7.58463 42.0829C7.83943 42.0275 7.92032 41.8905 7.82788 41.6508C7.57712 41.0008 7.32232 40.3525 7.06983 39.7036C6.96121 39.4234 6.97392 39.4049 7.2761 39.4032C7.38299 39.4026 7.49046 39.409 7.59734 39.4026C7.74237 39.394 7.81863 39.4592 7.86254 39.5939C7.96597 39.9116 8.07921 40.226 8.18899 40.5414C8.2121 40.6067 8.22308 40.6778 8.29934 40.765ZM38.6956 41.2209C38.6956 40.958 38.6974 40.6951 38.6945 40.4322C38.6933 40.3068 38.7211 40.174 38.6078 40.0734C38.5801 40.0492 38.5865 40.0064 38.5957 39.9717C38.635 39.8209 38.6749 39.6696 38.7182 39.5193C38.7407 39.4413 38.8014 39.4072 38.8811 39.4067C39.3098 39.4049 39.7409 39.3732 40.1673 39.42C40.7491 39.4835 41.038 39.9209 40.9005 40.4877C40.849 40.7015 40.7364 40.8794 40.5844 41.036C40.3475 41.2816 40.0592 41.4532 39.7478 41.582C39.5843 41.6496 39.5069 41.7438 39.5259 41.92C39.5352 42.0044 39.53 42.091 39.5236 42.176C39.5126 42.3169 39.4843 42.3481 39.3387 42.3556C39.1891 42.3637 39.0383 42.3637 38.8881 42.3562C38.7338 42.3481 38.7014 42.3158 38.6985 42.1592C38.6933 41.8466 38.6968 41.5335 38.6968 41.2209H38.6956ZM39.5277 40.4657H39.5334C39.5334 40.5576 39.53 40.65 39.5346 40.7413C39.5381 40.8037 39.582 40.8349 39.638 40.8066C39.8125 40.72 39.9725 40.6119 40.0517 40.4259C40.1014 40.308 40.0685 40.1907 39.9749 40.1462C39.8547 40.0896 39.7212 40.0838 39.6022 40.1341C39.4964 40.178 39.5363 40.293 39.5282 40.3814C39.5253 40.4091 39.5277 40.4374 39.5277 40.4657ZM36.2875 40.8667C36.2875 40.4617 36.2857 40.0572 36.2886 39.6528C36.2898 39.4286 36.3106 39.4061 36.5325 39.4049C36.9901 39.4015 37.4471 39.4015 37.9041 39.4049C38.0878 39.4061 38.1069 39.424 38.1606 39.5973C38.1924 39.6984 38.2219 39.8013 38.2444 39.9053C38.2779 40.063 38.2554 40.0936 38.0878 40.0994C37.9093 40.1064 37.7302 40.1023 37.5517 40.1029C37.4806 40.1029 37.4089 40.1012 37.3379 40.104C37.1518 40.1127 37.0629 40.2583 37.1403 40.4264C37.1715 40.4952 37.2327 40.5079 37.3003 40.5085C37.4719 40.5091 37.6435 40.5091 37.8145 40.5096C37.8787 40.5102 37.9434 40.5073 38.0075 40.5114C38.1572 40.5212 38.1791 40.5495 38.1398 40.6997C38.1109 40.8095 38.0699 40.9164 38.0416 41.0262C38.0121 41.1394 37.9411 41.192 37.8267 41.1937C37.6695 41.196 37.5124 41.1972 37.3552 41.2012C37.2772 41.2036 37.1859 41.1955 37.1501 41.2833C37.1091 41.3833 37.1068 41.4925 37.153 41.593C37.1842 41.6606 37.2581 41.6577 37.3229 41.6577C37.573 41.6588 37.8226 41.6577 38.0728 41.6588C38.386 41.6606 38.3958 41.6727 38.2981 41.9732C38.167 42.3747 38.2201 42.3597 37.7689 42.3603C37.4043 42.3614 37.0403 42.3608 36.6757 42.3603C36.6185 42.3603 36.5613 42.362 36.5047 42.3585C36.3187 42.3476 36.2938 42.325 36.2892 42.1442C36.2846 41.9812 36.2875 41.8177 36.2875 41.6542C36.2875 41.3919 36.2875 41.129 36.2875 40.8667ZM7.77068 32.6836C7.86774 32.66 7.9313 32.7102 7.99948 32.7455C8.35539 32.9286 8.7113 33.1106 9.06374 33.2996C10.2985 33.9617 11.5147 34.6527 12.6621 35.4581C13.311 35.9128 13.9702 36.3525 14.6214 36.8044C14.7508 36.8939 14.8831 36.9378 15.0409 36.9326C15.2621 36.9251 15.4846 36.932 15.7059 36.9292C15.9393 36.9263 15.9532 36.9043 15.8827 36.6761C15.8763 36.6553 15.8688 36.6356 15.8619 36.6154C15.5655 35.7297 15.0322 35.015 14.2724 34.4707C12.2485 33.0205 9.97085 32.3641 7.49161 32.3474C7.45579 32.3474 7.41939 32.3462 7.38414 32.3508C7.28245 32.3653 7.26223 32.4017 7.30268 32.4953C7.31654 32.5276 7.33677 32.5577 7.35525 32.5877C8.00757 33.6358 8.72112 34.6388 9.57219 35.5396C10.0494 36.0446 10.5781 36.4877 11.19 36.8275C11.3125 36.8951 11.4355 36.9326 11.5771 36.932C12.3993 36.9292 13.222 36.9309 14.0448 36.9297C14.0973 36.9292 14.1592 36.9505 14.2187 36.876C13.1689 36.1318 12.1612 35.338 11.0802 34.6435C10.0003 33.9501 8.88117 33.3238 7.77068 32.6836ZM11.3015 16.9525C11.2137 17.0074 11.194 17.0715 11.1617 17.1252C10.9011 17.5586 10.6659 18.0058 10.4516 18.4634C10.0003 19.4271 9.64268 20.422 9.45952 21.4736C9.43063 21.6388 9.45721 21.7752 9.5589 21.9121C9.82121 22.2675 10.0714 22.6315 10.3279 22.9908C10.3539 23.0267 10.3649 23.0891 10.4481 23.0746C10.4943 22.6615 10.5371 22.2449 10.5891 21.8301C10.7607 20.455 10.9617 19.0845 11.1819 17.7163C11.1923 17.6516 11.1957 17.5828 11.2558 17.5274C11.2945 17.6187 11.2697 17.6955 11.2616 17.7724C11.1825 18.4784 11.1021 19.1839 11.027 19.8905C10.9583 20.5405 10.8895 21.1899 10.8329 21.8411C10.7884 22.3507 10.7618 22.8614 10.7301 23.3722C10.7243 23.4635 10.7162 23.5588 10.7682 23.642C10.9444 23.9263 11.1218 24.21 11.2997 24.4925C11.3044 24.5006 11.3252 24.4988 11.339 24.5017C11.3841 24.4815 11.391 24.437 11.4061 24.3977C11.6129 23.8523 11.8313 23.3115 12.074 22.7805C12.1404 22.6355 12.1606 22.4818 12.1629 22.3235C12.171 21.8041 12.1312 21.2864 12.0665 20.7722C11.9237 19.6288 11.6903 18.5009 11.413 17.3829C11.3789 17.246 11.3419 17.1096 11.3015 16.9525ZM36.7653 31.9996C36.763 31.8736 36.7306 31.8522 36.6047 31.8979C36.5712 31.91 36.5394 31.9268 36.507 31.9418C35.6704 32.3248 34.8349 32.7108 33.996 33.0892C33.8597 33.1505 33.7817 33.2296 33.7533 33.3804C33.6395 33.9912 33.3749 34.5383 33.0161 35.0433C32.9832 35.0895 32.9491 35.1357 32.9254 35.1866C32.9075 35.2247 32.9317 35.2553 32.9733 35.2628C33.0329 35.2732 33.086 35.249 33.138 35.2253C33.2807 35.1606 33.4217 35.0901 33.5667 35.0306C33.7008 34.9757 33.788 34.8861 33.8377 34.7492C33.9076 34.5556 34.0012 34.3713 34.0983 34.1893C34.4929 33.4538 35.0476 32.8812 35.8137 32.5219C36.0662 32.4034 36.3273 32.3092 36.5949 32.2301C36.7399 32.1862 36.767 32.1417 36.7653 31.9996ZM47.2832 24.7352C47.3086 24.8132 47.2722 24.8617 47.2496 24.9108C47.1462 25.1373 47.0422 25.3632 46.9353 25.588C46.7204 26.0375 46.5049 26.4864 46.2674 26.9249C46.1912 27.0653 46.2131 27.1006 46.3651 27.115C46.6638 27.1439 46.9625 27.174 47.2618 27.1971C47.4438 27.2115 47.4721 27.1867 47.5154 27.0145C47.5247 26.9804 47.5299 26.9446 47.5368 26.9099C47.6847 26.1796 47.6888 25.4412 47.657 24.7016C47.6512 24.5532 47.6316 24.4041 47.6119 24.2568C47.5819 24.0378 47.5461 24.0193 47.3589 24.1285C47.2352 24.2001 47.1145 24.2764 46.9954 24.3556C46.0144 25.0102 45.176 25.8225 44.3914 26.6932C44.3579 26.7302 44.3261 26.7684 44.2937 26.8071C44.2406 26.8706 44.2643 26.9128 44.3371 26.929C44.392 26.9411 44.4503 26.9417 44.5069 26.9469C44.92 26.9833 45.3332 27.0162 45.7457 27.0572C45.9988 27.0827 46.0063 27.0844 46.1357 26.8596C46.498 26.2299 46.8227 25.5804 47.1491 24.9322C47.1826 24.8663 47.2034 24.7889 47.2832 24.7352ZM32.1928 34.4597C32.2032 34.6544 32.2396 34.878 32.3112 35.0947C32.3285 35.1467 32.332 35.2195 32.4037 35.2236C32.4701 35.227 32.4909 35.1583 32.5204 35.1126C32.707 34.8266 32.8873 34.5366 33.0785 34.2541C33.3772 33.8138 33.3882 33.3036 33.4477 32.8056C33.4575 32.7241 33.4015 32.7108 33.335 32.7484C33.3102 32.7622 33.2871 32.779 33.264 32.7957C32.9525 33.0263 32.6781 33.2932 32.4505 33.6069C32.2719 33.8525 32.1957 34.1275 32.1928 34.4597ZM23.3112 36.9274C23.2782 36.8858 23.2725 36.8708 23.2609 36.8656C22.7201 36.6096 22.1787 36.3549 21.6379 36.0995C21.5703 36.0677 21.5039 36.0596 21.4311 36.0868C21.1844 36.1798 20.9365 36.2688 20.6898 36.3612C20.6355 36.3814 20.5765 36.4103 20.5725 36.4733C20.5627 36.6108 20.6037 36.742 20.6713 36.8587C20.7268 36.9552 20.8365 36.9257 20.9261 36.9263C21.6321 36.928 22.3382 36.9274 23.0448 36.9274H23.3112ZM5.29374 25.7763C5.06032 25.3464 4.79859 24.9634 4.33925 24.7883C3.8649 24.608 3.3709 24.6329 2.88152 24.7444C2.77232 24.7687 2.75961 24.8207 2.84397 24.8842C3.27672 25.2118 3.70197 25.5521 4.2653 25.6411C4.51894 25.681 4.77028 25.7388 5.02334 25.7838C5.09903 25.7971 5.17703 25.8202 5.29374 25.7763ZM14.2528 31.6436C14.4475 31.3923 14.5856 31.1317 14.6665 30.8423C14.7265 30.6262 14.7323 30.4049 14.6797 30.1888C14.5885 29.8144 14.4348 29.4631 14.2314 29.1344C14.2077 29.0962 14.1933 29.039 14.1118 29.0488C13.9928 29.362 13.9182 29.6919 13.8599 30.027C13.8102 30.3113 13.8489 30.5736 13.9772 30.8319C14.0748 31.0295 14.1407 31.2398 14.1753 31.4593C14.184 31.5131 14.1869 31.5726 14.2528 31.6436ZM48.3359 25.4788C48.3729 25.4626 48.389 25.4603 48.3965 25.451C48.4272 25.4123 48.4572 25.3719 48.4844 25.3303C48.8409 24.7808 49.3343 24.459 50.0022 24.4249C50.1229 24.4185 50.2194 24.3648 50.3055 24.2833C50.5846 24.017 50.7683 23.6894 50.922 23.3427C50.9307 23.3231 50.9365 23.3023 50.9411 23.2815C50.9532 23.2196 50.9255 23.1832 50.8642 23.1809C50.8221 23.1786 50.7787 23.1856 50.7371 23.1931C50.2339 23.2867 49.7572 23.4536 49.3089 23.7004C48.608 24.0863 48.4335 24.7502 48.3359 25.4788ZM45.2049 35.992C45.2049 36.2404 45.2009 36.4895 45.2066 36.7385C45.2095 36.8887 45.2413 36.9153 45.3875 36.898C45.8659 36.8402 46.2772 36.6518 46.6089 36.2953C46.8498 36.0359 46.8591 35.7516 46.7372 35.4448C46.6834 35.3108 46.5979 35.1964 46.4985 35.093C46.2992 34.8856 46.0577 34.7324 45.8168 34.5782C45.7249 34.5192 45.6596 34.5447 45.5984 34.6256C45.5036 34.7504 45.4065 34.8734 45.306 34.9942C45.2344 35.0803 45.202 35.1762 45.2037 35.2883C45.2066 35.5228 45.2049 35.7574 45.2049 35.992ZM7.71059 27.8216C7.66899 27.839 7.5985 27.7939 7.56557 27.8621C7.54014 27.9152 7.58694 27.9557 7.61468 27.9944C7.71752 28.1394 7.82614 28.2804 7.92783 28.426C8.32592 28.9974 8.93548 29.2673 9.53983 29.5434C9.63748 29.5879 9.67503 29.5538 9.65539 29.4481C9.61263 29.217 9.5329 28.9968 9.42543 28.7871C9.28908 28.5225 9.10765 28.2983 8.84303 28.151C8.49463 27.9569 8.11272 27.8719 7.71059 27.8216ZM20.9712 35.2675C20.9723 35.1386 20.907 35.0861 20.8637 35.0248C20.5165 34.5296 20.2559 33.9964 20.1444 33.3989C20.1172 33.2533 20.0467 33.1644 19.9081 33.1002C19.0529 32.705 18.2013 32.3012 17.3479 31.9019C17.2867 31.873 17.2168 31.8025 17.1532 31.8574C17.0885 31.9123 17.1278 32.0048 17.1318 32.081C17.1353 32.1544 17.1867 32.1937 17.252 32.2151C17.3196 32.2382 17.3884 32.2572 17.4565 32.278C18.5474 32.6103 19.3488 33.2799 19.8514 34.2997C19.9208 34.4401 19.9837 34.5834 20.049 34.7255C20.0791 34.7902 20.1062 34.8584 20.1738 34.8931C20.4263 35.0231 20.6805 35.1496 20.9712 35.2675ZM48.0967 30.703C48.1891 30.6008 48.2665 30.521 48.3376 30.4355C48.6953 30.0051 49.1326 29.7035 49.6971 29.6122C49.856 29.5862 49.9716 29.4972 50.075 29.3863C50.3309 29.1118 50.5187 28.7946 50.6591 28.4497C50.7273 28.2827 50.6915 28.2417 50.5141 28.2706C50.0733 28.3428 49.6607 28.4988 49.2551 28.682C48.7536 28.909 48.4445 29.2956 48.2665 29.8005C48.1955 30.0022 48.1394 30.2079 48.1111 30.4199C48.1001 30.5014 48.0626 30.5817 48.0967 30.703ZM14.2955 32.5068L14.2949 32.512C14.2377 32.5086 14.1811 32.5045 14.1239 32.5016C13.9558 32.4936 13.9454 32.4982 13.8974 32.6565C13.8466 32.8264 13.7981 32.9968 13.7553 33.169C13.6917 33.4244 13.7957 33.693 14.0118 33.8375C14.2372 33.9883 14.4602 34.1408 14.6751 34.306C14.7982 34.4014 14.8456 34.3817 14.8641 34.228C14.923 33.7352 14.9785 33.2424 15.0322 32.7489C15.0472 32.6097 15.0143 32.5727 14.871 32.5577C14.6792 32.538 14.4873 32.5236 14.2955 32.5068ZM39.5831 32.508C39.3913 32.5248 39.1989 32.5386 39.0077 32.5588C38.8707 32.5733 38.8493 32.6022 38.8632 32.738C38.8852 32.9569 38.9112 33.1753 38.936 33.3937C38.9678 33.6757 38.9949 33.9582 39.0336 34.2396C39.0539 34.384 39.0937 34.3956 39.2128 34.3113C39.4167 34.1674 39.6166 34.0177 39.8223 33.8773C40.121 33.6734 40.2135 33.4365 40.1187 33.0939C40.0962 33.0118 40.0742 32.9298 40.0517 32.8477C39.9552 32.4947 39.9552 32.4947 39.5831 32.508ZM46.1704 27.8228C45.8688 27.8592 45.5706 27.9239 45.2829 28.0377C44.9518 28.1689 44.6993 28.3884 44.5196 28.6929C44.3885 28.9154 44.3041 29.1557 44.2475 29.4059C44.2371 29.4521 44.2036 29.5064 44.2498 29.5463C44.2955 29.5856 44.3452 29.5492 44.3891 29.5301C44.6323 29.4267 44.8605 29.2932 45.0969 29.1765C45.6394 28.9084 45.9705 28.4376 46.3009 27.9638C46.3131 27.9464 46.3241 27.9274 46.3293 27.9072C46.3397 27.8673 46.3252 27.8361 46.2819 27.8292C46.2466 27.8234 46.2108 27.8245 46.1704 27.8228ZM39.7773 29.0356C39.7085 29.0506 39.6917 29.0841 39.6738 29.113C39.4664 29.4562 39.3041 29.819 39.2081 30.2073C39.1602 30.4026 39.1688 30.6025 39.2151 30.7989C39.2775 31.0659 39.4023 31.3039 39.5571 31.5281C39.5831 31.5656 39.5981 31.6234 39.675 31.6159C39.6883 31.572 39.7085 31.5264 39.716 31.4784C39.7484 31.2594 39.8073 31.0451 39.9096 30.8498C40.0586 30.5649 40.0881 30.2743 40.0257 29.9629C39.9633 29.6497 39.894 29.3406 39.7773 29.0356ZM46.1709 24.4728C46.2593 24.444 46.3113 24.3937 46.368 24.3521C46.7412 24.0759 47.122 23.809 47.5507 23.6264C47.7413 23.5449 47.8355 23.4282 47.8898 23.2318C48.177 22.197 48.374 21.1443 48.5554 20.0875C48.5641 20.0367 48.5849 19.98 48.5427 19.9234C48.4855 19.9783 48.4705 20.0488 48.4433 20.1118C48.1787 20.7254 47.9031 21.3338 47.6004 21.9295C47.2138 22.6916 46.7776 23.4236 46.268 24.1117C46.1929 24.2134 46.1039 24.3122 46.1709 24.4728ZM5.34921 19.9165C5.30645 19.9725 5.32668 20.0222 5.33534 20.0684C5.43299 20.6064 5.52543 21.1448 5.63348 21.6804C5.74499 22.2374 5.87557 22.7904 6.0385 23.3352C6.07028 23.4432 6.11823 23.5264 6.22974 23.5727C6.70121 23.7691 7.11952 24.0534 7.52801 24.355C7.56788 24.3844 7.60717 24.4156 7.64934 24.4416C7.71059 24.4786 7.74179 24.4572 7.74641 24.3879C7.75392 24.2793 7.69325 24.2001 7.63317 24.1198C7.35294 23.7425 7.09352 23.3514 6.85259 22.9481C6.30774 22.0364 5.86517 21.0749 5.44628 20.102C5.41912 20.0396 5.4041 19.9696 5.34921 19.9165ZM35.7715 36.9274C36.258 36.9274 36.7439 36.9274 37.2304 36.9268C37.5326 36.9268 37.5326 36.9263 37.6135 36.6478C37.6314 36.5865 37.6458 36.5236 37.6701 36.4646C37.7082 36.3693 37.6782 36.3023 37.5996 36.2433C36.9334 35.7401 36.2678 35.2369 35.6034 34.7313C35.519 34.6666 35.4405 34.6602 35.3463 34.7059C35.1082 34.8203 34.8696 34.9341 34.6275 35.0398C34.4917 35.0988 34.4155 35.1947 34.3704 35.3322C34.2549 35.684 34.1537 36.0388 34.0769 36.4011C34.0521 36.5189 34.0226 36.6368 34.0053 36.7558C33.9891 36.872 34.0249 36.9112 34.1416 36.924C34.1982 36.9297 34.2554 36.9268 34.3126 36.9268C34.7991 36.9268 35.2856 36.9274 35.7715 36.9274ZM5.70628 30.7048C5.71783 30.1495 5.44281 29.425 5.10019 29.0691C5.01583 28.9812 4.92628 28.8992 4.82112 28.8374C4.34157 28.5572 3.82965 28.3648 3.28134 28.27C3.10917 28.2405 3.07219 28.2873 3.14094 28.4555C3.26574 28.7594 3.43214 29.0396 3.64188 29.2956C3.7869 29.4724 3.95445 29.5972 4.18903 29.637C4.66801 29.7173 5.04761 29.9721 5.36423 30.3292C5.46765 30.4465 5.57454 30.5603 5.70628 30.7048ZM46.8313 29.0904C46.8238 29.0581 46.7967 29.0454 46.7695 29.0396C46.4748 28.9749 46.1761 28.9628 45.8757 28.9801C45.8237 28.983 45.7804 29.0078 45.7393 29.0373C45.3961 29.2823 45.0246 29.4799 44.6497 29.6694C44.5012 29.7451 44.4053 29.8606 44.3307 30.001C44.3111 30.038 44.2816 30.0773 44.3145 30.1177C44.3405 30.1495 44.3804 30.1356 44.4151 30.1293C44.8149 30.0559 45.2205 29.9993 45.607 29.8733C46.0745 29.7208 46.4673 29.4377 46.8285 29.1107C46.8325 29.1072 46.8308 29.0974 46.8313 29.0904ZM48.5416 25.7856C48.6155 25.826 48.6941 25.7965 48.7686 25.7844C48.9657 25.7532 49.1609 25.7035 49.3591 25.6775C49.8416 25.6145 50.2581 25.4065 50.6418 25.1211C50.7163 25.0656 50.7914 25.0108 50.866 24.9559C50.8943 24.9345 50.9243 24.9143 50.9503 24.8906C51.0347 24.8143 51.0295 24.7802 50.9278 24.745C50.8937 24.7334 50.859 24.7248 50.8238 24.719C50.476 24.6618 50.1287 24.6444 49.778 24.7022C49.1465 24.8068 48.79 25.2251 48.5335 25.7624C48.5317 25.7665 48.5381 25.7752 48.5416 25.7856Z" fill="#E13B22"/>
</g>
<defs>
<clipPath id="clip0_47_4231">
<rect width="52" height="52" fill="white" transform="translate(0.856934)"/>
</clipPath>
</defs>
</svg>
