<svg width="174" height="14" viewBox="0 0 174 14" fill="none" xmlns="http://www.w3.org/2000/svg">
<path fill-rule="evenodd" clip-rule="evenodd" d="M110.385 5.56723C109.887 6.24182 109.387 6.91881 108.889 7.5934C108.78 7.73985 108.68 7.89109 108.566 8.03033C108.16 8.52487 108.048 8.53687 107.667 8.04473C107.149 7.37734 106.664 6.68595 106.163 6.00655C106.057 5.86491 105.94 5.73047 105.823 5.58643C105.518 5.72087 105.633 5.95614 105.633 6.13379C105.622 7.84548 105.633 9.55716 105.622 11.2713C105.615 12.1979 105.516 12.2916 104.553 12.3156C103.956 12.3324 103.357 12.3132 102.76 12.306C102.272 12.2964 102.003 12.0659 101.988 11.5977C101.978 11.3625 101.968 11.1272 101.968 10.8896C101.965 7.73265 101.965 4.57335 101.965 1.41404C101.965 1.35403 101.965 1.29641 101.968 1.23639C101.988 0.112871 102.059 0.0288483 103.268 0.0408517C105.734 0.0624578 105.163 -0.244831 106.542 1.71653C106.923 2.25908 107.284 2.81364 107.675 3.34899C108.061 3.87955 108.16 3.88435 108.531 3.3658C109.105 2.55437 109.686 1.74774 110.207 0.905095C110.596 0.273714 111.096 -0.0407663 111.886 0.0288535C112.384 0.0720659 112.892 0.0240508 113.394 0.0480576C114.042 0.0792665 114.162 0.18969 114.23 0.773056C114.255 1.00592 114.248 1.2436 114.248 1.48126C114.25 4.60936 114.25 7.73985 114.248 10.8679C114.248 11.0168 114.25 11.1632 114.243 11.3121C114.202 12.1643 114.085 12.2844 113.194 12.3156C112.66 12.3348 112.125 12.3348 111.594 12.3156C110.728 12.282 110.608 12.1787 110.601 11.3745C110.585 9.75162 110.596 8.12876 110.593 6.5059V5.62964C110.524 5.60804 110.456 5.58883 110.385 5.56723ZM76.3912 7.47577C76.0432 7.73264 75.9543 8.05914 75.7968 8.33762C74.8139 10.0925 73.704 11.7706 72.3553 13.2998C71.6899 14.0536 71.6137 14.0512 70.7501 13.4631C70.3183 13.1678 69.8866 12.8725 69.4649 12.5652C68.8046 12.0827 68.7893 12.0467 69.31 11.4633C70.2802 10.371 71.1413 9.21387 71.9058 7.98712C72.5357 6.97163 72.3858 7.04125 71.6391 6.4915C70.6688 5.77609 69.9907 4.88303 69.8078 3.6995C69.5665 2.16786 70.2929 0.95071 71.8194 0.386549C72.4722 0.148881 73.1528 0.0408517 73.8488 0.0408517C75.5784 0.038451 77.3055 0.0312489 79.0352 0.0408517C79.9597 0.045653 80.0384 0.112876 80.2924 0.919507C80.4168 1.31562 80.5235 1.71653 80.6353 2.11745C80.7242 2.43434 80.7851 2.73681 80.5032 3.02729C80.201 3.33938 80.2899 3.75471 80.2899 4.13162C80.2822 6.37386 80.2899 8.6185 80.2848 10.8631C80.2822 12.2723 80.2314 12.3156 78.7659 12.3228C78.3265 12.3252 77.8846 12.3348 77.4478 12.3107C76.7163 12.2699 76.5766 12.1547 76.5512 11.4489C76.5156 10.4742 76.5385 9.50195 76.5258 8.52727C76.5207 8.20798 76.5918 7.87908 76.3912 7.47577ZM76.5055 4.71499C76.5309 2.96969 76.6528 2.90967 74.6869 2.98169C73.7954 3.0129 73.5262 3.51465 74.0062 4.23245C74.499 4.97186 75.2304 5.4856 75.9949 5.95373C76.3023 6.14099 76.4775 5.97775 76.5004 5.68486C76.5258 5.36317 76.5055 5.03668 76.5055 4.71499ZM96.3748 4.84222C96.0421 4.7774 95.9176 4.97906 95.7653 5.1135C94.8941 5.87932 94.0382 6.66434 93.1594 7.42296C92.7352 7.78786 92.5346 8.20798 92.5472 8.75054C92.5676 9.60758 92.565 10.4646 92.5396 11.3217C92.5168 12.1667 92.3822 12.2916 91.4831 12.3156C90.8557 12.3324 90.2284 12.3156 89.5985 12.2963C89.1515 12.2843 88.9025 12.0683 88.9051 11.629C88.9076 11.4225 88.8949 11.216 88.8949 11.0096C88.8949 7.79026 88.8949 4.57095 88.8949 1.35163C88.8949 1.20279 88.8924 1.05394 88.9 0.907497C88.9407 0.18489 89.0346 0.0768659 89.7763 0.0480576C90.4036 0.0240508 91.0335 0.0240495 91.6608 0.0456556C92.3593 0.0720632 92.4888 0.182495 92.5295 0.83068C92.5676 1.39004 92.5422 1.9518 92.5523 2.51356C92.5574 2.77284 92.5142 3.0417 92.6539 3.27937C92.9917 3.33939 93.1162 3.08972 93.2838 2.93848C94.1474 2.16306 95.0109 1.38283 95.8542 0.5906C96.2555 0.211291 96.6999 0.00964935 97.279 0.0312555C97.9394 0.0576631 98.6023 0.0216514 99.2601 0.0504596C99.8976 0.0744665 100.012 0.196889 100.078 0.789858C100.101 0.996317 100.096 1.20278 100.096 1.40924C100.098 4.57094 100.098 7.73025 100.096 10.892C100.096 11.1272 100.086 11.3649 100.075 11.6001C100.058 12.0659 99.7909 12.3012 99.3008 12.3036C98.6404 12.3108 97.9775 12.3348 97.3197 12.306C96.578 12.2723 96.4586 12.1571 96.4485 11.4393C96.4307 9.96289 96.451 8.48646 96.4358 7.01004C96.4282 6.28503 96.5094 5.55042 96.3748 4.84222ZM169.711 7.2405C169.282 7.98952 168.86 8.74573 168.421 9.48755C167.593 10.8847 166.64 12.2003 165.546 13.4223C165.007 14.0224 164.918 14.0272 164.222 13.5711C163.709 13.2326 163.199 12.8869 162.706 12.522C162.129 12.0995 162.114 11.9987 162.602 11.4609C163.567 10.4022 164.405 9.26429 165.154 8.06635C165.266 7.8887 165.368 7.70383 165.474 7.52378C165.655 7.2165 165.591 6.97163 165.292 6.75317C164.994 6.53711 164.707 6.30665 164.436 6.06418C163.951 5.63205 163.572 5.1255 163.331 4.53733C162.495 2.51355 163.521 0.684239 165.772 0.1993C166.137 0.120078 166.516 0.0576512 166.887 0.0528498C168.741 0.036045 170.595 0.0312385 172.449 0.0432419C173.257 0.0480433 173.333 0.122477 173.566 0.849884C173.686 1.21719 173.795 1.58689 173.894 1.959C174.001 2.35751 174.13 2.73681 173.709 3.09451C173.442 3.32258 173.546 3.7091 173.546 4.03079C173.541 6.27303 173.544 8.51527 173.541 10.7575C173.541 11.024 173.551 11.2905 173.531 11.5545C173.483 12.1451 173.373 12.2699 172.726 12.3036C172.068 12.3372 171.405 12.3372 170.747 12.3084C170.021 12.2747 169.886 12.1451 169.871 11.4369C169.851 10.2582 169.861 9.07703 169.861 7.89589V7.28373C169.813 7.26932 169.762 7.25491 169.711 7.2405ZM169.848 4.64057C169.851 2.98649 170.089 2.91447 168.06 2.97929C167.151 3.0081 166.854 3.56025 167.349 4.29246C167.847 5.02947 168.593 5.52881 169.36 5.99214C169.67 6.1794 169.833 5.99455 169.843 5.69927C169.858 5.34636 169.848 4.99347 169.848 4.64057ZM126.754 6.165C126.754 7.84788 126.759 9.53076 126.752 11.2136C126.747 12.2315 126.665 12.3011 125.555 12.3204C125.019 12.33 124.486 12.3372 123.953 12.3084C123.264 12.2699 123.125 12.1427 123.094 11.5089C123.064 10.9208 123.079 10.3302 123.079 9.73962C123.076 7.82148 123.084 5.90333 123.074 3.98518C123.069 3.10893 122.957 3.0129 122.048 2.99369C121.578 2.98409 121.106 2.99129 120.636 3.0009C120.186 3.0105 119.937 3.22656 119.919 3.65628C119.909 3.92276 119.902 4.18923 119.904 4.45331C119.912 6.81318 119.907 9.17546 119.947 11.5353C119.955 12.0731 119.785 12.4308 119.297 12.6997C118.703 13.0286 118.136 13.4079 117.545 13.7392C116.973 14.0585 116.795 13.9984 116.569 13.4103C116.201 12.4524 116.16 11.4345 116.145 10.4406C116.099 7.31252 116.117 4.18443 116.132 1.05394C116.135 0.156079 116.27 0.0432524 117.242 0.0408517C120.039 0.0312489 122.833 0.0312489 125.629 0.0408517C126.66 0.045653 126.744 0.132072 126.752 1.11875C126.762 2.80163 126.754 4.48452 126.754 6.165ZM55.9808 6.22261C55.9808 7.90549 55.9884 9.58837 55.9757 11.2713C55.9706 12.1859 55.8538 12.2915 54.8963 12.318C54.3299 12.3324 53.7635 12.3372 53.1996 12.3084C52.4428 12.2723 52.3183 12.1643 52.3056 11.4609C52.2853 10.2822 52.3031 9.10104 52.2929 7.9199C52.2853 6.92601 52.2066 6.85159 51.1728 6.83239C50.7639 6.82519 50.355 6.82039 49.9486 6.83719C49.2044 6.8684 49.047 6.99083 49.0419 7.67262C49.0317 8.76253 48.9733 9.85725 49.113 10.9472C49.1409 11.18 49.1409 11.4177 49.1663 11.653C49.2095 12.0419 49.0825 12.342 48.7168 12.5532C48.0488 12.9421 47.396 13.3551 46.7154 13.7224C46.2074 13.996 46.0042 13.9168 45.7959 13.3887C45.4734 12.5772 45.387 11.713 45.3769 10.8607C45.3438 7.5862 45.3515 4.30687 45.3642 1.02994C45.3667 0.168093 45.5038 0.0624578 46.4055 0.0408517C46.9389 0.0288483 47.4748 0.0264476 48.0082 0.0408517C48.92 0.0672592 49.0089 0.153682 49.0266 1.03954C49.0419 1.66131 49.019 2.28069 49.0393 2.90007C49.0597 3.63948 49.1892 3.75711 49.9943 3.78112C50.4972 3.79552 51.0001 3.80032 51.503 3.77391C52.1278 3.7379 52.2624 3.60826 52.2853 3.01049C52.3132 2.30229 52.2802 1.59169 52.3056 0.883489C52.331 0.177687 52.4428 0.0744639 53.2047 0.0456556C53.8321 0.0240495 54.462 0.0240508 55.0893 0.0480576C55.8233 0.0744652 55.9554 0.194493 55.9706 0.907497C55.996 2.02862 55.9808 3.15213 55.9808 4.27325C55.9833 4.92144 55.9808 5.57203 55.9808 6.22261ZM33.2515 6.13619C33.2515 4.48212 33.2439 2.83044 33.2541 1.17877C33.2617 0.13687 33.3506 0.045653 34.4199 0.0408517C36.4924 0.0288483 38.5675 0.0312489 40.64 0.0408517C41.5975 0.045653 41.6534 0.0960672 41.9607 0.977119C42.0674 1.28681 42.1639 1.59889 42.2579 1.91098C42.55 2.88086 42.4916 2.95527 41.3766 2.96248C40.2793 2.97208 39.1796 2.96489 38.0798 2.96729C37.8589 2.96969 37.6379 2.96968 37.422 2.99609C37.1426 3.0297 36.9521 3.17375 36.9597 3.45943C36.9699 3.74991 37.1807 3.87714 37.455 3.89634C37.7979 3.92275 38.1433 3.91796 38.4887 3.92276C38.8367 3.92516 39.1847 3.92276 39.4971 4.09321C40.9168 4.86863 42.2604 5.73287 43.2256 7.02204C43.7844 7.77105 44.079 8.5921 43.9647 9.52116C43.8047 10.8103 43.0757 11.629 41.7525 11.9843C40.8686 12.2195 39.9542 12.2771 39.0475 12.3036C37.4779 12.3492 35.9057 12.3324 34.3361 12.3156C33.3811 12.306 33.2617 12.1859 33.2566 11.2689C33.2439 9.55958 33.2541 7.84788 33.2515 6.13619ZM38.3821 9.29309C38.5395 9.29309 38.6945 9.30029 38.8519 9.29069C39.2228 9.26668 39.6342 9.29309 39.8044 8.88258C39.9542 8.51767 39.8171 8.18637 39.5834 7.89349C39.2456 7.46617 38.8519 7.07966 38.3516 6.82518C37.5287 6.40266 36.9369 6.71716 36.8937 7.5742C36.8861 7.69183 36.8886 7.80947 36.8886 7.9271C36.8835 9.23788 36.9547 9.30269 38.3821 9.29309ZM57.3244 7.79987C57.3676 5.73048 57.9568 3.84114 59.4579 2.26629C60.7938 0.864289 62.5438 0.273714 64.4741 0.098464C65.3453 0.0168406 66.2317 0.0624474 67.1105 0.0432419C67.5854 0.0312385 67.8801 0.235304 68.002 0.667428C68.1468 1.18117 68.3068 1.69252 68.4414 2.20626C68.4947 2.40312 68.5938 2.6456 68.4338 2.80644C67.9613 3.27938 68.0883 3.85554 68.0858 4.4029C68.0756 6.67635 68.0883 8.94979 68.0782 11.2232C68.0756 12.2099 67.9842 12.2939 66.9632 12.318C66.3968 12.33 65.8304 12.3372 65.2665 12.3036C64.5935 12.2627 64.4563 12.1307 64.4258 11.4825C64.3903 10.7743 64.4208 10.0661 64.3979 9.35791C64.3751 8.60649 64.2481 8.49367 63.4531 8.47206C62.9172 8.45766 62.3838 8.45284 61.8504 8.47685C61.1926 8.50566 61.0199 8.70733 61.1393 9.33151C61.279 10.0589 61.5533 10.7503 61.8936 11.4201C62.3051 12.2243 62.2898 12.2483 61.4847 12.7669C61.0427 13.0502 60.6008 13.331 60.1436 13.5927C59.5188 13.9504 59.3868 13.9288 59.021 13.3478C57.9416 11.641 57.299 9.80924 57.3244 7.79987ZM62.8384 5.51921C64.4055 5.51921 64.4843 5.4424 64.403 3.96597C64.3979 3.87715 64.3954 3.78832 64.3877 3.6995C64.3573 3.30338 64.1211 3.20015 63.7401 3.30818C63.1229 3.48584 62.5997 3.80993 62.2035 4.28526C61.9444 4.59495 61.4745 4.91424 61.698 5.34156C61.8809 5.68726 62.3863 5.46881 62.7445 5.51682C62.7749 5.52162 62.808 5.51921 62.8384 5.51921ZM157.631 4.70298C156.438 5.7977 155.315 6.82038 154.202 7.85268C153.936 8.09995 153.933 8.43845 153.931 8.76734C153.931 9.65079 153.941 10.5366 153.923 11.4225C153.903 12.1739 153.791 12.2795 152.976 12.3107C152.379 12.3348 151.779 12.3372 151.183 12.3084C150.459 12.2723 150.342 12.1427 150.286 11.4393C150.273 11.2641 150.276 11.0864 150.276 10.9088C150.273 7.74945 150.273 4.59015 150.276 1.43085C150.276 1.22439 150.271 1.01552 150.291 0.811464C150.357 0.177683 150.471 0.0696625 151.183 0.0456556C151.812 0.0240495 152.442 0.0240508 153.07 0.0480576C153.773 0.0768659 153.89 0.184888 153.918 0.837874C153.943 1.48606 153.926 2.13665 153.933 2.78724C153.936 2.95769 153.898 3.14253 154.04 3.30098C154.309 3.40661 154.436 3.18574 154.581 3.05611C155.498 2.24708 156.417 1.44045 157.306 0.605012C157.735 0.201696 158.205 -0.00235408 158.817 0.0312555C159.318 0.0600637 159.823 0.028847 160.324 0.0384497C161.378 0.0552545 161.467 0.127269 161.472 1.09475C161.484 2.89526 161.477 4.69579 161.477 6.4987C161.477 8.09276 161.484 9.68679 161.474 11.2808C161.467 12.1979 161.362 12.2916 160.39 12.3156C159.826 12.3324 159.257 12.3372 158.693 12.306C158.017 12.2675 157.89 12.1355 157.835 11.4969C157.809 11.2328 157.817 10.9664 157.817 10.6999C157.817 9.07704 157.819 7.45176 157.812 5.8289C157.812 5.50961 157.88 5.17832 157.631 4.70298ZM20.9002 6.24902C20.9002 7.9319 20.9078 9.61238 20.8976 11.2929C20.89 12.2027 20.7859 12.2939 19.8055 12.318C19.2391 12.3324 18.6727 12.3372 18.1088 12.3036C17.4383 12.2651 17.3062 12.1331 17.2605 11.4897C17.2301 11.0792 17.2554 10.6639 17.2377 10.251C17.2046 9.49475 17.0929 9.38672 16.3208 9.31229C15.9144 9.27388 15.508 9.23787 15.1042 9.18026C12.2773 8.77214 10.5172 6.61633 10.8397 3.93956C10.9845 2.75603 11.4646 1.66131 11.9268 0.561799C12.0716 0.220902 12.3332 0.0504596 12.7218 0.0504596C13.3796 0.0480589 14.0425 0.0216422 14.7003 0.0552518C15.3125 0.08406 15.4242 0.232901 15.2134 0.79226C14.8553 1.73813 14.5175 2.684 14.3752 3.68749C14.294 4.26365 14.3727 4.80621 14.6241 5.32476C14.8731 5.8385 15.3175 6.1506 15.8865 6.31384C16.8719 6.59472 17.2275 6.36185 17.2377 5.38717C17.2529 3.97317 17.2326 2.55676 17.2478 1.14036C17.2605 0.136873 17.3647 0.0504531 18.4568 0.0384497C18.9597 0.0312476 19.4626 0.0240364 19.9655 0.0432419C20.7681 0.0744508 20.8849 0.172881 20.8925 0.941101C20.9103 2.71041 20.9002 4.47972 20.9002 6.24902ZM22.8584 6.13619C22.8584 4.48212 22.8508 2.83044 22.8584 1.17877C22.866 0.122466 22.9371 0.045653 24.0115 0.0408517C25.957 0.0288483 27.9051 0.0288483 29.8507 0.0408517C30.7752 0.045653 30.8336 0.103266 31.0977 0.926701C31.1993 1.23639 31.2958 1.54849 31.3796 1.86298C31.6413 2.81605 31.5524 2.92408 30.4653 2.93848C29.6805 2.95048 28.8957 2.94087 28.1108 2.94327C27.8924 2.94327 27.6714 2.93848 27.4505 2.94809C26.6453 2.9889 26.2491 3.62508 26.6047 4.29967C26.752 4.58055 27.0263 4.62856 27.3209 4.62856C28.1693 4.63096 29.0176 4.63096 29.8659 4.63576C30.1148 4.63576 30.3662 4.64056 30.6177 4.65016C30.9885 4.66697 31.1333 4.87583 31.0393 5.18552C30.8564 5.8097 30.6482 6.42907 30.4272 7.04364C30.3078 7.37254 29.9903 7.45417 29.6652 7.46377C29.0074 7.48778 28.3471 7.48777 27.6892 7.50218C26.6758 7.52618 26.4599 7.74945 26.5336 8.66892C26.5793 9.24028 26.7088 9.38191 27.354 9.39632C28.4207 9.42032 29.49 9.40353 30.5567 9.40833C30.8387 9.40833 31.1231 9.41313 31.405 9.42513C31.7936 9.44193 32.0019 9.61718 31.8825 9.99648C31.687 10.6183 31.4812 11.2377 31.2603 11.8522C31.1282 12.2195 30.7879 12.2988 30.4272 12.306C29.8938 12.3204 29.3579 12.3228 28.8245 12.3228C27.3184 12.3252 25.8097 12.3276 24.3036 12.3228C22.8914 12.318 22.8609 12.2868 22.8584 11.0024C22.8533 9.37952 22.8559 7.75665 22.8584 6.13619ZM5.67874 5.69446C6.16131 4.20604 6.59563 2.85446 7.03757 1.50287C7.56332 -0.103188 7.41093 0.0480511 9.16344 0.0360477C9.57235 0.033647 9.98127 0.0384562 10.3902 0.0504596C10.7915 0.0648637 10.9617 0.256916 10.8474 0.633824C10.7864 0.83068 10.7102 1.02513 10.634 1.21959C9.45044 4.23725 8.2694 7.25731 7.07566 10.2726C6.76834 11.0456 6.45086 11.8186 5.9632 12.5124C5.37903 13.3478 4.57136 13.8496 3.50207 13.984C3.03728 14.0441 2.70709 13.9456 2.5293 13.5039C2.29563 12.9253 2.03149 12.3564 1.80036 11.7754C1.67845 11.4681 1.78766 11.2569 2.16102 11.2112C2.28802 11.1968 2.41501 11.1944 2.53692 11.1704C3.657 10.94 4.01258 10.371 3.60621 9.37471C2.5039 6.67394 1.38382 3.98038 0.273903 1.28441C-0.203592 0.120075 -0.147717 0.0432498 1.18063 0.0360477C1.65051 0.033647 2.12293 0.0600533 2.5928 0.0336457C3.23031 -0.00236455 3.56557 0.268907 3.7586 0.828267C4.21324 2.14864 4.71105 3.45463 5.19362 4.7654C5.29522 5.03668 5.34347 5.33196 5.67874 5.69446ZM139.299 7.5886C139.299 6.49629 139.306 5.40397 139.293 4.31166C139.288 3.79071 139.41 3.23856 138.913 2.82084C138.791 2.72001 138.819 2.54237 138.859 2.39833C139.032 1.77175 139.207 1.14277 139.398 0.518587C139.497 0.194495 139.763 0.0528603 140.114 0.0504596C141.998 0.0432576 143.893 -0.0887856 145.768 0.10567C148.325 0.369745 149.595 2.18706 148.991 4.54213C148.765 5.43039 148.269 6.1698 147.601 6.82039C146.56 7.84068 145.293 8.55367 143.924 9.08903C143.205 9.36991 142.865 9.76123 142.948 10.4934C142.989 10.8439 142.966 11.204 142.938 11.5569C142.89 12.1427 142.765 12.2723 142.125 12.3036C141.468 12.3372 140.805 12.3372 140.144 12.306C139.466 12.2723 139.324 12.1379 139.311 11.4873C139.288 10.1885 139.304 8.88737 139.304 7.5886H139.299ZM142.956 4.45092H142.981C142.981 4.83263 142.966 5.21672 142.986 5.59603C143.002 5.8553 143.195 5.98495 143.441 5.86732C144.208 5.50722 144.912 5.05828 145.26 4.28526C145.478 3.79552 145.333 3.30818 144.922 3.12333C144.394 2.88806 143.807 2.86406 143.284 3.07292C142.819 3.25537 142.994 3.73311 142.959 4.10042C142.946 4.21565 142.956 4.33328 142.956 4.45092ZM128.712 6.11699C128.712 4.43411 128.705 2.75362 128.717 1.07314C128.723 0.141673 128.814 0.0480433 129.789 0.0432419C131.801 0.0288378 133.81 0.0288378 135.819 0.0432419C136.627 0.0480433 136.71 0.122473 136.947 0.842678C137.086 1.2628 137.216 1.69012 137.315 2.12224C137.462 2.77763 137.363 2.90486 136.627 2.92887C135.842 2.95768 135.054 2.94087 134.27 2.94327C133.957 2.94327 133.642 2.93608 133.33 2.94809C132.512 2.9841 132.121 3.58906 132.461 4.28766C132.598 4.57335 132.868 4.62616 133.165 4.62856C133.919 4.63096 134.673 4.63096 135.425 4.63336C135.707 4.63576 135.992 4.62376 136.274 4.64057C136.931 4.68138 137.028 4.79901 136.855 5.42319C136.728 5.87932 136.548 6.32344 136.423 6.77957C136.294 7.2501 135.982 7.46856 135.479 7.47577C134.788 7.48537 134.097 7.49018 133.406 7.50698C133.063 7.51658 132.662 7.48298 132.504 7.84789C132.324 8.2632 132.314 8.71693 132.517 9.13465C132.654 9.41553 132.979 9.40352 133.264 9.40352C134.364 9.40832 135.461 9.40353 136.561 9.40833C137.937 9.41553 137.98 9.46593 137.551 10.7143C136.975 12.3828 137.208 12.3204 135.225 12.3228C133.622 12.3276 132.022 12.3252 130.419 12.3228C130.168 12.3228 129.916 12.33 129.667 12.3156C128.85 12.2699 128.74 12.1763 128.72 11.4249C128.7 10.7479 128.712 10.0685 128.712 9.38912C128.712 8.29921 128.712 7.2069 128.712 6.11699Z" fill="#E13B22"/>
</svg>
