<svg width="76" height="75" viewBox="0 0 76 75" fill="none" xmlns="http://www.w3.org/2000/svg">
<path fill-rule="evenodd" clip-rule="evenodd" d="M22.4183 35.2627C13.8056 33.6775 13.2772 19.5172 21.7315 16.5583C23.7393 15.8711 25.7471 15.8184 26.6454 16.3995C27.4907 16.9279 27.0154 18.0373 25.9586 18.0373C21.4146 18.0373 19.6179 27.8657 23.6862 30.4018C29.4985 33.9948 35.0993 26.2274 30.8195 20.6266C28.4417 17.5094 31.7709 15.66 34.624 18.5131C42.7083 26.5974 34.6766 37.5878 22.4183 35.2627ZM46.0975 40.9948C41.5535 42.1046 37.9605 46.7544 37.9605 51.5626C37.9078 61.8131 56.2426 62.9226 60.4167 52.8835C61.9492 49.2375 59.3072 43.7425 56.4538 44.4824C55.2385 44.7993 55.1855 44.9577 55.978 48.0754C57.3521 53.5177 51.2756 59.0127 46.89 56.4238C39.5457 52.091 44.6711 40.0964 52.4908 43.3725C54.446 44.2178 56.9822 44.0067 56.9822 43.0556C56.9822 41.259 50.4303 39.9911 46.0975 40.9948Z" fill="#323231"/>
</svg>
