<svg width="75" height="75" viewBox="0 0 75 75" fill="none" xmlns="http://www.w3.org/2000/svg">
<path d="M42.7695 35.3012C43.5831 35.3012 44.1363 34.9106 44.6896 33.8693C46.6747 30.1593 48.3019 29.8989 49.1805 33.0882C50.0592 36.2124 53.3788 36.5378 53.3788 33.5113C53.3788 30.1593 48.1066 27.4256 44.3316 28.7924C41.5328 29.8338 40.2311 35.3012 42.7695 35.3012Z" fill="#323231"/>
<path d="M25.3259 36.31C25.3259 33.4136 27.3111 32.242 28.2548 34.5526C29.3288 37.1236 31.2163 37.8721 31.9322 35.9845C33.2665 32.5349 26.107 29.1504 22.8851 31.6888C21.6159 32.6976 20.4769 35.6591 20.9325 36.8307C21.4858 38.2951 25.3259 37.807 25.3259 36.31Z" fill="#323231"/>
<path d="M27.5716 52.6467C36.2933 56.5194 45.1452 55.3478 50.9705 49.555C57.0887 43.4693 54.7456 37.1233 46.8375 38.3275C46.089 38.4251 43.8761 39.2387 41.956 40.1174C38.0508 41.8747 35.6425 42.0049 30.2403 40.7031C21.3559 38.6203 19.0777 48.9041 27.5716 52.6467ZM50.0919 40.8333C51.5889 42.7208 50.9055 45.9427 48.5949 48.1231C47.0653 49.555 47.2281 49.6852 46.1867 46.1054C45.7311 44.5107 45.2103 42.8835 45.0151 42.4605C44.4293 40.9635 49.0505 39.499 50.0919 40.8333ZM40.3288 43.0788C42.2489 42.5581 42.2489 42.5256 43.1276 46.7237C44.1039 51.3449 44.1039 51.41 42.4441 51.9958C39.2223 53.1348 39.5802 53.0697 38.7992 43.4693L40.3288 43.0788ZM32.5509 43.4368H36.1631C36.1631 50.2384 36.2609 50.1408 36.749 52.6141L34.9917 52.2886C32.2906 51.8005 32.5509 51.6052 32.5509 43.4368ZM28.8408 42.3628C29.9798 42.6557 30.468 50.694 29.3615 50.694C28.3201 50.694 25.9119 47.7326 25.5864 46.0077C25.0657 43.1764 26.3675 41.712 28.8408 42.3628Z" fill="#323231"/>
<path d="M48.7574 16.7836C43.648 14.2126 43.5179 15.189 48.3344 19.8752C63.4021 34.4873 59.3341 56.4868 41.2723 58.2767C27.246 59.6761 17.2551 51.0195 17.5155 38.0021C17.7107 27.6532 24.5123 16.8161 35.7074 15.5144C37.9529 15.254 38.018 15.189 37.0091 14.6357C35.447 13.757 30.891 13.9198 28.1247 14.8961C24.5124 16.1978 20.8349 18.8664 17.9711 22.316C10.7789 30.9075 11.56 44.4132 17.2226 52.4189C24.2846 62.4098 47.9438 64.1346 56.2424 55.2502C66.6564 44.1203 62.6861 23.813 48.7574 16.7836Z" fill="#323231"/>
</svg>
