<svg width="40" height="40" viewBox="0 0 40 40" fill="none" xmlns="http://www.w3.org/2000/svg">
<rect width="40" height="40" rx="12" fill="#E13B22"/>
<g clip-path="url(#clip0_107_933)">
<path d="M29.8438 24.9688H28.4375C26.9047 24.9688 25.3017 25.475 23.7828 26.4173C24.0641 26.3891 24.3594 26.375 24.6406 26.375H32V10.8125H29.8438V24.9688ZM20 29.3296C19.7545 29.208 18.145 27.7812 15.3555 27.7812H8V30.5938H15.3555C15.8397 30.5938 16.4502 30.8115 17.2205 31.2584C18.0561 31.7431 19.0175 32 20 32C20.9825 32 21.9439 31.7431 22.7795 31.2584C23.55 30.8115 24.1603 30.5938 24.6445 30.5938H32V27.7812H24.6445C21.8779 27.7812 20.2347 29.2133 20 29.3296ZM19.2969 27.3171V11.7575C18.099 11.1702 16.8991 10.8125 15.3594 10.8125H8V26.375H15.3594C17.0401 26.375 18.1181 26.7502 19.2969 27.3171ZM10.1094 13.6719H17.1875V15.0781H10.1094V13.6719ZM10.1094 16.5312H17.1875V17.9375H10.1094V16.5312ZM10.1094 19.3438H17.1875V20.75H10.1094V19.3438ZM10.1094 22.1562H17.1875V23.5625H10.1094V22.1562Z" fill="white"/>
<path d="M28.4375 23.5625V8C25.7973 8 23.0216 9.27425 20.7031 11.5173V27.0792C23.0224 24.8362 25.801 23.5625 28.4375 23.5625Z" fill="white"/>
</g>
<defs>
<clipPath id="clip0_107_933">
<rect width="24" height="24" fill="white" transform="translate(8 8)"/>
</clipPath>
</defs>
</svg>
