<svg width="40" height="40" viewBox="0 0 40 40" fill="none" xmlns="http://www.w3.org/2000/svg">
<rect width="40" height="40" rx="12" fill="#E13B22"/>
<path d="M26.8151 24.855L25.9858 23.7194C24.6253 24.7131 23.0127 25.2383 21.3223 25.2383C16.9574 25.2383 13.4062 21.6871 13.4062 17.3223C13.4062 12.9574 16.9574 9.40625 21.3223 9.40625V8C16.182 8 12 12.182 12 17.3223C12 22.2703 15.8753 26.3296 20.7499 26.6264V27.875H19.1327C18.0342 27.875 17.1405 28.7687 17.1405 29.8672V32H25.6718V29.8672C25.6718 28.7687 24.778 27.875 23.6796 27.875H22.1561V26.6075C23.8413 26.459 25.4377 25.861 26.815 24.855H26.8151Z" fill="white"/>
<path d="M20.2132 12.6252C19.8259 13.7041 19.5901 15.1023 19.5341 16.6191H23.1103C23.0544 15.1023 22.8186 13.7041 22.4313 12.6252C21.9833 11.3766 21.51 11.0469 21.3223 11.0469C21.1345 11.0469 20.6612 11.3766 20.2132 12.6252ZM15.0864 16.6191H18.1272C18.1968 14.655 18.5579 12.7422 19.1971 11.4175C16.9912 12.2138 15.356 14.213 15.0864 16.6191ZM23.4473 23.2271C25.6533 22.4307 27.2886 20.4316 27.5581 18.0254H24.5173C24.4477 19.9895 24.0866 21.9023 23.4474 23.2271H23.4473ZM27.5579 16.6191C27.2884 14.213 25.6533 12.2138 23.4474 11.4175C24.0866 12.7422 24.4477 14.655 24.5173 16.6191H27.5579ZM20.2132 22.0193C20.6612 23.2679 21.1346 23.5977 21.3223 23.5977C21.5099 23.5977 21.9833 23.2679 22.4313 22.0193C22.8186 20.9405 23.0544 19.5422 23.1103 18.0254H19.5341C19.5901 19.5423 19.8259 20.9405 20.2132 22.0193ZM15.0864 18.0254C15.356 20.4316 16.9912 22.4307 19.1971 23.2271C18.5579 21.9023 18.1968 19.9895 18.1273 18.0254H15.0864Z" fill="white"/>
</svg>
