<svg width="40" height="40" viewBox="0 0 40 40" fill="none" xmlns="http://www.w3.org/2000/svg">
<rect width="40" height="40" rx="12" fill="#E13B22"/>
<g clip-path="url(#clip0_107_938)">
<path d="M29.2754 26.5508L28.2361 27.5902L29.1863 28.5405H11.4596V27.0705H13.6645V22.6523C13.4775 22.6574 13.2902 22.6608 13.1024 22.6608H11.4596V21.1908H13.1023C20.0666 21.1908 26.444 17.3817 29.7458 11.2498L28.4516 10.5529C25.4066 16.2079 19.5251 19.7209 13.1023 19.7209H11.4596V10.8138L12.4098 11.764L13.4492 10.7246L10.7246 8L8 10.7246L9.03939 11.764L9.98969 10.8137V30.0104H29.1863L28.2361 30.9606L29.2754 32L32.0001 29.2754L29.2754 26.5508Z" fill="white"/>
<path d="M17.3393 27.0701V22.2165C16.6111 22.3708 15.8751 22.4852 15.1344 22.559V27.0701L17.3393 27.0701ZM21.0141 27.0701V21.0648C20.2948 21.3677 19.5586 21.629 18.8092 21.8473V27.0701H21.0141ZM26.1589 27.0701V17.9307C25.0263 18.8766 23.7941 19.6964 22.484 20.3756V27.0701H26.1589Z" fill="white"/>
</g>
<defs>
<clipPath id="clip0_107_938">
<rect width="24" height="24" fill="white" transform="translate(8 8)"/>
</clipPath>
</defs>
</svg>
