<svg width="40" height="40" viewBox="0 0 40 40" fill="none" xmlns="http://www.w3.org/2000/svg">
<rect width="40" height="40" rx="12" fill="#E13B22"/>
<g clip-path="url(#clip0_107_910)">
<path d="M29.1769 17.1765C28.4228 17.1765 27.7137 17.4702 27.1804 18.0035C26.8178 18.3661 26.5663 18.81 26.4422 19.2941H24.1264C24.0202 18.6644 23.7722 18.0671 23.4012 17.5473L27.6936 13.255C29.5311 14.3704 31.9715 12.9859 31.9502 10.8236C31.9502 9.26676 30.6835 8.00014 29.1267 8.00014C26.9644 7.97901 25.5798 10.4192 26.6953 12.2567L22.403 16.5491C20.9466 15.511 18.9764 15.495 17.4976 16.5491L15.3229 14.3744C16.4383 12.5368 15.0538 10.0964 12.8915 10.1178C11.3347 10.1178 10.0681 11.3844 10.0681 12.9413C10.0469 15.1036 12.4871 16.4882 14.3247 15.3726L16.4994 17.5473C15.4524 19.0161 15.4532 20.9871 16.5013 22.4553L12.2546 26.7434C10.417 25.6308 7.97943 27.0155 8.00075 29.1764C8.00075 30.7332 9.26737 31.9999 10.8242 31.9999C12.9879 32.021 14.3723 29.578 13.2541 27.7406L17.5003 23.4528C18.0099 23.8155 18.603 24.068 19.2947 24.1761V25.8384C17.1616 26.2933 16.4034 29.0582 17.9538 30.5675C19.0545 31.6682 20.8458 31.6685 21.9468 30.5675C23.0478 29.4666 23.0478 27.6753 21.9468 26.5745C21.5771 26.2047 21.1293 25.9598 20.7065 25.8384V24.176C22.427 23.8776 23.828 22.4767 24.1264 20.7058H26.4423C26.5664 21.1899 26.8178 21.6339 27.1805 21.9964C28.2839 23.0999 30.0699 23.1001 31.1735 21.9964C32.9447 20.2384 31.6764 17.1683 29.1769 17.1765Z" fill="white"/>
</g>
<defs>
<clipPath id="clip0_107_910">
<rect width="24" height="24" fill="white" transform="translate(8 8)"/>
</clipPath>
</defs>
</svg>
