<svg width="40" height="40" viewBox="0 0 40 40" fill="none" xmlns="http://www.w3.org/2000/svg">
<rect width="40" height="40" rx="12" fill="#E13B22"/>
<g clip-path="url(#clip0_107_920)">
<path d="M30.5938 26.375H22.1094C21.2703 26.375 20.5157 26.7444 20 27.3294C19.4843 26.7444 18.7297 26.375 17.8906 26.375H9.40625V29.1875H8V30.5938H16.8964L18.3026 32H21.6974L23.1036 30.5938H32V29.1875H30.5938V26.375ZM16.0991 10.8594H23.9009L20 8L16.0991 10.8594ZM10.8594 22.1562H29.1875V24.9688H10.8594V22.1562ZM10.8594 12.2656H29.1875V15.0781H10.8594V12.2656ZM12.2656 16.4844H15.0781V20.75H12.2656V16.4844ZM24.9219 16.4844H27.7812V20.75H24.9219V16.4844ZM18.5938 16.4844H21.4062V20.75H18.5938V16.4844Z" fill="white"/>
</g>
<defs>
<clipPath id="clip0_107_920">
<rect width="24" height="24" fill="white" transform="translate(8 8)"/>
</clipPath>
</defs>
</svg>
