<svg width="40" height="40" viewBox="0 0 40 40" fill="none" xmlns="http://www.w3.org/2000/svg">
<rect width="40" height="40" rx="12" fill="#E13B22"/>
<path d="M9.22046 20.5087H10.2133L15.1371 27.5153C15.2727 27.708 15.4611 27.8574 15.6798 27.9453C15.8984 28.0332 16.1378 28.056 16.369 28.0109C16.6004 27.9658 16.8138 27.8546 16.9833 27.6908C17.1529 27.527 17.2714 27.3177 17.3245 27.088L20.2582 14.4069H30.7796C30.9415 14.4096 31.1024 14.38 31.2528 14.3199C31.4032 14.2597 31.5402 14.1703 31.6557 14.0567C31.7712 13.9431 31.8629 13.8076 31.9255 13.6582C31.9881 13.5088 32.0204 13.3484 32.0204 13.1864C32.0204 13.0244 31.9881 12.8641 31.9255 12.7147C31.8629 12.5653 31.7712 12.4298 31.6557 12.3162C31.5402 12.2026 31.4032 12.1132 31.2528 12.053C31.1024 11.9929 30.9415 11.9633 30.7796 11.966H19.288C19.0121 11.966 18.7444 12.0595 18.5285 12.2312C18.3125 12.4029 18.1611 12.6427 18.0989 12.9114L15.5627 23.8753L11.8459 18.5864C11.7333 18.4262 11.5838 18.2955 11.41 18.2053C11.2362 18.1151 11.0433 18.0679 10.8475 18.0679H9.22046C8.90108 18.0744 8.59696 18.2058 8.37338 18.434C8.1498 18.6621 8.02457 18.9689 8.02457 19.2883C8.02457 19.6077 8.1498 19.9145 8.37338 20.1426C8.59696 20.3708 8.90108 20.5022 9.22046 20.5087Z" fill="white"/>
<path d="M21.6468 25.6966C21.6468 26.2959 22.1353 26.7368 22.7654 26.7368C23.191 26.7368 23.5219 26.4689 23.8055 26.1221L25.5075 23.8844L27.2094 26.1221C27.5246 26.5162 27.8552 26.7368 28.3278 26.7368C28.9272 26.7368 29.431 26.3113 29.431 25.6339C29.431 25.3188 29.3048 25.0351 29.0368 24.7195L26.9252 22.2929L28.9742 19.8973C29.1635 19.6608 29.3048 19.4087 29.3048 19.0776C29.3048 18.4783 28.8162 18.0371 28.1859 18.0371C27.7602 18.0371 27.4296 18.3051 27.1457 18.6523L25.5539 20.732L23.994 18.6523C23.6784 18.258 23.3479 18.0371 22.8754 18.0371C22.2763 18.0371 21.7723 18.4631 21.7723 19.1407C21.7723 19.4554 21.8986 19.7395 22.1661 20.0542L24.1359 22.3238L21.9769 24.8768C21.7728 25.1134 21.6468 25.3655 21.6468 25.6966Z" fill="white"/>
</svg>
