<svg width="40" height="40" viewBox="0 0 40 40" fill="none" xmlns="http://www.w3.org/2000/svg">
<rect width="40" height="40" rx="12" fill="#E13B22"/>
<path d="M13.3773 15.0778H13.9664L13.6719 14.4756L13.3773 15.0778Z" fill="white"/>
<path d="M13.6719 9.45312C10.5703 9.45312 8 11.9765 8 15.0781C8 18.1797 10.5703 20.7031 13.6719 20.7031C14.5947 20.7031 15.5148 20.4628 16.3498 20.0068L18.9755 20.3818L18.6006 17.756C19.0565 16.9211 19.2969 16.001 19.2969 15.0781C19.2969 11.9765 16.7735 9.45312 13.6719 9.45312ZM15.1495 17.4965L14.6544 16.4844H12.6894L12.1942 17.4965L10.9308 16.8785L13.1878 12.2656H14.1638L16.413 16.8785L15.1495 17.4965ZM26.3281 9.45312C23.2265 9.45312 20.7031 11.9765 20.7031 15.0781C20.7031 16.001 20.9435 16.9211 21.3994 17.756L21.0245 20.3818L23.6503 20.0069C24.4852 20.4628 25.4053 20.7031 26.3281 20.7031C29.4297 20.7031 32 18.1797 32 15.0781C32 11.9765 29.4297 9.45312 26.3281 9.45312ZM25.625 15.7812H24.2188V14.375H25.625V15.7812ZM28.4375 15.7812H27.0312V14.375H28.4375V15.7812ZM29.4077 27.7344C26.9351 27.7344 26.1469 27.3107 25.4506 26.9365C24.893 26.6378 24.317 26.3281 23.1977 26.3281C22.0352 26.3281 20.8947 26.7422 20 27.4769C19.1053 26.7422 17.9648 26.3281 16.8023 26.3281C15.683 26.3281 15.107 26.6378 14.5494 26.9365C13.8531 27.3107 13.0649 27.7344 10.5923 27.7344H10.1562L8 30.5469H10.8449C12.7998 30.5469 13.9397 30.0559 14.855 29.6611C15.5306 29.3706 16.0641 29.1406 16.8023 29.1406C18.0513 29.1406 18.8169 29.3734 19.3635 29.92L20 30.5469L20.6365 29.92C21.1831 29.3734 21.9487 29.1406 23.1977 29.1406C23.9359 29.1406 24.4694 29.3706 25.145 29.6611C26.0603 30.0559 27.2002 30.5469 29.1551 30.5469H32L29.8438 27.7344H29.4077ZM15.1235 22.3064C14.3338 22.4698 13.7687 22.7212 13.2702 22.9437C12.5808 23.2506 11.9855 23.5156 10.8449 23.5156H9.40625V24.9219H10.8449C12.2841 24.9219 13.0765 24.569 13.8421 24.2277C14.318 24.0162 14.767 23.8164 15.4077 23.6838C16.334 23.4909 17.2588 23.7271 18.0162 24.3444C18.3302 24.5998 18.5743 24.9128 18.7781 25.2484C19.2005 25.3855 19.6129 25.5538 19.9999 25.7753C20.3869 25.5538 20.7993 25.3855 21.2217 25.2484C21.4255 24.9128 21.6696 24.5998 21.9836 24.3444C22.7417 23.7271 23.668 23.4943 24.5922 23.6838C25.2328 23.8163 25.6819 24.0162 26.1577 24.2283C26.9234 24.569 27.7158 24.9219 29.1551 24.9219H30.5469V23.5156H29.1551C28.0145 23.5156 27.4192 23.2506 26.7298 22.9437C26.2313 22.7212 25.6662 22.4699 24.8766 22.3064C23.5507 22.0332 22.1726 22.3778 21.0952 23.2533C20.6415 23.6231 20.2896 24.0771 20 24.5653C19.7105 24.0771 19.3586 23.6231 18.9049 23.2533C17.8281 22.3772 16.4507 22.0332 15.1235 22.3064Z" fill="white"/>
</svg>
