<svg width="40" height="40" viewBox="0 0 40 40" fill="none" xmlns="http://www.w3.org/2000/svg">
<rect width="40" height="40" rx="12" fill="#E13B22"/>
<g clip-path="url(#clip0_107_905)">
<path d="M28.7977 20C30.5828 18.2506 31.5258 16.433 30.8332 14.9483C30.006 13.175 27.3183 12.8811 24.155 13.478C23.3592 10.3588 21.957 8 20 8C18.0431 8 16.6408 10.3588 15.845 13.4778C12.6817 12.8809 9.99392 13.175 9.16677 14.9483C8.47423 16.433 9.41717 18.2506 11.2023 20C9.41717 21.7494 8.47423 23.567 9.16681 25.0517C10.1517 27.1636 13.5549 26.9493 15.8439 26.5179C16.6395 29.6392 18.0421 32 20 32C21.9579 32 23.3605 29.6392 24.1561 26.5179C26.4585 26.9518 29.8505 27.1575 30.8332 25.0516C31.5258 23.5669 30.5828 21.7494 28.7977 20ZM10.4412 15.543C11.0434 14.2501 14.1263 14.5967 15.5418 14.8562C15.4141 15.539 15.3128 16.2459 15.2378 16.9665C14.1546 17.6156 13.1438 18.3213 12.2581 19.0541C11.4297 18.2467 9.95262 16.5895 10.4412 15.543ZM15.1097 21.2964C14.4629 20.875 13.8507 20.4435 13.305 20C13.8507 19.5565 14.4629 19.1249 15.1097 18.7036C15.0681 19.6518 15.0673 20.329 15.1097 21.2964ZM10.4412 24.457C9.95234 23.4099 11.4313 21.7516 12.2582 20.9459C13.1439 21.6787 14.1547 22.3844 15.2379 23.0335C15.3129 23.7548 15.4144 24.4624 15.5421 25.146C12.8376 25.6427 10.8667 25.3719 10.4412 24.457ZM23.2421 16.1161C22.5147 15.7373 22.1931 15.5937 21.951 15.482C22.3374 15.3618 22.7158 15.2534 23.0844 15.1587C23.1437 15.4767 23.1962 15.7959 23.2421 16.1161ZM20 9.40625C21.0083 9.40625 22.0866 11.1245 22.7797 13.7852C21.8648 14.0202 20.9291 14.3163 20.0003 14.6659C19.0713 14.3162 18.1355 14.0199 17.2204 13.7849C17.9134 11.1245 18.9917 9.40625 20 9.40625ZM16.9161 15.1558C17.2857 15.2508 17.6654 15.3598 18.0529 15.4803C17.7686 15.6114 17.4688 15.7459 16.7579 16.1162C16.804 15.795 16.8567 15.4748 16.9161 15.1558ZM16.7579 23.8838C17.4789 24.2594 17.7689 24.3884 18.0496 24.5178C17.663 24.6381 17.2846 24.7466 16.9157 24.8414C16.8564 24.5234 16.8038 24.2041 16.7579 23.8838ZM20 30.5938C18.9915 30.5938 17.9129 28.8749 17.2199 26.2134C18.1356 25.9783 19.0705 25.6807 20 25.331C20.9295 25.6807 21.8644 25.9783 22.7801 26.2134C22.0871 28.8749 21.0085 30.5938 20 30.5938ZM23.0844 24.8412C22.7156 24.7465 22.337 24.638 21.9505 24.5177C22.2514 24.3793 22.5185 24.2608 23.2421 23.8838C23.1962 24.204 23.1436 24.5232 23.0844 24.8412ZM23.4326 22.1876C22.208 22.8748 21.1415 23.3677 20 23.8236C18.8435 23.3617 17.792 22.8748 16.5674 22.1876C16.4591 20.7817 16.4542 19.2811 16.5674 17.8124C17.8018 17.1196 18.8676 16.6288 20 16.1765C21.1542 16.6374 22.2055 17.1238 23.4326 17.8124C23.5409 19.2183 23.5458 20.7189 23.4326 22.1876ZM29.5588 15.543C30.0477 16.5901 28.5687 18.2484 27.7418 19.0541C26.8562 18.3213 25.8453 17.6156 24.7621 16.9665C24.6871 16.2453 24.5857 15.5377 24.458 14.8543C27.162 14.3579 29.1325 14.629 29.5588 15.543ZM24.8903 18.7036C25.5371 19.125 26.1492 19.5565 26.695 20C26.1492 20.4435 25.5371 20.8751 24.8903 21.2964C24.9319 20.3482 24.9327 19.671 24.8903 18.7036ZM29.5588 24.457C29.1333 25.3707 27.1626 25.6419 24.458 25.1456C24.5857 24.4621 24.6871 23.7547 24.7621 23.0335C25.8453 22.3844 26.8561 21.6787 27.7418 20.9459C28.5703 21.7533 30.0474 23.4105 29.5588 24.457Z" fill="white"/>
<path d="M20 17.8906C18.8368 17.8906 17.8906 18.8368 17.8906 20C17.8906 21.1632 18.8368 22.1094 20 22.1094C21.1632 22.1094 22.1094 21.1632 22.1094 20C22.1094 18.8368 21.1632 17.8906 20 17.8906Z" fill="white"/>
</g>
<defs>
<clipPath id="clip0_107_905">
<rect width="24" height="24" fill="white" transform="translate(8 8)"/>
</clipPath>
</defs>
</svg>
