<svg width="40" height="40" viewBox="0 0 40 40" fill="none" xmlns="http://www.w3.org/2000/svg">
<rect width="40" height="40" rx="12" fill="#E13B22"/>
<g clip-path="url(#clip0_107_914)">
<path d="M22.1176 28.1172V27.4114H17.8824C18.0324 29.6458 16.8424 29.5745 15.0588 29.529V30.9408H24.9412V29.529C23.7728 29.5464 22.1927 29.7355 22.1176 28.1172ZM20.7059 13.2937C20.701 12.3708 19.2989 12.3709 19.2941 13.2938C19.299 14.2166 20.7011 14.2165 20.7059 13.2937Z" fill="white"/>
<path d="M8 9.05859V22.4704H19.2941V19.9998L16.9412 18.2351H14.9374C14.2001 20.4308 10.7964 19.8796 10.8235 17.5291C10.7966 15.1788 14.2005 14.6274 14.9374 16.8233H17.4118L19.2941 18.2351V15.2901C17.0983 14.5528 17.6496 11.1491 20.0001 11.1763C22.3504 11.1494 22.9018 14.5533 20.7059 15.2901V18.2351L22.5882 16.8233H25.0626C25.7999 14.6275 29.2036 15.1787 29.1764 17.5293C29.2033 19.8795 25.7995 20.431 25.0626 18.2351H23.0588L20.7059 19.9998V22.4704H32V9.05859H8ZM12.2353 12.588H10.8235V11.1762H12.2353V12.588ZM15.0588 12.588H13.6471V11.1762H15.0588V12.588ZM26.3529 12.588H24.9412V11.1762H26.3529V12.588ZM29.1765 12.588H27.7647V11.1762H29.1765V12.588Z" fill="white"/>
<path d="M12.2353 17.5291C12.2402 18.452 13.6423 18.4519 13.6471 17.529C13.6422 16.6062 12.24 16.6062 12.2353 17.5291ZM8 23.882H32V25.9997H8V23.882ZM27.7647 17.5291C27.7598 16.6062 26.3577 16.6062 26.3529 17.5291C26.3578 18.452 27.76 18.4519 27.7647 17.5291Z" fill="white"/>
</g>
<defs>
<clipPath id="clip0_107_914">
<rect width="24" height="24" fill="white" transform="translate(8 8)"/>
</clipPath>
</defs>
</svg>
