<svg width="40" height="40" viewBox="0 0 40 40" fill="none" xmlns="http://www.w3.org/2000/svg">
<rect width="40" height="40" rx="12" fill="#E13B22"/>
<g clip-path="url(#clip0_107_929)">
<path d="M30.4681 13.3617C30.4681 16.7405 27.7192 19.4893 24.3404 19.4894L20.5107 19.4893V16.8065L21.6616 17.9574L23.8281 17.9575L20.5837 14.7132C20.6731 14.1391 20.8445 13.5808 21.0924 13.0554L25.7674 17.7304C26.2782 17.5629 26.7557 17.3071 27.1779 16.9745L21.9373 11.7338C22.2664 11.3403 22.6432 10.9894 23.0591 10.689L28.2095 15.8395C28.5114 15.37 28.7248 14.8491 28.8391 14.3027L24.4663 9.92994C25.1418 9.67306 25.8738 9.53192 26.6383 9.53192V8C22.4148 8 18.9787 11.4361 18.9787 15.6596V19.234H15.5064C11.3674 19.2341 8 22.6014 8 26.7404H9.53192C9.53192 23.4461 12.212 20.766 15.5064 20.766H19.234V23.4736L18.0583 22.2979H15.8919L19.1411 25.547C19.04 26.1119 18.8575 26.6591 18.5992 27.1716L13.9916 22.564C13.4916 22.7462 13.0284 23.0168 12.624 23.3628L17.7223 28.4611C17.3807 28.8451 16.9912 29.1837 16.5635 29.4688L11.6434 24.5486C11.358 25.049 11.1735 25.6005 11.1001 26.1718L15.1045 30.1762C14.5087 30.37 13.8861 30.4685 13.2596 30.4681V32C17.3986 32 20.7659 28.6326 20.7659 24.4936V21.0213L24.3404 21.0213C28.5639 21.0213 32 17.5852 32 13.3617H30.4681Z" fill="white"/>
</g>
<defs>
<clipPath id="clip0_107_929">
<rect width="24" height="24" fill="white" transform="translate(8 8)"/>
</clipPath>
</defs>
</svg>
