<svg width="40" height="40" viewBox="0 0 40 40" fill="none" xmlns="http://www.w3.org/2000/svg">
<rect width="40" height="40" rx="12" fill="#E13B22"/>
<g clip-path="url(#clip0_107_943)">
<path d="M17.6633 27.7578V22.4594H12.3066V8.06445L32 27.7578H17.6633Z" fill="white"/>
<path d="M12.3066 23.8818H16.2416V27.7586H12.3066V23.8818ZM16.1712 29.8976H27.6724V29.2815H29.0941V31.9354H27.6724V31.3193H16.1712V31.9354H14.7495V29.2815H16.1712V29.8976ZM28.3437 21.9125L27.3417 20.904L27.7787 20.4698L19.6726 12.311L19.2355 12.7452L18.2335 11.7366L20.1161 9.86621L21.1181 10.8747L20.6811 11.3089L28.7872 19.4678L29.2243 19.0336L30.2263 20.0421L28.3437 21.9125ZM8 12.4622V11.0405H10.6538V12.4622H10.0378V23.9634H10.6538V25.3851H8V23.9634H8.61607V12.4622H8Z" fill="white"/>
</g>
<defs>
<clipPath id="clip0_107_943">
<rect width="24" height="24" fill="white" transform="translate(8 8)"/>
</clipPath>
</defs>
</svg>
