<svg width="40" height="40" viewBox="0 0 40 40" fill="none" xmlns="http://www.w3.org/2000/svg">
<rect width="40" height="40" rx="12" fill="#E13B22"/>
<path d="M20.7031 13.9582V11.8164C21.4449 11.5324 21.9731 10.8135 21.9731 9.97317C21.9731 8.88515 21.088 8 20 8C18.9119 8 18.0268 8.88515 18.0268 9.97317C18.0268 10.8135 18.5551 11.5325 19.2968 11.8164V13.9582C19.5285 13.9128 19.7639 13.8898 20 13.8898C20.236 13.8899 20.4715 13.9128 20.7031 13.9582ZM16.5654 18.829C16.4793 18.5978 16.417 18.3584 16.3794 18.1146C16.3508 17.9289 16.3365 17.7413 16.3364 17.5534C16.3364 17.3965 16.3474 17.2422 16.3667 17.0904L13.2575 15.2946C13.2736 15.1931 13.2822 15.0891 13.2822 14.9831C13.2822 13.8955 12.4006 13.0139 11.3131 13.0139C10.2256 13.0139 9.34395 13.8955 9.34395 14.9831C9.34395 16.0706 10.2256 16.9522 11.3131 16.9522C11.7653 16.9528 12.2037 16.7971 12.5543 16.5115L16.5654 18.829ZM12.5496 23.4848C12.1998 23.2015 11.7632 23.0472 11.3131 23.0478C10.2255 23.0478 9.34395 23.9294 9.34395 25.0169C9.34395 26.1045 10.2256 26.9861 11.3131 26.9861C12.4006 26.9861 13.2822 26.1045 13.2822 25.0169C13.2822 24.9108 13.2736 24.8067 13.2574 24.705L14.941 23.7329C14.941 23.7329 14.9429 22.9391 14.9468 22.8547C14.9592 22.583 14.9935 22.3128 15.0493 22.0466L12.5496 23.4848ZM23.4345 18.829C23.5206 18.5978 23.5829 18.3584 23.6206 18.1146C23.6491 17.9296 23.6636 17.7408 23.6636 17.5534C23.6636 17.3965 23.6525 17.2422 23.6333 17.0904L26.7425 15.2946C26.726 15.1916 26.7178 15.0874 26.7177 14.9831C26.7177 13.8955 27.5993 13.0139 28.6868 13.0139C29.7744 13.0139 30.656 13.8955 30.656 14.9831C30.656 16.0706 29.7744 16.9522 28.6868 16.9522C28.2347 16.9528 27.7962 16.7971 27.4457 16.5115L23.4345 18.829ZM27.4504 23.4848C27.8002 23.2015 28.2368 23.0472 28.6869 23.0478C29.7744 23.0478 30.656 23.9294 30.656 25.0169C30.656 26.1045 29.7744 26.9861 28.6869 26.9861C27.5994 26.9861 26.7178 26.1045 26.7178 25.0169C26.7178 24.9108 26.7264 24.8067 26.7426 24.705L25.0589 23.7329C25.0589 23.7329 25.0571 22.9391 25.0532 22.8547C25.0408 22.583 25.0065 22.3128 24.9507 22.0466L27.4504 23.4848ZM19.297 28.1837C18.5553 28.4677 18.0271 29.1865 18.0271 30.0268C18.0271 31.1148 18.9122 32 20.0002 32C21.0883 32 21.9734 31.1149 21.9734 30.0268C21.9734 29.1864 21.4451 28.4675 20.7032 28.1836V25.5621H19.297V28.1837ZM22.3896 20.3269C21.7475 20.8809 20.9125 21.217 20 21.217C19.0875 21.217 18.2525 20.8809 17.6105 20.3269C16.8376 20.9972 16.3473 21.9851 16.3473 23.086V24.1558H23.6527V23.086C23.6527 21.9851 23.1624 20.9972 22.3896 20.3269Z" fill="white"/>
<path d="M22.0902 18.4193C22.5677 17.2677 22.0212 15.947 20.8695 15.4695C19.7179 14.992 18.3972 15.5385 17.9197 16.6902C17.4422 17.8418 17.9887 19.1625 19.1404 19.64C20.292 20.1175 21.6127 19.571 22.0902 18.4193Z" fill="white"/>
</svg>
