<svg width="474" height="308" viewBox="0 0 474 308" fill="none" xmlns="http://www.w3.org/2000/svg">
<mask id="path-1-inside-1_47_3905" fill="white">
<path fill-rule="evenodd" clip-rule="evenodd" d="M320 308C405.052 308 474 239.052 474 154C474 68.9482 405.052 0 320 0C266.976 0 220.211 26.798 192.509 67.5892C184.293 79.6882 167.933 84.6206 154.06 79.9911C142.414 76.1048 129.953 74 117 74C52.3827 74 0 126.383 0 191C0 255.617 52.3827 308 117 308C145.012 308 170.725 298.156 190.867 281.738C202.198 272.503 219.235 271.371 231.169 279.813C256.269 297.568 286.916 308 320 308Z"/>
</mask>
<path fill-rule="evenodd" clip-rule="evenodd" d="M320 308C405.052 308 474 239.052 474 154C474 68.9482 405.052 0 320 0C266.976 0 220.211 26.798 192.509 67.5892C184.293 79.6882 167.933 84.6206 154.06 79.9911C142.414 76.1048 129.953 74 117 74C52.3827 74 0 126.383 0 191C0 255.617 52.3827 308 117 308C145.012 308 170.725 298.156 190.867 281.738C202.198 272.503 219.235 271.371 231.169 279.813C256.269 297.568 286.916 308 320 308Z" fill="white"/>
<path d="M190.867 281.738L192.131 283.289L190.867 281.738ZM231.169 279.813L230.014 281.446L231.169 279.813ZM472 154C472 237.947 403.947 306 320 306V310C406.156 310 476 240.156 476 154H472ZM320 2C403.947 2 472 70.0527 472 154H476C476 67.8436 406.156 -2 320 -2V2ZM194.164 68.7128C221.509 28.4463 267.666 2 320 2V-2C266.285 -2 218.913 25.1496 190.855 66.4656L194.164 68.7128ZM117 76C129.735 76 141.982 78.0692 153.427 81.8883L154.693 78.094C142.846 74.1404 130.171 72 117 72V76ZM2 191C2 127.487 53.4873 76 117 76V72C51.2781 72 -2 125.278 -2 191H2ZM117 306C53.4873 306 2 254.513 2 191H-2C-2 256.722 51.2781 310 117 310V306ZM189.604 280.188C169.805 296.325 144.535 306 117 306V310C145.489 310 171.644 299.986 192.131 283.289L189.604 280.188ZM320 306C287.343 306 257.097 295.704 232.324 278.18L230.014 281.446C255.441 299.431 286.489 310 320 310V306ZM192.131 283.289C202.816 274.58 218.865 273.559 230.014 281.446L232.324 278.18C219.605 269.183 201.581 270.426 189.604 280.188L192.131 283.289ZM190.855 66.4656C183.178 77.7696 167.78 82.461 154.693 78.094L153.427 81.8883C168.087 86.7801 185.408 81.6068 194.164 68.7128L190.855 66.4656Z" fill="#323231" mask="url(#path-1-inside-1_47_3905)"/>
</svg>
