<svg width="39" height="44" viewBox="0 0 39 44" fill="none" xmlns="http://www.w3.org/2000/svg">
<path d="M32.1591 3.79097C33.1908 2.57646 34.5564 1.27086 35.1633 0.906506C38.7137 -1.27961 40.1097 0.785055 37.3179 3.94278C35.1937 6.34144 34.5261 7.25232 33.9192 8.04175C33.9192 8.04175 32.0618 10.3593 31.5654 10.8206C31.069 11.2819 30.3934 12.0018 29.0941 13.507C28.0017 14.7823 21.1371 22.9552 21.1371 22.9552L18.2017 26.4333C18.2017 26.4333 12.3589 33.1091 8.77759 37.7176C7.90031 38.8466 6.45636 40.5603 6.45636 40.5603L5.45487 41.5926C2.0258 45.145 -0.978395 43.9305 1.69203 40.1048L3.08796 38.1313C3.08796 38.1313 5.11792 35.2644 5.76496 34.5487C6.41201 33.833 7.62236 32.3985 10.553 28.8402L15.1959 23.1928L17.8966 19.944C18.109 19.9743 27.6073 9.01339 27.6984 8.83121C27.6984 8.83121 28.8921 7.3124 29.866 6.26051C30.695 5.36507 30.7935 5.36983 32.1591 3.79097Z" fill="#EDD0BE"/>
</svg>
